<svg id="Laag_1" data-name="Laag 1" xmlns="http://www.w3.org/2000/svg" viewBox="0 0 1200 297.13"><defs><style>.cls-1{fill:#bf6b33;}.cls-2{fill:#994e1c;}.cls-3{fill:#51240d;}.cls-4{fill:#77380e;}.cls-5{fill:#602e11;}.cls-6{fill:#86cf62;}.cls-7{fill:#3ab449;}.cls-8{fill:#f3dcb5;}.cls-9{fill:#6f6f7c;}.cls-10{fill:#a1a1a9;}.cls-11{fill:#555562;}</style></defs><polygon class="cls-1" points="1199.17 12.61 184.35 7.68 136.58 5.92 11.46 0 9.59 8.44 1199.39 35.16 1199.17 12.61"/><polygon class="cls-2" points="1147.93 108.94 1199.84 103.74 1199.39 35.16 9.59 8.44 3.52 35.91 0 64.81 55.2 83.39 6.15 99.47 2.63 141.31 1199.92 148.13 1199.92 122.75 1147.93 108.94"/><polygon class="cls-3" points="1199.77 103.75 1182.83 118.2 1147.93 108.94 1199.77 103.75"/><polygon class="cls-3" points="1199.92 148.13 1179.57 167.82 24.43 161 2.63 141.31 1199.92 148.13"/><polygon class="cls-3" points="55.2 83.39 17.91 70.86 6.15 99.47 55.2 83.39"/><polygon class="cls-4" points="1200 166.31 1195.87 249.83 1169.73 261.74 1187.62 278.86 1187.28 297.13 21.28 297.13 16.7 224.87 48.68 206.37 6.51 202.72 11.44 159.49 1200 166.31"/><polygon class="cls-3" points="1181.58 256.33 1187.62 278.86 1169.73 261.74 1181.58 256.33"/><polygon class="cls-3" points="6.51 202.72 22.68 209.84 16.74 224.84 48.68 206.37 6.51 202.72"/><polygon class="cls-5" points="11.44 159.49 1198.64 193.8 1200 166.31 11.44 159.49"/><path class="cls-5" d="M181.44,247.74,19.19,254.9,17.91,239h90a298.55,298.55,0,0,1,56.63,5.46Z"/><path class="cls-1" d="M96.74,55.22,1.8,50,3.52,35.91l15.8,1.39c24,4,42.68,7.61,60.88,13Z"/><path class="cls-4" d="M1199.94,131.24v9.57h-47.09l16.83-4C1179.42,134.55,1189.27,132.8,1199.94,131.24Z"/><path class="cls-1" d="M85.68,128.28H3.76l1.06-12.85c9.77.49,21.91.7,31.47,2.71Z"/><path class="cls-5" d="M205.92,189l-17.15,2.34a301.7,301.7,0,0,1-56.83,2.49L8.31,187.13l1.95-17.33Z"/><path class="cls-5" d="M1197.59,215.6l-.82,15.36-78-4.09a298.64,298.64,0,0,1-56.24-8.49l-16.7-4.17Z"/><path class="cls-5" d="M205.92,219.57l133.81,7.94-31.61-8.43a122.25,122.25,0,0,0-25.08-4l-25.85-1.35c-15.74.76-28.08,1.73-40.25,3.85Z"/><path class="cls-5" d="M963,257.07,829.29,246.31l31.53,12.49a83.53,83.53,0,0,0,25,5.76l25.83,1.8c15.76-1.3,28.11-2.9,40.3-6.23Z"/><path class="cls-4" d="M151.32,95.86l133.82,7.93-31.62-8.42a121.47,121.47,0,0,0-25.08-4L202.6,90.07c-15.75.76-28.09,1.73-40.25,3.85Z"/><path class="cls-4" d="M1001.39,113.38,867.6,104.21l31.58,10.2a101.4,101.4,0,0,0,25.06,4.74l25.85,1.54c15.75-1,28.09-2.24,40.26-4.88Z"/><path class="cls-5" d="M940.41,244.52l81.82-2.38-20.05-5.82a48.63,48.63,0,0,0-15.6-2L970.8,235c-9.45,1.92-16.8,3.8-23.93,6.79Z"/><path class="cls-4" d="M1028,83.42,1109.46,91l-19.14-8.22A48.76,48.76,0,0,0,1075.09,79l-15.74-1.29c-9.62.76-17.16,1.73-24.62,3.82Z"/><path class="cls-4" d="M206.33,53,938.66,70.54l-66.74-9.08A530.13,530.13,0,0,0,819,57l-504.89-8.7c-33.13.44-59.09,1.16-84.65,3Z"/><path class="cls-6" d="M102.32,49.42a40.44,40.44,0,0,1-26-11.56,40.44,40.44,0,0,1-11.56-26l37.59,37.56Z"/><path class="cls-7" d="M64.73,11.83a39.64,39.64,0,0,1,37.59,37.56Z"/><path class="cls-7" d="M90.55,31.9a13.9,13.9,0,0,0-7.15-1.34,14.06,14.06,0,0,0-6.9,2.31,13.9,13.9,0,0,0,7.15,1.34A14.06,14.06,0,0,0,90.55,31.9Z"/><path class="cls-7" d="M85.19,24.45a14.45,14.45,0,0,0-14.06,1,14.45,14.45,0,0,0,14.06-1Z"/><path class="cls-7" d="M99.78,39.25a21,21,0,0,0-17.11,1.19,21,21,0,0,0,17.11-1.19Z"/><path class="cls-6" d="M105.07,60.6A40.55,40.55,0,0,1,96.2,33.53a40.54,40.54,0,0,1,11.58-26L105.1,60.58Z"/><path class="cls-7" d="M107.78,7.5a40.44,40.44,0,0,1,8.87,27.07,40.53,40.53,0,0,1-11.55,26Z"/><path class="cls-7" d="M110.19,40.12a14.46,14.46,0,0,0-10.14-9.78,14.46,14.46,0,0,0,10.14,9.78Z"/><path class="cls-7" d="M112.12,31.15A14.46,14.46,0,0,0,102,21.37a14.46,14.46,0,0,0,10.14,9.78Z"/><path class="cls-7" d="M110.92,51.89A21,21,0,0,0,98.57,40a20.1,20.1,0,0,0,4.9,7.27A20,20,0,0,0,110.92,51.89Z"/><path class="cls-8" d="M957.12,202c31.36,1.59,62.74,2.08,94.12,3.07,30.79,1,61.53,3.31,92.35,3.4,9.93,0,19.85-37.83,27.69-33.34,2-50,0-60,.46-96-4.64-.41-8-.67-8-.67l8-.6c.29-6.67.58-12.87.86-18.4l-24.5-1.79,24.68-1.5c.9-17.21,1.66-27.67,1.66-27.67l-8.19.24c-1.78.05-2.46,2.83-4.28,2.88-1.52,0-4.17-2.66-5.72-2.62-15,.37-313.44.67-329.87.9-1.26,0-2.52,9.72-3.78,9.74S820.13,30,818.86,30c-7.14.09-14.37.16-21.64.23l-4.13,0-3.87,0c-8,0-285.55.09-293.62.11-2.41,0-3.79,25.66-6.2,25.66-1.5,0-4-25.64-5.52-25.64-5,0-10,0-15,0l-3,17.78-4-17.8h-5.21l-3.33,0h-2.81c-23.24-.15-346-.45-367-.93-1,0-2.48,14-3.52,14-1.55,0-2.7-14.15-4.23-14.19C67.57,29,59.62,28.76,52,28.49l-2.79-.1-2-.07q-6-.24-11.75-.49l-.41,0s1.55,16.42,3.17,41.77c9.75,1,20.3,1.86,20.3,1.86L38.42,72.92c-1.72,41.66,1.5,95,1.09,143.61A41,41,0,0,1,43.59,215,41.83,41.83,0,0,1,65,210.16h.56A56,56,0,0,1,78,211.58a30.47,30.47,0,0,1,8.69-.3c40.35,5.13,81,2.08,121.5,2a53.57,53.57,0,0,1,21,4.17,48,48,0,0,1,27.65-7.26c38.78,2.41,77.62,1.44,116.44,1.41a54,54,0,0,1,11.2,1.13,51.91,51.91,0,0,1,18.61-3.38c21.22.15,42.32,2.61,63.5,3.49l.15-.16c9.14-9.14,25.93-17.56,39.29-16.27,13.61,1.32,27.08,3.79,40.6,5.86,33.2,4,66.61,5.15,100,5.95a59.11,59.11,0,0,1,12.2,1.57,53,53,0,0,1,26.33-6.91c30.39.37,60.73,2.68,91.13,2.25a53,53,0,0,1,12.33,1.28c8-4.12,17-6.78,24.51-5.78,25.73,3.4,51.43,6.93,77.35,8.43a62.05,62.05,0,0,1,28.38,8.48C929.18,207.56,943,201.29,957.12,202Z"/><path class="cls-3" d="M42.13,38.13A38.58,38.58,0,0,1,56.72,48.57,42.33,42.33,0,0,1,65,65.1,38.54,38.54,0,0,1,50.36,54.65,42.26,42.26,0,0,1,42.13,38.13Z"/><path class="cls-3" d="M53.51,57.47a26.05,26.05,0,0,1,9.88,7.07A28.53,28.53,0,0,1,69,75.73a26.06,26.06,0,0,1-9.87-7.07A28.64,28.64,0,0,1,53.51,57.47Z"/><path class="cls-3" d="M60.22,67.17a9.43,9.43,0,0,1-6.12-.83,7.12,7.12,0,0,1-2.17-1.78,10.31,10.31,0,0,1-2.25-6.09,13.75,13.75,0,0,1,2.53-8.87,10.85,10.85,0,0,1,6.39-4.21,8,8,0,0,1,6.67,1,7.29,7.29,0,0,1,2,2.06c0,.07.08.15.13.23A12.1,12.1,0,0,1,69,54.26a14.06,14.06,0,0,1-2.7,9.4A9.35,9.35,0,0,1,60.22,67.17Z"/><path class="cls-9" d="M63.46,65.91a13.89,13.89,0,0,0,2.78-9.26,11.5,11.5,0,0,0-1.62-5.46c-.06-.07-.09-.16-.14-.23a6.52,6.52,0,0,0-1.92-2c-.12-.1-.24-.14-.35-.23a8,8,0,0,0-6.27-.61,11.09,11.09,0,0,0-6.41,4.19A13.39,13.39,0,0,0,46.93,61a11.49,11.49,0,0,0,1,4,8.6,8.6,0,0,0,.95,1.58l.3.39a7.35,7.35,0,0,0,2.12,1.73,10.49,10.49,0,0,0,12.21-2.77Z"/><path class="cls-10" d="M48.57,58.16a13.66,13.66,0,0,0,1.14,4.75,9.81,9.81,0,0,0,1.15,1.9l.36.47a8.72,8.72,0,0,0,2.55,2.09,11.25,11.25,0,0,0,6.7.93,10.11,10.11,0,0,1-3.15,1.07,9.58,9.58,0,0,1-6.1-.72,7.66,7.66,0,0,1-2.12-1.74l-.29-.39a8.64,8.64,0,0,1-1-1.58A11.2,11.2,0,0,1,46.91,61a13.33,13.33,0,0,1,2.29-8.21A16.24,16.24,0,0,0,48.57,58.16Z"/><path class="cls-11" d="M56.58,60.92c3.3,0,5.92.24,5.86.58s-2.78.63-6.08.65-5.92-.25-5.86-.58S53.28,60.94,56.58,60.92Z"/><path class="cls-11" d="M57.21,57.37c3.3,0,5.92.24,5.86.58s-2.78.63-6.08.65-5.91-.25-5.85-.59S53.92,57.39,57.21,57.37Z"/><path class="cls-11" d="M57.85,53.82c3.29,0,5.92.24,5.85.58s-2.78.63-6.07.64-5.92-.24-5.86-.58S54.55,53.83,57.85,53.82Z"/><path class="cls-11" d="M54.33,58c.62-3.5.87-6.33.55-6.32S53.8,54.51,53.17,58s-.87,6.32-.55,6.32S53.71,61.49,54.33,58Z"/><path class="cls-11" d="M57.68,58c.63-3.49.87-6.32.55-6.32S57.15,54.49,56.52,58s-.86,6.32-.54,6.31S57.06,61.47,57.68,58Z"/><path class="cls-11" d="M61,58c.62-3.49.86-6.32.54-6.32S60.5,54.48,59.88,58s-.87,6.32-.55,6.32S60.41,61.45,61,58Z"/><path class="cls-3" d="M1141.41,75.73A38.54,38.54,0,0,0,1156,65.28a42.2,42.2,0,0,0,8.24-16.52,38.53,38.53,0,0,0-14.6,10.45A42.26,42.26,0,0,0,1141.41,75.73Z"/><path class="cls-3" d="M1152.8,56.38a26,26,0,0,0,9.88-7.06,28.77,28.77,0,0,0,5.57-11.19,26.13,26.13,0,0,0-9.88,7.07A28.53,28.53,0,0,0,1152.8,56.38Z"/><path class="cls-3" d="M1159.5,46.69a9.5,9.5,0,0,0-6.12.82,7.27,7.27,0,0,0-2.17,1.78,10.4,10.4,0,0,0-2.25,6.1,13.83,13.83,0,0,0,2.53,8.87,10.91,10.91,0,0,0,6.39,4.21,7.91,7.91,0,0,0,6.67-1,7,7,0,0,0,2-2.05c0-.07.09-.16.13-.23a12.1,12.1,0,0,0,1.67-5.63,14.09,14.09,0,0,0-2.69-9.41A9.35,9.35,0,0,0,1159.5,46.69Z"/><path class="cls-9" d="M1162.75,48a14,14,0,0,1,2.78,9.26,11.62,11.62,0,0,1-1.63,5.46c-.05.07-.08.16-.13.23a6.67,6.67,0,0,1-1.93,2c-.11.09-.23.14-.35.23a8,8,0,0,1-6.27.61,11.15,11.15,0,0,1-6.41-4.19,13.43,13.43,0,0,1-2.59-8.71,11.25,11.25,0,0,1,.94-3.95,8.64,8.64,0,0,1,1-1.58l.3-.39a7.35,7.35,0,0,1,2.12-1.73,9.53,9.53,0,0,1,6.09-.73A9.71,9.71,0,0,1,1162.75,48Z"/><path class="cls-10" d="M1147.86,55.7A13.65,13.65,0,0,1,1149,51a10,10,0,0,1,1.15-1.9l.36-.47a8.85,8.85,0,0,1,2.55-2.09,11.28,11.28,0,0,1,6.71-.93,10.29,10.29,0,0,0-3.15-1.07,9.56,9.56,0,0,0-6.1.72,7.38,7.38,0,0,0-2.12,1.74l-.3.39a8.64,8.64,0,0,0-1,1.58,11.2,11.2,0,0,0-.94,3.95,13.4,13.4,0,0,0,2.29,8.21A16,16,0,0,1,1147.86,55.7Z"/><path class="cls-11" d="M1155.86,52.94c3.3,0,5.92-.25,5.86-.58s-2.78-.63-6.08-.65-5.91.24-5.85.58S1152.57,52.92,1155.86,52.94Z"/><path class="cls-11" d="M1156.5,56.49c3.29,0,5.91-.24,5.85-.58s-2.78-.63-6.07-.65-5.92.25-5.86.59S1153.2,56.47,1156.5,56.49Z"/><path class="cls-11" d="M1157.13,60c3.3,0,5.92-.24,5.86-.58s-2.78-.63-6.08-.64-5.92.24-5.85.58S1153.84,60,1157.13,60Z"/><path class="cls-11" d="M1153.62,55.86c.62,3.49.86,6.32.54,6.32s-1.08-2.83-1.7-6.32-.87-6.33-.55-6.32S1153,52.37,1153.62,55.86Z"/><path class="cls-11" d="M1157,55.88c.62,3.49.87,6.32.55,6.32s-1.09-2.83-1.71-6.33-.87-6.32-.55-6.32S1156.34,52.39,1157,55.88Z"/><path class="cls-11" d="M1160.32,55.9c.62,3.49.87,6.32.55,6.32s-1.09-2.84-1.71-6.33-.87-6.32-.55-6.32S1159.7,52.4,1160.32,55.9Z"/><rect class="cls-8" x="38" y="115.35" width="1134" height="181.78"/></svg>