<svg xmlns="http://www.w3.org/2000/svg" viewBox="0 0 501.07 467.63"><defs><style>.cls-1{isolation:isolate;}.cls-2{fill:#13629e;opacity:0.2;mix-blend-mode:multiply;}</style></defs><g class="cls-1"><g id="Laag_1" data-name="Laag 1"><path class="cls-2" d="M497.61,199.79a38.45,38.45,0,0,0-5-5.21c-.66-.57-1.42-1-2.12-1.57-1.24-1-2.45-1.93-3.79-2.78-1-.6-2-1.1-3-1.65-1.19-.65-2.35-1.34-3.6-1.93s-2.4-1-3.61-1.51c-1-.41-2-.88-3-1.25l.23.13c-10.28-3.82-21.46-6-30.9-7.67-4.07-.73-8.16-1.34-12.24-2l-.43-.14c-.93-.15-1.87-.24-2.8-.39-8.76-1.35-17.55-2.59-26.35-3.64-45.42-5.43-91.34-9-137-11.44-.4-.61-.78-1.2-1-1.68l-.61-1.13a6.24,6.24,0,0,0,1.5,1c1.58.69,3.23,1.41,4.78.11.08-.07-2.17-3.26-3.17-5.25a4.7,4.7,0,0,0,2.63-.5c.21-.1-3.25-5.72-4.7-8.33a16.56,16.56,0,0,0,2.82,2.16c.26.07-2.85-5.1-3.54-6.57a3.28,3.28,0,0,0,3.12.56c.23-.07-3.21-6.92-4.67-10a3.09,3.09,0,0,0,2.65.15c.24-.1-1.68-2.42-2.3-3.38a3,3,0,0,0,3.23.2c.21-.12-2.36-4.14-4.11-7.39a2.19,2.19,0,0,0,1.8-.88s0-.07,0-.08a19.25,19.25,0,0,1-5.23-7.14c1.26,2.24,3,2.92,4.4,2.22l0,0-.32-.38c-.86-1.06-3.72-5.64-4.37-6.86a2.39,2.39,0,0,0,1.28.58,14,14,0,0,1-1.36-2.65,17.55,17.55,0,0,1-1.18-2.49c-.41-1.07-1.08-3.19-1.34-3.69.86,1.7,1.81,3.35,2.91,3.34h0a20.19,20.19,0,0,1-1.7-2.86c-.17-.33-.31-.72-.47-1.07-.35-.76-.7-1.52-1-2.36-.22-.57-.41-1.19-.61-1.79s-.48-1.34-.7-2-.35-1.24-.53-1.86-.43-1.47-.62-2.21c-.71,2.45-1.55,4.74-2.36,7a30,30,0,0,1-3.42,7.23l.06,0s.1,0,.16,0l0,0a1.27,1.27,0,0,0,.38-.17,1.4,1.4,0,0,0,.33-.15,2.85,2.85,0,0,0,.46-.46c.09-.1.18-.17.27-.28a9.61,9.61,0,0,0,.55-.85l.13-.2c.22-.39.44-.8.65-1.22-.25.5-.92,2.62-1.33,3.69-.72,1.85-2.74,5.16-2.6,5.15h.06s0,0,0,0a2.39,2.39,0,0,0,1.26-.55c-1.39,2.6-4.86,7.19-4.67,7.28s.12,0,.17,0l0,0a3.15,3.15,0,0,0,.55.1,2.27,2.27,0,0,0,.52.09,3.14,3.14,0,0,0,.7-.18,3.1,3.1,0,0,0,.47-.14,4.25,4.25,0,0,0,.78-.61c.12-.11.24-.17.36-.29a6.88,6.88,0,0,0,1-1.5c-.07.19-.16.36-.22.52-.22.54-.44,1.09-.67,1.63a29.71,29.71,0,0,1-1.42,3,9,9,0,0,1-3.6,3.83s-.06.08,0,.09a2.31,2.31,0,0,0,1.77.43c-1.67,3-3.66,6.13-3.48,6.24h0a2.65,2.65,0,0,0,.81.19,2.81,2.81,0,0,0,.8.18,3.58,3.58,0,0,0,1.59-.58c-.62,1-2.54,3.28-2.3,3.38a3.11,3.11,0,0,0,2.66-.15l-.78,1.6c-1.64,3.35-4.09,8.29-3.89,8.35a3.26,3.26,0,0,0,3.11-.56c-.69,1.47-3.66,6-3.4,5.91a11.28,11.28,0,0,0,2.69-1.5c-1.46,2.61-4.92,8.23-4.71,8.33s.22,0,.34.08c0,0-.05,0-.07,0a5,5,0,0,0,1.3.26c.21,0,.42.12.63.12a5.1,5.1,0,0,0,2-.44l-.22.28c-.28.38-.65.8-1,1.24-.09.09-.17.19-.26.29-.38.41-.78.83-1.19,1.25l-.59.6-.7.71c-.41.41-.75.77-1,1.05l-.08.09h0c-.24.26-.39.47-.36.52s.14.07.21.14c-4.71-.11-9.41-.22-14.13-.17-6.1.06-12.12.45-18.15.87-3.78-.06-7.56.06-11,.14-8.9.18-17.71,1-26.58,1.38q-7.32.36-14.59.79l-1.42-7.61h0l-1.5-8.06c.32-.57.66-1.12,1-1.74,1.36,3.89,3,7.29,5.14,9.23.29.27.51-5.53.43-7.58,2.19,5.58,5.28,9.15,8.68,7.47.26-.14-1-6-1.63-8.24.61,1,1.23,1.93,1.86,2.84,3.44,2.48,7,3.59,10.46,3,.43-.07-5.59-7.77-7.83-11.88-.4-.72-.79-1.46-1.18-2.2a11.42,11.42,0,0,0,2.92,1.88c3.09,1.35,6.3,2.76,9.33.22.16-.13-4.24-6.36-6.19-10.26a9.16,9.16,0,0,0,5.14-1c.42-.19-6.35-11.17-9.18-16.25.94.89,4.5,3.88,5.52,4.2.5.15-5.58-10-6.92-12.81a6.43,6.43,0,0,0,6.09,1.09c.44-.14-6.27-13.51-9.13-19.43a6.08,6.08,0,0,0,5.19.29c.46-.19-3.28-4.73-4.49-6.59a5.8,5.8,0,0,0,6.31.38c.39-.23-4.62-8.09-8-14.43a4.33,4.33,0,0,0,3.52-1.71s.08-.14,0-.16a37.64,37.64,0,0,1-10.21-13.94c2.46,4.36,5.83,5.69,8.59,4.33a.14.14,0,0,0,0-.08c-.21-.23-.41-.48-.62-.74-1.68-2.06-7.27-11-8.54-13.4a4.63,4.63,0,0,0,2.49,1.14,27.87,27.87,0,0,1-2.65-5.18,33.42,33.42,0,0,1-2.31-4.86c-.8-2.09-2.1-6.22-2.6-7.21,1.67,3.33,3.52,6.55,5.67,6.53h0q-.89-1.22-1.71-2.61c-.14-.22-.26-.48-.39-.71-.41-.73-.83-1.46-1.22-2.24-.18-.36-.35-.76-.53-1.13-.32-.7-.66-1.38-1-2.11-.21-.49-.41-1-.62-1.53s-.53-1.28-.79-1.95-.46-1.28-.69-1.93-.42-1.14-.62-1.72c-.25-.75-.49-1.51-.73-2.26-.16-.51-.33-1-.49-1.54-.25-.79-.48-1.6-.72-2.4-.14-.5-.29-1-.43-1.48-.21-.74-.41-1.48-.61-2.22S142.6.63,142.44,0c-1.38,4.77-3,9.24-4.6,13.57-1.93,5.31-4.05,10.51-6.68,14.11a.15.15,0,0,0,.11,0c.11,0,.21-.09.32-.11a.61.61,0,0,1-.07.1,2.69,2.69,0,0,0,.76-.34,3,3,0,0,0,.64-.29,6.51,6.51,0,0,0,.91-.91c.17-.19.34-.32.51-.54A18.34,18.34,0,0,0,135.42,24c.08-.14.17-.25.25-.39.43-.76.86-1.57,1.27-2.39-.49,1-1.8,5.12-2.61,7.21C132.94,32,129,38.49,129.25,38.46h.13a0,0,0,0,1,0,0,4.74,4.74,0,0,0,2.47-1.13c-2.7,5.09-9.48,14-9.12,14.22.12.06.25,0,.37.08l-.11,0a4.88,4.88,0,0,0,1.09.2,4.76,4.76,0,0,0,1,.18,35.73,35.73,0,0,0,2.29-.63A8.21,8.21,0,0,0,129,50.15c.22-.2.44-.3.65-.52a13.63,13.63,0,0,0,2-2.93c-.15.36-.31.7-.44,1-.43,1.05-.85,2.12-1.29,3.17a57.73,57.73,0,0,1-2.79,5.86c-1.93,3.42-4.32,6.22-7,7.48,0,0-.1.15-.06.18a4.67,4.67,0,0,0,3.46.85c-3.26,5.8-7.13,12-6.78,12.17l0,0h0c.12.07.23.08.35.14a5.69,5.69,0,0,0,1.23.48c.09,0,.18,0,.27,0a5.17,5.17,0,0,0,1.3.08c.1,0,.2,0,.3-.07a7.17,7.17,0,0,0,2.81-1c-1.21,1.86-5,6.4-4.49,6.59a6.08,6.08,0,0,0,5.19-.29l-1.47,3c-3.21,6.53-8,16.29-7.66,16.41a6.44,6.44,0,0,0,6.09-1.09c-1,2.11-4.39,7.43-5.92,10-.31-.78-2.48-3.46-3.28-4.7a4.39,4.39,0,0,0,4.8.29c.3-.18-3.52-6.15-6.11-11A3.28,3.28,0,0,0,112.8,95s.06-.1,0-.13a28.5,28.5,0,0,1-7.77-10.6c1.87,3.32,4.44,4.33,6.54,3.29l0,0-.47-.57c-1.28-1.57-5.53-8.38-6.5-10.19a3.68,3.68,0,0,0,1.9.87,21.46,21.46,0,0,1-2-4A24.57,24.57,0,0,1,102.8,70c-.61-1.59-1.61-4.73-2-5.49,1.28,2.54,2.69,5,4.32,5h0a30.12,30.12,0,0,1-2.53-4.23c-.28-.57-.52-1.23-.79-1.83-.48-1.07-1-2.12-1.43-3.29-.32-.86-.6-1.79-.91-2.68s-.7-2-1-3-.59-2.07-.88-3.11-.58-2-.84-3c-1,3.63-2.3,7-3.5,10.32-1.47,4.05-3.08,8-5.09,10.74a.12.12,0,0,0,.09,0c.09,0,.16-.08.25-.09l-.06.08a2.3,2.3,0,0,0,.58-.26,2.64,2.64,0,0,0,.49-.22,5,5,0,0,0,.68-.69c.13-.15.27-.25.4-.42a12.69,12.69,0,0,0,.8-1.24c.07-.11.14-.2.21-.32.33-.57.65-1.19,1-1.82-.38.76-1.38,3.9-2,5.49-1.06,2.76-4.07,7.68-3.86,7.66h.09l0,0a3.59,3.59,0,0,0,1.88-.85c-2.06,3.87-7.21,10.68-6.94,10.81.08.05.18,0,.26.06a.15.15,0,0,1-.07,0,3.91,3.91,0,0,0,.83.15,4,4,0,0,0,.76.13,3.7,3.7,0,0,0,1-.27,3.9,3.9,0,0,0,.7-.2,6.67,6.67,0,0,0,1.2-.94c.16-.15.33-.22.49-.39a10.34,10.34,0,0,0,1.52-2.23c-.11.27-.24.53-.33.77-.33.8-.65,1.62-1,2.42a42.55,42.55,0,0,1-2.12,4.45c-1.47,2.6-3.29,4.74-5.35,5.7,0,0-.08.11,0,.13a3.51,3.51,0,0,0,2.63.65c-2.48,4.42-5.43,9.1-5.16,9.26l0,0h0a1.67,1.67,0,0,1,.2.08,5.16,5.16,0,0,0,1,.39h.17a4,4,0,0,0,1,.07l.22,0a5.58,5.58,0,0,0,2.14-.81c-.92,1.42-3.77,4.87-3.41,5a4.66,4.66,0,0,0,3.94-.22c-.31.64-.69,1.43-1.1,2.26-2.43,5-6.13,12.43-5.84,12.52a4.86,4.86,0,0,0,4.63-.83c-1,2.18-5.44,8.9-5.06,8.78a16.78,16.78,0,0,0,4-2.23c-2.16,3.87-7.31,12.22-7,12.37.15.07.3.1.44.16l0,0a7.58,7.58,0,0,0,.77.24c.18.06.37.13.56.18a8.36,8.36,0,0,0,1,.12c.18,0,.37,0,.55,0a7.5,7.5,0,0,0,1-.12,3.93,3.93,0,0,0,.48-.06,8.8,8.8,0,0,0,1.5-.5l-.32.43c-.42.55-1,1.19-1.55,1.84-.13.13-.25.27-.38.41-.57.62-1.16,1.25-1.76,1.86l-.9.91-1.17,1.19c-.55.56-1,1-1.36,1.43l-.11.12h0c-.36.4-.59.7-.54.77,2.35,3.13,6.49,1.05,9-.06l.26-.12c-1.69,2.95-6.14,8.73-5.81,8.79a5.82,5.82,0,0,0,.59,0l-.15.05a7.86,7.86,0,0,0,1.19,0,9,9,0,0,0,1,0,10.47,10.47,0,0,0,1.41-.37,8.34,8.34,0,0,0,1-.31,12.84,12.84,0,0,0,1.45-.78c.33-.19.66-.33,1-.55a19.26,19.26,0,0,0,2.38-1.92l-.1.19c-.08.17-3.06,4.19-2.73,4.3,1.3.39,5.23-2.47,6.61-3.5-.44.88-2.08,4.48-1.64,4.37a12,12,0,0,0,5.67-3.8,13.32,13.32,0,0,0-.78,3.38c1.62-.33,3.23-2.16,4.75-3.8L94.13,167l-.81.17c-5.84,1.22-11.63,2.54-17.47,3.73l-.27,0c-1.67.34-3.34.65-5,1l-1.74.33c-1.48.26-3,.48-4.46.71l-2.33.35c-1.36.18-2.75.33-4.13.48s-2.67.31-4,.41c-9.78.73-20.14,1.39-29.79,2.75a76.74,76.74,0,0,1-11.74,1c-2.05,0-4-.22-5.73.73-.92.5.54,1.92,1.06,2.25,4.93,3.09,13.9,3.5,20,4.7l.76.16c-1,0-2.07.12-3.1.23a131.36,131.36,0,0,1-13.85,1.2c-2.24,0-4.92.06-6.74,1.33-.77.53.76,1.95,1.29,2.14A60.94,60.94,0,0,0,16.23,193l-1.45.3h0c-1,.18-1.94.41-2.91.61-1.34.27-2.69.53-4,.84-2.55.61-5.06,1.29-7.49,2.13-.94.31.44,1.68.92,1.87,4.36,1.65,9.3,1,13.88,1.64,5.16.71,10.12,1.24,15.23,1.46l-1,.36c.14.32.35.64.5,1l-2.36.62c.38.66.79,1.3,1.17,2-1.11.85-1.84,1.75-1.79,2.68,0,.63.83,1.64,1.64,1.59A19.1,19.1,0,0,0,31,209.6c3.94,6.69,7.91,13.36,12,20,4.85,7.89,9.8,15.74,14.78,23.58l.62,1q12.25,19.26,24.76,38.44,3.61,5.58,7.22,11.17l-.09-.17c2.16,3.32,4.33,6.65,6.47,10,4.69,1.12,9.39,2.31,14.05,3.45l.78.18c8.34,17.7,16.81,35.37,25.62,52.95,2.65,3.22,5.34,6.5,7.91,9.78,9.47,12.12,18.56,24.47,27.75,36.75v0l1.77,2.37c1.44,1.92,2.88,3.78,4.32,5.69v0h0q3.51,4.62,7,9.17h0l.2,0c2.49.53,4.94.91,7.35,1.2.32,0,.66.12,1,.16a.15.15,0,0,1,0-.07c.68.08,1.37.15,2.05.21,10,11.66,20.74,23.15,35.08,32.18,23.85-3.05,44.29-13.2,63.7-23.07,4.68-5,9.71-9.73,14.83-14.3,10.61-9.47,21.39-18.88,32.41-28.08l.18-.16c0-.4,0-.81.06-1.21.81.61,1.59,1.24,2.41,1.84q7.92-2.67,15.61-4.59c1.69-2.23,3.42-4.42,5.17-6.55l.08-.1h0c4.55-5.57,8.43-10.63,11.85-15.5l0-.08q4.14-5.8,8-11.72v0l.77-1.14q4.63-7.12,9.26-14.27a.07.07,0,0,0,0,0q7.68-11.92,15.53-23.79c1.85-8,3.79-16.08,5.74-24.11h.59c4.68.06,9.39.08,14.19.12,3.13-6.13,6.37-12.22,9.61-18.31,1.6-3,3.18-6,4.79-9,8.22-15.3,16.56-30.56,24.65-45.88,1.71-3.23,3.34-6.48,5-9.72a31,31,0,0,0,5.3,1.88c.8.18.38-.8.21-1.06a13.55,13.55,0,0,0-3.94-3.85l.15-.29,1.05-2c1.65.39,3.31.76,4.93,1.24,5.21,1.54,8.89,4,13.45,6.5.76.41,1.33.14.94-.66-1.43-2.9-4.19-5.22-6.38-7.67-2.45-2.74-4.89-5.74-8-8-.65-.47-1.32-.91-2-1.36,4.29.23,8.45,1.33,12.71,1.67,1.92.15,4.31,1.23,6.14.81A.43.43,0,0,0,501,205C501.47,202.52,498.91,201.44,497.61,199.79Zm-389.5-35.32c-2.27.32-4.51.69-6.74,1.09l-.19,0-.15-.84h0l-1.15-6.13c.25-.44.51-.86.74-1.33,1,3,2.32,5.55,3.92,7,.21.2.38-4.21.32-5.77,1.17,3,2.68,5.16,4.36,5.78C108.85,164.39,108.48,164.42,108.11,164.47Zm10.22-37.79-.43.56c-.55.74-1.27,1.57-2,2.42l-.33.37-1.37-2.45h.19a8.09,8.09,0,0,0,1.38-.15c.2,0,.41,0,.62-.08A11,11,0,0,0,118.33,126.68Zm1.22,11.7.33-.16c-.3.54-.69,1.16-1.11,1.81l-.61-1Zm120.28,18.93.17-.08-.24.39-.6,0Zm-128.35,6.74a49.37,49.37,0,0,0-1.25-6.09c.46.74.93,1.47,1.41,2.16,2.62,1.89,5.32,2.73,8,2.25.33-.06-4.25-5.92-6-9l-.9-1.68a8.91,8.91,0,0,0,2.23,1.44c2.35,1,4.79,2.09,7.1.16.08-.07-1.37-2.18-2.78-4.46.54-.24,1.07-.59,1.61-.9s.86-.42,1.29-.72a25,25,0,0,0,3.12-2.52c0,.08-.09.16-.12.24-.12.23-4,5.52-3.6,5.65,1.71.53,6.88-3.24,8.69-4.6-.58,1.16-2.73,5.9-2.15,5.76a15.87,15.87,0,0,0,7.44-5c-.44,1.18-1.24,4.48-1,4.44,2.13-.43,4.25-2.84,6.25-5l-2.75,14.74h6.2C133.29,161.62,122.39,162.61,111.48,164.05Zm3-51.94c-.4.69-.63,1.15-.52,1.12a22.34,22.34,0,0,0,5.25-2.93c-1.22,2.18-3.15,5.44-4.94,8.47-1.24-2.55-2.54-5.18-3.39-6.94A4.72,4.72,0,0,0,114.51,112.11Z"/></g></g></svg>