<?xml version="1.0" encoding="utf-8"?>
<!-- Generator: Adobe Illustrator 24.2.3, SVG Export Plug-In . SVG Version: 6.00 Build 0)  -->
<svg version="1.1" id="Laag_1" xmlns="http://www.w3.org/2000/svg" xmlns:xlink="http://www.w3.org/1999/xlink" x="0px" y="0px"
	 viewBox="0 0 65.5 90.3" style="enable-background:new 0 0 65.5 90.3;" xml:space="preserve">
<style type="text/css">
	.st0{fill-rule:evenodd;clip-rule:evenodd;fill:#E2CAA2;}
	.st1{fill-rule:evenodd;clip-rule:evenodd;fill:#A67C52;}
	.st2{fill-rule:evenodd;clip-rule:evenodd;fill:url(#SVGID_1_);}
</style>
<g>
	<g>
		<polygon class="st0" points="0.9,9 0.5,88 28,88.1 31.3,79.4 34.4,88.2 63.9,88.3 63.9,78.8 60,77.1 64,75.4 63.8,44.6 52.9,40.9 
			63.8,37.2 63.9,23.8 56.9,21.4 63.8,18.9 63.9,9.2 		"/>
		<g>
			<polygon class="st1" points="52.9,40.9 56.7,42.2 65.5,39.1 65.5,25.8 63.9,23.8 63.8,37.2 			"/>
			<polygon class="st1" points="65.5,11.2 63.9,9.2 63.8,18.9 56.9,21.4 60.7,22.7 65.5,20.9 			"/>
			<polygon class="st1" points="60,77.1 63.1,78.4 65.5,77.4 65.5,46.4 63.8,44.6 64,75.4 			"/>
			<polygon class="st1" points="28,88.1 0.5,88 2.6,90.3 29.6,90.3 32.4,82.7 31.3,79.4 			"/>
			<polygon class="st1" points="34.4,88.2 35.9,90.3 65.5,90.3 65.5,80.7 63.9,78.8 63.9,88.3 			"/>
		</g>
	</g>
	<g>
		
			<linearGradient id="SVGID_1_" gradientUnits="userSpaceOnUse" x1="253.241" y1="82.0108" x2="254.3646" y2="49.6565" gradientTransform="matrix(-1 1.092761e-03 -1.092761e-03 -1 279.1837 91.7307)">
			<stop  offset="2.000000e-02" style="stop-color:#E6CDA1"/>
			<stop  offset="0.24" style="stop-color:#DAC196"/>
			<stop  offset="1" style="stop-color:#AD956F"/>
		</linearGradient>
		<polygon class="st2" points="0,0 50.3,0 50.2,66.3 0,90.3 		"/>
		<g>
			<polygon class="st1" points="50.2,67.7 2.6,90.3 0,90.3 50.2,66.3 			"/>
		</g>
	</g>
</g>
</svg>
