<?xml version="1.0" encoding="utf-8"?>
<!-- Generator: Adobe Illustrator 24.2.3, SVG Export Plug-In . SVG Version: 6.00 Build 0)  -->
<svg version="1.1" id="Laag_1" xmlns="http://www.w3.org/2000/svg" xmlns:xlink="http://www.w3.org/1999/xlink" x="0px" y="0px"
	 viewBox="0 0 1200 235.6" style="enable-background:new 0 0 1200 235.6;" xml:space="preserve">
<style type="text/css">
	.st0{fill:#77380E;}
	.st1{fill:#994E1C;}
	.st2{fill:#BF6B33;}
	.st3{fill:#51240D;}
	.st4{fill:#602E11;}
	.st5{fill:#86CF62;}
	.st6{fill:#3AB449;}
	.st7{fill:#F3DCB5;}
	.st8{fill:#6F6F7C;}
	.st9{fill:#A1A1A9;}
	.st10{fill:#555562;}
</style>
<polygon class="st0" points="1169.7,149.6 1197.3,165.9 1195.5,187.5 1031.5,195.2 976.7,235.6 965.9,222.9 982.8,196.5 4.7,200 
	4.7,177.9 56.8,171.6 0,159.7 1.1,58.1 1195.2,85.6 1200,127.9 "/>
<polygon class="st1" points="0,64 78,64 74,30 0,30 "/>
<path class="st2" d="M83,62H1l1-8c9.8,0.5,22-4.2,31.6-2.1L83,62z"/>
<polygon class="st3" points="965.9,222.9 965.9,196.6 982.8,196.5 "/>
<polygon class="st1" points="1198,86 1122.5,88 1126.4,41.2 1198.9,41.2 "/>
<path class="st2" d="M1117.6,42h80.2l-0.9,11c-9.6-0.7-21.6,5.7-30.9,2.9L1117.6,42z"/>
<polygon class="st0" points="1122.5,46.8 1192,46 1198,0 1122.5,0 "/>
<path class="st2" d="M1115.1,31.6L1194,32l2-18c-9.6,0.7-23.2,0.9-32.5,3.7L1115.1,31.6z"/>
<polygon class="st3" points="4.7,177.9 56.8,171.6 13.1,162.5 "/>
<polygon class="st3" points="1197.3,165.9 1169.7,149.6 1186.6,137.5 "/>
<polygon class="st0" points="225.2,64.3 1196.7,114.3 1195.2,85.6 "/>
<path class="st2" d="M55.8,110.6l-55.4,4.9l0.3-16.6c1.7,0.3,3.5,0.6,5.2,1L55.8,110.6z"/>
<path class="st0" d="M943.2,123.9H807.5l32.5,6.5c8.4,1.8,17,2.7,25.6,2.7h26.2c15.9-1.6,28.3-3.3,40.5-6.2L943.2,123.9z"/>
<path class="st4" d="M1133.5,162.1L848,166.6l68,5.7c17.9,1.5,35.8,2,53.7,1.7l55.1-1.1c33.5-2.3,59.7-4.4,85.4-7.8L1133.5,162.1z"
	/>
<path class="st4" d="M231.3,130.8l-191.9-4.9l45.7,10.7c11.8,2.8,23.9,4.3,36.1,4.5l37,0.7c22.5-1.9,40.1-3.9,57.4-7.6L231.3,130.8z
	"/>
<path class="st0" d="M299.8,155.9l-95,4.7l23.4,6.4c5.9,1.7,12.1,2.3,18.2,1.9l18.3-1.1c10.9-2.5,19.4-4.9,27.6-8.6L299.8,155.9z"/>
<path class="st4" d="M988.7,142.8l82.8-2.4l-20.3-6c-5.1-1.5-10.5-2.2-15.8-2l-16,0.7c-9.6,2-17,3.9-24.2,7L988.7,142.8z"/>
<path class="st4" d="M134.9,93.3l82.5,7.8L198,92.6c-4.9-2.2-10.1-3.5-15.4-4l-15.9-1.3c-9.7,0.8-17.4,1.8-24.9,3.9L134.9,93.3z"/>
<path class="st5" d="M224,159.1c20.7,1.1,37.3,17.6,38.3,38.3L224,159.1L224,159.1z"/>
<path class="st6" d="M262.3,197.4c-20.7-1.1-37.2-17.6-38.3-38.3L262.3,197.4z"/>
<path class="st6" d="M236,176.9c4.6,2.2,10.1,1.8,14.3-1C245.7,173.8,240.3,174.1,236,176.9z"/>
<path class="st6" d="M241.4,184.5c2.3,1.1,4.8,1.6,7.3,1.4c2.5-0.2,4.9-1,7-2.4C251.1,181.4,245.7,181.7,241.4,184.5L241.4,184.5z"
	/>
<path class="st6" d="M226.6,169.4c5.7,2.1,12.1,1.7,17.4-1.2c-2.8-1.1-5.8-1.5-8.9-1.3C232.1,167.1,229.2,168,226.6,169.4z"/>
<path class="st5" d="M234.2,160.5c-3.7,20.4-22.3,34.7-43,33.1L234.2,160.5L234.2,160.5z"/>
<path class="st6" d="M191.2,193.6c3.7-20.4,22.2-34.7,42.9-33.1L191.2,193.6z"/>
<path class="st6" d="M214.9,170.1c-2.8,4.3-3.1,9.7-0.9,14.3C216.8,180.2,217.1,174.7,214.9,170.1z"/>
<path class="st6" d="M206.7,174.6c-2.8,4.3-3.1,9.7-0.9,14.3C208.6,184.6,208.9,179.2,206.7,174.6z"/>
<path class="st6" d="M223.6,161.8c-2.8,5.4-3.2,11.7-1.1,17.4C225.3,173.8,225.7,167.5,223.6,161.8z"/>
<polygon class="st0" points="78,34 0,34 4,0 78,0 "/>
<path class="st2" d="M83.5,23H1.6l1.1-12.9c9.8,0.5,21.9,0.7,31.5,2.7L83.5,23z"/>
<g>
	<path class="st5" d="M1061.8,162.6c12.9,0.6,23.1,10.9,23.8,23.8L1061.8,162.6L1061.8,162.6z"/>
	<path class="st6" d="M1085.5,186.4c-12.9-0.6-23.1-10.9-23.8-23.8L1085.5,186.4z"/>
	<path class="st6" d="M1069.2,173.7c2.9,1.3,6.2,1.1,8.9-0.6C1075.2,171.7,1071.9,172,1069.2,173.7z"/>
	<path class="st6" d="M1072.6,178.4c1.4,0.7,3,1,4.5,0.8c1.6-0.1,3.1-0.6,4.4-1.5c-1.4-0.7-2.9-0.9-4.5-0.8
		C1075.4,177.1,1073.9,177.6,1072.6,178.4z"/>
	<path class="st6" d="M1063.4,169.1c3.5,1.3,7.5,1,10.8-0.8c-1.7-0.7-3.6-0.9-5.5-0.8C1066.8,167.6,1065,168.2,1063.4,169.1z"/>
	<path class="st5" d="M1060,155.6c8.1,10,7.4,24.5-1.7,33.6L1060,155.6L1060,155.6z"/>
	<path class="st6" d="M1058.3,189.1c-8.1-10-7.4-24.5,1.7-33.6L1058.3,189.1z"/>
	<path class="st6" d="M1056.8,168.5c0.9,3,3.4,5.4,6.4,6.2c-0.4-1.5-1.3-2.9-2.4-3.9C1059.7,169.7,1058.3,168.9,1056.8,168.5z"/>
	<path class="st6" d="M1055.6,174.2c0.4,1.5,1.3,2.9,2.4,3.9c1.1,1.1,2.5,1.9,4,2.2C1061,177.3,1058.6,175,1055.6,174.2
		L1055.6,174.2z"/>
	<path class="st6" d="M1056.3,161.1c0.7,1.7,1.7,3.3,3.1,4.6c1.3,1.3,2.9,2.3,4.7,2.9C1062.7,165.1,1059.9,162.3,1056.3,161.1
		L1056.3,161.1z"/>
</g>
<rect x="37" class="st7" width="1134" height="164"/>
<polygon class="st0" points="387.6,197.1 404.5,216.8 422.8,213.8 416.1,198.6 "/>
<polygon class="st3" points="422.8,213.8 422.7,198.5 416.1,198.6 "/>
<g>
	<path class="st3" d="M1119.8,124.7c6.1,0.2,12,1.8,17.3,4.7c5.4,3.2,10,7.5,13.5,12.6c-6.1-0.2-12-1.8-17.4-4.7
		C1127.9,134.1,1123.3,129.8,1119.8,124.7z"/>
	<path class="st3" d="M1137.2,138.8c4.1,0.1,8.1,1.2,11.7,3.2c3.6,2.1,6.8,5,9.2,8.5c-4.1-0.1-8.1-1.2-11.7-3.2
		C1142.7,145.2,1139.6,142.3,1137.2,138.8z"/>
	<path class="st3" d="M1146.9,145.6c-1.8,1.1-3.9,1.6-6,1.4c-0.9-0.1-1.8-0.4-2.7-0.9c-1.9-1.1-3.4-2.9-4.2-4.9
		c-1.3-2.9-1.6-6.1-0.7-9.2c0.7-2.5,2.3-4.7,4.5-6.2c1.9-1.4,4.3-1.9,6.6-1.4c0.9,0.2,1.8,0.7,2.6,1.2c0,0.1,0.1,0.1,0.2,0.2
		c1.5,1.3,2.7,2.9,3.4,4.7c1.4,3.1,1.7,6.5,0.8,9.8C1150.6,142.5,1149,144.4,1146.9,145.6z"/>
	<path class="st8" d="M1149.5,143.2c1-3.2,0.7-6.6-0.6-9.6c-0.7-1.8-1.9-3.3-3.4-4.6c-0.1,0-0.1-0.1-0.2-0.2c-0.7-0.6-1.6-1-2.5-1.2
		c-0.1-0.1-0.3,0-0.4-0.1c-2.2-0.3-4.4,0.3-6.1,1.6c-2.2,1.5-3.8,3.6-4.5,6.2c-0.9,3-0.6,6.2,0.6,9.1c0.6,1.3,1.4,2.4,2.3,3.4
		c0.4,0.4,0.9,0.8,1.4,1.1l0.4,0.3c0.8,0.5,1.7,0.8,2.6,0.9C1143.7,150.4,1147.9,147.6,1149.5,143.2L1149.5,143.2z"/>
	<path class="st9" d="M1132.8,141.2c0.7,1.5,1.6,2.9,2.7,4.1c0.5,0.5,1.1,1,1.7,1.4l0.5,0.3c1,0.6,2,0.9,3.1,1.1
		c2.3,0.2,4.6-0.3,6.6-1.5c-0.7,0.8-1.6,1.5-2.6,2.1c-1.8,1.1-3.9,1.6-6,1.5c-0.9-0.1-1.8-0.4-2.6-0.9l-0.4-0.3
		c-0.5-0.3-1-0.7-1.5-1.1c-0.9-1-1.7-2.1-2.2-3.4c-1.2-2.7-1.4-5.7-0.7-8.5C1131.7,137.7,1132.1,139.5,1132.8,141.2z"/>
	<path class="st10" d="M1141.3,141c3.1-1.2,5.6-1.8,5.7-1.5c0.1,0.3-2.4,1.6-5.5,2.7c-3.1,1.2-5.6,1.8-5.7,1.5
		C1135.8,143.4,1138.2,142.1,1141.3,141z"/>
	<path class="st10" d="M1140.6,137.4c3.1-1.2,5.6-1.8,5.7-1.5c0.1,0.3-2.4,1.6-5.5,2.7s-5.6,1.8-5.7,1.5S1137.6,138.6,1140.6,137.4z
		"/>
	<path class="st10" d="M1140,133.9c3.1-1.1,5.6-1.8,5.7-1.5c0.1,0.3-2.4,1.6-5.5,2.7c-3.1,1.2-5.6,1.8-5.7,1.5
		C1134.5,136.3,1136.9,135,1140,133.9z"/>
	<path class="st10" d="M1138.2,139c-0.6-3.5-1.4-6.2-1.7-6.1c-0.3,0.1,0,3,0.6,6.5c0.6,3.5,1.4,6.2,1.7,6.1
		C1139.1,145.4,1138.8,142.5,1138.2,139z"/>
	<path class="st10" d="M1141.3,137.9c-0.6-3.5-1.4-6.2-1.7-6.1c-0.3,0.1,0,3,0.6,6.5c0.6,3.5,1.4,6.2,1.7,6.1
		C1142.2,144.2,1141.9,141.3,1141.3,137.9z"/>
	<path class="st10" d="M1144.4,136.7c-0.6-3.5-1.4-6.2-1.7-6.1c-0.3,0.1,0,3,0.7,6.5c0.6,3.5,1.4,6.2,1.7,6.1
		C1145.3,143.1,1145.1,140.1,1144.4,136.7z"/>
</g>
<g>
	<path class="st3" d="M69.4,116.3c-0.1,6.1-1.6,12-4.4,17.4c-3.1,5.4-7.3,10.1-12.4,13.8c0.1-6.1,1.6-12.1,4.4-17.4
		C60.1,124.6,64.3,119.9,69.4,116.3z"/>
	<path class="st3" d="M55.5,134c0,4.1-1.1,8.1-3,11.8c-2.1,3.7-4.9,6.9-8.4,9.3c0-4.1,1.1-8.1,3-11.8
		C49.2,139.6,52.1,136.4,55.5,134z"/>
	<path class="st3" d="M49,143.8c-1.1-1.8-1.7-3.9-1.5-6c0.1-0.9,0.4-1.8,0.9-2.7c1.1-1.9,2.8-3.4,4.8-4.3c2.9-1.3,6.1-1.7,9.2-0.9
		c2.6,0.7,4.8,2.2,6.3,4.4c1.4,1.9,2,4.3,1.5,6.6c-0.2,0.9-0.6,1.8-1.2,2.6c-0.1,0-0.1,0.1-0.2,0.2c-1.2,1.5-2.8,2.7-4.6,3.5
		c-3,1.5-6.5,1.8-9.7,0.9C52.1,147.4,50.2,145.9,49,143.8z"/>
	<path class="st8" d="M51.3,146.3c3.2,0.9,6.6,0.6,9.6-0.8c1.8-0.8,3.3-2,4.5-3.5c0-0.1,0.1-0.1,0.2-0.2c0.6-0.7,1-1.6,1.2-2.5
		c0-0.1,0-0.3,0.1-0.4c0.3-2.2-0.3-4.4-1.7-6.1c-1.5-2.2-3.7-3.7-6.2-4.4c-3-0.8-6.2-0.5-9,0.8c-1.3,0.6-2.4,1.4-3.4,2.4
		c-0.4,0.4-0.8,0.9-1.1,1.5l-0.3,0.4c-0.4,0.8-0.7,1.7-0.8,2.6C44.1,140.6,46.9,144.8,51.3,146.3L51.3,146.3z"/>
	<path class="st9" d="M53.1,129.6c-1.5,0.7-2.8,1.6-4,2.8c-0.5,0.5-1,1.1-1.3,1.8l-0.3,0.5c-0.5,1-0.9,2-1,3.1
		c-0.2,2.3,0.4,4.6,1.6,6.6c-0.9-0.7-1.6-1.6-2.1-2.5c-1.2-1.8-1.7-3.8-1.6-5.9c0.1-0.9,0.4-1.8,0.8-2.6l0.3-0.4
		c0.3-0.5,0.7-1,1.1-1.5c1-1,2.1-1.7,3.3-2.3c2.7-1.2,5.6-1.5,8.5-0.9C56.5,128.4,54.7,128.9,53.1,129.6z"/>
	<path class="st10" d="M53.5,138.1c1.2,3.1,1.9,5.6,1.6,5.7c-0.3,0.1-1.6-2.4-2.8-5.4s-1.9-5.6-1.6-5.7S52.2,135,53.5,138.1z"/>
	<path class="st10" d="M57,137.4c1.2,3.1,1.9,5.6,1.6,5.7s-1.6-2.4-2.8-5.4c-1.2-3.1-1.9-5.6-1.6-5.7
		C54.5,131.9,55.8,134.3,57,137.4z"/>
	<path class="st10" d="M60.5,136.7c1.2,3.1,1.9,5.6,1.6,5.7c-0.3,0.1-1.6-2.4-2.8-5.4c-1.2-3.1-1.9-5.6-1.6-5.7
		C58,131.2,59.3,133.6,60.5,136.7z"/>
	<path class="st10" d="M55.3,134.9c3.5-0.7,6.2-1.5,6.1-1.8s-3,0-6.5,0.7s-6.2,1.5-6.1,1.8C49,135.9,51.9,135.6,55.3,134.9z"/>
	<path class="st10" d="M56.6,138c3.5-0.7,6.2-1.5,6.1-1.8c-0.1-0.3-3,0-6.5,0.7c-3.5,0.7-6.2,1.5-6.1,1.8S53.1,138.7,56.6,138z"/>
	<path class="st10" d="M57.8,141.1c3.5-0.7,6.2-1.5,6.1-1.8c-0.1-0.3-3,0.1-6.5,0.8c-3.5,0.7-6.2,1.5-6.1,1.8S54.4,141.8,57.8,141.1
		z"/>
</g>
</svg>
