<svg xmlns="http://www.w3.org/2000/svg" xmlns:xlink="http://www.w3.org/1999/xlink" viewBox="0 0 395.35 144.75"><defs><style>.cls-1{isolation:isolate;}.cls-2{fill:url(#radial-gradient);}.cls-3{fill:#2e953e;}.cls-4{opacity:0.5;mix-blend-mode:multiply;}.cls-5{fill:#7bbb42;opacity:0.6;mix-blend-mode:screen;}</style><radialGradient id="radial-gradient" cx="197.67" cy="95.97" r="80.16" gradientTransform="translate(485.59 -101.7) rotate(90) scale(1 3)" gradientUnits="userSpaceOnUse"><stop offset="0" stop-color="#013700"/><stop offset="0.56" stop-color="#7bbd40"/></radialGradient></defs><g class="cls-1"><g id="Layer_1" data-name="Layer 1"><ellipse class="cls-2" cx="197.67" cy="95.97" rx="197.67" ry="48.78"/><path class="cls-3" d="M329,78.87c2.47-.43,4.29-1.22,2.44-2.74-1.51-1.23-6.29-1.48-8.46-1.46-.45,0-.89,0-1.32,0,1.08-.39,2.15-.77,3.28-1.12,2.6-.82,6.19-4.24,1-4.52a6,6,0,0,0-1.26.06c1.29-2,1.74-4.32.21-5.72s-3.3-.9-4.86.19a1.31,1.31,0,0,0-1.07-1.3,11.09,11.09,0,0,0-4.74-.16,6.18,6.18,0,0,0-1.08.29c.16,0,.36-.14.7-.28.68-.27,1.39-.54,2-.85,5.52-2.73-1.23-3-6.74-2.69,3.5-.9,6.57-2.21,7.17-4.57.73-2.89-6.95-1.41-8.85-.84-.95.28-3.12,1.94-1.91,1a11.36,11.36,0,0,0,1.8-1.71c.84-1,1.87-2.21.75-3.29-1.89-1.82-7.3,0-11,1.68,1.06-1.36,2-3,1.46-4.07,4.86-3.06,0-4.13-5-3.86C299,41,306.63,38,303.21,37.07a12.5,12.5,0,0,0-4.08-.29,15.82,15.82,0,0,0,3.76-2.6c1.89-1.91-1-3.56-4.35-3.34a29.55,29.55,0,0,0-7.26,1.32l-1.57.52,1.21-.81c2.47-1.68,7.8-5.3,4.82-7.68a.89.89,0,0,0-.49-.08A9.8,9.8,0,0,0,291,25.63c1.44-2.67,3.15-6.91.28-7.68-1.72-.48-4.45.61-7,1.88A4.33,4.33,0,0,0,282,19a43.84,43.84,0,0,0-14,.22c2.35-1.31,4-3,3.83-4.82-.22-2.49-7.66-.53-11.09.46,1.11-2.6,4.45-7.93-3.12-6.24a14.78,14.78,0,0,0-3.87,1.53c-1.26-1.71-3.94-2.82-8.34-2.39-2.9.29-5.14,2-6.69,3.3a11.28,11.28,0,0,0-1.83,2.06A13.91,13.91,0,0,0,230.44.52c-2.51-1.73-3.64,1.2-4.15,3.8A3.86,3.86,0,0,0,222.71,2c-4.85,0-8,2.73-10.73,4.68-3.36,2.37-1,0-.55-1.13.18-.39,1.08-2-.22-2.39-3.58-1-6.76,1.34-9.66,2.64.71-2.47,4.26-7.39-2.68-5.09a21.28,21.28,0,0,0-6.71,3.84,5.07,5.07,0,0,0-2.35-3.9,1.63,1.63,0,0,0-1-.16c-4.69.68-7.93,4.61-9,8.19a10.35,10.35,0,0,0-2.34-1.28,1.41,1.41,0,0,0-1.34.41c-1,1.11-.63,2.5-.08,3.85a2.32,2.32,0,0,0-2.4-.34c-1.74,1-1.33,2.64-.89,4.14-3-1.85-6.77-2.87-11.18-3.62-1.86-.32-7.48-1.7-9.43-.73-3.22,1.6,2.95,5.95,7.28,8.19a33.11,33.11,0,0,0-4.9-.23,37.41,37.41,0,0,0-4.13-3.6c-.5-.39-1.53.13-1.73.4a5.64,5.64,0,0,0-.69,4.79c-2.08-1.62-4.62-2.78-7.25-2.1-2.05.52-1.27,2.62,0,4.61a15,15,0,0,0-5.62-2c-2.16-.31-6.44-.84-8,.5-2.22,1.89.69,4.14,2.93,5.6.91.6,2,1.22,3.09,1.85a3.88,3.88,0,0,0-1.45.45c-.78.46-.77,1-.31,1.67-.59-.18-1.15-.37-1.77-.53-2.55-.67-6-1.83-8.85-1.74-.26,0-.52.17-.55.32-.3,1.32,1.21,2.75,2.52,4.05-2.8.23-6.24.89-6.65,2.32-.25.86.64,1.67,2,2.39a2.29,2.29,0,0,0-1.76,1.37,1.82,1.82,0,0,0,0,.93,24.41,24.41,0,0,0-5.51-2.77c-2.08-.74-6.46-1.38-8.11.09-3,2.65-.11,6.68,2.28,9.91-3.59-1.92-7.09-3.86-12.67-3.47-4.1.28.44,4.53,2.58,6.58-3.11-.94-7-2.48-9.37-.44-2.15,1.82,1.66,4.42,4.63,6.34l0,0c-6.52-1.9-18.77-4.33-20-.16-.22.76,1.22,1.5,2,2,1.19.69,2.34,1.42,3.49,2.15a2.51,2.51,0,0,0-1.17.31C73,61.73,73,63.2,73.4,64.48c-.09.09-.14.2-.05.31s.18.16.25.24.17.39.26.57a12.14,12.14,0,0,0,2.53,3.28l-.15,0c-1.45-1.35-2.74-2.75-3.95-3.92-.84-.8-3.44-3.67-5.66-3.18s-1.07,2.54-.54,3.5a11.45,11.45,0,0,0,2.81,3.08c-4.71-.09-10,.31-7.37,2.86,1.45,1.4,4.8,2.48,7.26,3.18s5.44,1.66,8.43,2.37L75.63,77c-2.76.4-9.65,1.53-11.41,3.06-3,2.57,5.24,2.22,11.94,1.62-4.19,1.56-7.76,3.47-9.27,5.85-1.26,2,4.47,1.18,9.83.07-.41.19-.84.36-1.21.58a30.55,30.55,0,0,0-7.91,6.15c-4.37,4.83,5.21,3,9.43,1.9,1.44-.37,2.87-.75,4.29-1.16-.78.39-1.5.8-2.22,1.24-2.46,1.43-4.83,3.58-5.45,5.6a5.54,5.54,0,0,0,.5,4.69c-3.29,1.76-7.69,4.15-7.56,6.53,0,.23.39.46.8.47A53.89,53.89,0,0,0,79,111.87c2-.49,4-1,5.87-1.53-3.23,1.56-6.22,3.27-6.57,5.25,0,.22.07.36.38.49,2.5,1,8.15-1.17,11.68-2.63a7.21,7.21,0,0,0-.86,6.07,4.52,4.52,0,0,0,4.33,2.86c3.33-.28,5.21-3.63,6.35-6.48.69,4.57,3,11.39,7.93,8.34a7.15,7.15,0,0,0,3-4.93c1.4,2.25,3.5,3.93,6.48,2.81s4.17-3.9,5-5.81c.08-.19.12-.38.21-.58a31.88,31.88,0,0,0,7.58-.38c-2,.8-3.89,1.64-5.72,2.56-.33.16-.53.49-.2.7a3.71,3.71,0,0,0,2.7.33,42.81,42.81,0,0,0,4.2-1c1.89-.49-.8,1.41-1.19,2.09a14,14,0,0,0-1.9,8.23c.15,1.44,2.44,2.52,4.5,1.14A46.2,46.2,0,0,0,143,119.66c-.46,3-.18,6.81,5.84,5.48,3.2-.72,4.12-3.47,5-5.09a7,7,0,0,0,.58-4.78,17.31,17.31,0,0,0,7.47,3.74c1.94.48,4-.67,4.23-1.68.71-2.77-.72-5.54-2.26-8.17-.14-.25-.3-.54-.47-.82.48-1.68-.48-3.69-1.23-5.59,2.31,2.68,5.82,6.32,10,5.39a2.94,2.94,0,0,0,2.4-2.13,7.3,7.3,0,0,0,.41-2.15c1.12,1.86,2.69,3,4.77,1.17s3.11-4,4.54-6c-1.13,1.59-.74,3.54-1.4,5.2a6.39,6.39,0,0,0-.37,3.58c0,.13.24.21.45.19,5.61-.62,10.63-3.52,14.23-5.91-.54.38-1.08.75-1.58,1.15-1.05.8-1.86,1.38-1.92,2.4-.13,2.15,8.58-1.15,8.82-1.24a18.36,18.36,0,0,0,7.12-4.93,9.32,9.32,0,0,0,0,3c.13.78,1.41,3.7,3.22,3.76,1.21,0,2.55,0,3-.8a23.53,23.53,0,0,1,3.3-4.18c-.17,2.28.14,5.08,2.66,5.37-1.23,1.07-2.44,2.27-2.7,3.3-.07.29.3.56.85.5a45.7,45.7,0,0,0,9-2.33c-4,2.21-8.66,5.31-6,7,1.58,1,4,.78,5.92.06a7.63,7.63,0,0,0,.21,1c.38,1.42,2.47,6.4,5.3,6.88,2.55.43,3.47-1.4,3.77-3.47a42.68,42.68,0,0,0,2.17,4.51c.48.84,1.8,3.76,4.12,3.57,2.87-.24,3.08-3.35,3.55-4.5a8.55,8.55,0,0,0,.62-2.51,13.77,13.77,0,0,0,3.4,3.82c1.58,1.22,5.66,5.38,9.31,4.56,3.42-.76,3.8-4.55,4.32-6.22.09-.3.12-.58.19-.87.5.43,1,.87,1.48,1.32a1.67,1.67,0,0,0,1.61.13c1.82-.56,1.71-1.28,1.62-2.42a15.25,15.25,0,0,0-.91-4.13,26.59,26.59,0,0,0,7,4.12c1.93.75,5.74,1.62,7.94.8,2.7-1-.3-3.91-3.67-6.37,6.36,2.59,14.06,4.89,20.51,2.53,4.34-1.59-4.63-6.27-10.55-9.16,3.52.83,7,1.72,10.71,2.27,2.51.38,5.94,1,8-.17,2.47-1.43-1.69-3.55-5-5.06,2.68.56,5.74.92,6.57-.24s-.6-2.51-3-3.68c7.91.13,16-1,18.95-4.78,2.54-3.17.21-5.21-3.88-6.38,1.84-.18,3.93-.58,4.23-1.64s-.58-1.74-2.11-2.25c2-.93,2.18-2-.63-2.41,1.31-.19,2.64-.46,3.89-.65a11.25,11.25,0,0,0,5.16-2C336.15,80,332.55,79.2,329,78.87Z"/><g class="cls-4"><path class="cls-3" d="M333.71,81.77c2.44-1.8-1.16-2.57-4.76-2.9,2.47-.43,4.29-1.22,2.44-2.74-1.51-1.23-6.29-1.48-8.46-1.46-.45,0-.89,0-1.32,0,1.08-.39,2.15-.77,3.28-1.12,2.6-.82,6.19-4.24,1-4.52a6,6,0,0,0-1.26.06c1.29-2,1.74-4.32.21-5.72s-3.3-.9-4.86.19a1.31,1.31,0,0,0-1.07-1.3,11.09,11.09,0,0,0-4.74-.16,6.18,6.18,0,0,0-1.08.29c.16,0,.36-.14.7-.28.68-.27,1.39-.54,2-.85,5.52-2.73-1.23-3-6.74-2.69,3.5-.9,6.57-2.21,7.17-4.57s-4.05-1.84-7-1.28a9.48,9.48,0,0,1-.74,1.38c-2,3-5.84,4.58-10.12,5.58a2.25,2.25,0,0,1,1.21,1.38c.27,1.07-.39,1.88-1.52,2.5,4.37.26,7.89,1.34,6.73,4.43A4.75,4.75,0,0,1,303,70.2a28.83,28.83,0,0,1,5.24,2c3.73,1.9,7.15,5.18,4.37,8.68-2.32,2.9-7.31,2.24-11.27,1.3,2.94,2.73,6.23,6.49.85,8.27a14.25,14.25,0,0,1-5.1.51,9.79,9.79,0,0,1,2.09,2.26.63.63,0,0,1-.22.87,14.59,14.59,0,0,1-7.28,1.44c1.55,1.81,2.45,3.75,2.19,5.75-.42,3.16-5.82,5.08-9.33,5.13-5.5.09-10.07-2-14.44-4.41,2.34,2.77,4.67,6.28,1.12,7.19-3.85,1-7.69-1-10.71-3.65,1.38,3.4,2,6.93-.33,9.44a1.13,1.13,0,0,1-1.29.19,16.72,16.72,0,0,1-7-6.14c-.92,3-2.53,7.73-6.33,8.43-8.72,1.58-7.76-7.62-6.5-13.79-2,2.61-4.64,5.14-7.09,3.75-2.86-1.62-2.92-4.68-2-7.79-1.86,1.8-4,3-6.27,2.31-3.46-1.06-3.91-4.65-3.69-8-3.77,3.1-8.59,5.71-12.88,4.62a.67.67,0,0,1-.44-1.09c.3-.43.64-.84,1-1.26-4.08,2-8.6,3.41-12.83,2.44a.7.7,0,0,1-.56-.92,15.76,15.76,0,0,1,2.73-4.4,26.66,26.66,0,0,1-3.66.74c-3.84.49-5.87-.78-6.8-2.78C185.21,93,183.4,94,181,93a8.9,8.9,0,0,1-4.66-4.28,3.49,3.49,0,0,1-1.44,1.53,5.54,5.54,0,0,1-3.24.64,8.34,8.34,0,0,1-1.93,5.6A12,12,0,0,1,154.54,99c.22,2.28-.55,4.52-3.21,5.37a4.9,4.9,0,0,1-5.46-1.67,6.85,6.85,0,0,1-4.39,5.24c-5.32,2.09-9.74-.37-12.29-3.83-.3,1.81-1.32,3.25-3.94,2.74a3.68,3.68,0,0,1-2.44-2,14.59,14.59,0,0,1-8.33,7c-4.15,1.24-9-.8-10.31-4a10.56,10.56,0,0,1-.35-7c-1.21,1.35-2.43,2.71-3.77,4s-4.32,4.67-7,4.31c-3.82-.51-3.31-3.4-1.75-6.19-4,3.09-9.1,6.21-12.42,4.21s.6-6.38,2.1-8.17a51.34,51.34,0,0,1,4.78-4.89c-2.68.7-5.26.66-7.12-1.11-3-2.87,2.36-6.61,6.36-9.26-2.12.41-4.06.35-3.58-1.55.85-3.38,6-5.29,10.38-6.93-4.46.39-9.37.74-12.37-1.78-3.46-2.92.77-5.6,4.67-6.59-2.59-1-5.49-2.67-4.33-4.67A4.9,4.9,0,0,1,83.74,60c-2.93-1-5.56-2.48-6.24-4.49a3.44,3.44,0,0,1-.2-1.3c-3.63-.19-6.56.32-7.1,2.25-.22.76,1.22,1.5,2,2,1.19.69,2.34,1.42,3.49,2.15a2.51,2.51,0,0,0-1.17.31C73,61.73,73,63.2,73.4,64.48c-.09.09-.14.2-.05.31s.18.16.25.24.17.39.26.57a12.14,12.14,0,0,0,2.53,3.28l-.15,0c-1.45-1.35-2.74-2.75-3.95-3.92-.84-.8-3.44-3.67-5.66-3.18s-1.07,2.54-.54,3.5a11.45,11.45,0,0,0,2.81,3.08c-4.71-.09-10,.31-7.37,2.86,1.45,1.4,4.8,2.48,7.26,3.18s5.44,1.66,8.43,2.37L75.63,77c-2.76.4-9.65,1.53-11.41,3.06-3,2.57,5.24,2.22,11.94,1.62-4.19,1.56-7.76,3.47-9.27,5.85-1.26,2,4.47,1.18,9.83.07-.41.19-.84.36-1.21.58a30.55,30.55,0,0,0-7.91,6.15c-4.37,4.83,5.21,3,9.43,1.9,1.44-.37,2.87-.75,4.29-1.16-.78.39-1.5.8-2.22,1.24-2.46,1.43-4.83,3.58-5.45,5.6a5.54,5.54,0,0,0,.5,4.69c-3.29,1.76-7.69,4.15-7.56,6.53,0,.23.39.46.8.47A53.89,53.89,0,0,0,79,111.87c2-.49,4-1,5.87-1.53-3.23,1.56-6.22,3.27-6.57,5.25,0,.22.07.36.38.49,2.5,1,8.15-1.17,11.68-2.63a7.21,7.21,0,0,0-.86,6.07,4.52,4.52,0,0,0,4.33,2.86c3.33-.28,5.21-3.63,6.35-6.48.69,4.57,3,11.39,7.93,8.34a7.15,7.15,0,0,0,3-4.93c1.4,2.25,3.5,3.93,6.48,2.81s4.17-3.9,5-5.81c.08-.19.12-.38.21-.58a31.88,31.88,0,0,0,7.58-.38c-2,.8-3.89,1.64-5.72,2.56-.33.16-.53.49-.2.7a3.71,3.71,0,0,0,2.7.33,42.81,42.81,0,0,0,4.2-1c1.89-.49-.8,1.41-1.19,2.09a14,14,0,0,0-1.9,8.23c.15,1.44,2.44,2.52,4.5,1.14A46.2,46.2,0,0,0,143,119.66c-.46,3-.18,6.81,5.84,5.48,3.2-.72,4.12-3.47,5-5.09a7,7,0,0,0,.58-4.78,17.31,17.31,0,0,0,7.47,3.74c1.94.48,4-.67,4.23-1.68.71-2.77-.72-5.54-2.26-8.17-.14-.25-.3-.54-.47-.82.48-1.68-.48-3.69-1.23-5.59,2.31,2.68,5.82,6.32,10,5.39a2.94,2.94,0,0,0,2.4-2.13,7.3,7.3,0,0,0,.41-2.15c1.12,1.86,2.69,3,4.77,1.17s3.11-4,4.54-6c-1.13,1.59-.74,3.54-1.4,5.2a6.39,6.39,0,0,0-.37,3.58c0,.13.24.21.45.19,5.61-.62,10.63-3.52,14.23-5.91-.54.38-1.08.75-1.58,1.15-1.05.8-1.86,1.38-1.92,2.4-.13,2.15,8.58-1.15,8.82-1.24a18.36,18.36,0,0,0,7.12-4.93,9.32,9.32,0,0,0,0,3c.13.78,1.41,3.7,3.22,3.76,1.21,0,2.55,0,3-.8a23.53,23.53,0,0,1,3.3-4.18c-.17,2.28.14,5.08,2.66,5.37-1.23,1.07-2.44,2.27-2.7,3.3-.07.29.3.56.85.5a45.7,45.7,0,0,0,9-2.33c-4,2.21-8.66,5.31-6,7,1.58,1,4,.78,5.92.06a7.63,7.63,0,0,0,.21,1c.38,1.42,2.47,6.4,5.3,6.88,2.55.43,3.47-1.4,3.77-3.47a42.68,42.68,0,0,0,2.17,4.51c.48.84,1.8,3.76,4.12,3.57,2.87-.24,3.08-3.35,3.55-4.5a8.55,8.55,0,0,0,.62-2.51,13.77,13.77,0,0,0,3.4,3.82c1.58,1.22,5.66,5.38,9.31,4.56,3.42-.76,3.8-4.55,4.32-6.22.09-.3.12-.58.19-.87.5.43,1,.87,1.48,1.32a1.67,1.67,0,0,0,1.61.13c1.82-.56,1.71-1.28,1.62-2.42a15.25,15.25,0,0,0-.91-4.13,26.59,26.59,0,0,0,7,4.12c1.93.75,5.74,1.62,7.94.8,2.7-1-.3-3.91-3.67-6.37,6.36,2.59,14.06,4.89,20.51,2.53,4.34-1.59-4.63-6.27-10.55-9.16,3.52.83,7,1.72,10.71,2.27,2.51.38,5.94,1,8-.17,2.47-1.43-1.69-3.55-5-5.06,2.68.56,5.74.92,6.57-.24s-.6-2.51-3-3.68c7.91.13,16-1,18.95-4.78,2.54-3.17.21-5.21-3.88-6.38,1.84-.18,3.93-.58,4.23-1.64s-.58-1.74-2.11-2.25c2-.93,2.18-2-.63-2.41,1.31-.19,2.64-.46,3.89-.65A11.25,11.25,0,0,0,333.71,81.77Z"/></g><path class="cls-5" d="M286.82,83.66a21.64,21.64,0,0,0-2.85.55c1.08-.95,1.62-2,.83-2.75-1.34-1.31-5.81.58-7.13,1.18a23.9,23.9,0,0,0-2.16,1.06,8.47,8.47,0,0,0,2-2.52c1.5-3.35-2.46-2.36-4.9-1.35a15.65,15.65,0,0,0-6.72,5.62,24.44,24.44,0,0,0-4.8.49,10.35,10.35,0,0,0,4.09-2.74c.59-.69-.39-1.45-1-1.85-1.18-.84-3.84-.45-5.29-.38-3.88.2-8.2.63-11.5,2.42a18.89,18.89,0,0,0-2.24,1.38,5.84,5.84,0,0,0-.72-2.79c-.93-1.24-3.15-.68-4.23.13a11.36,11.36,0,0,0-3.19,4c.55-2.83,1-7.2-1.14-7.19a4.29,4.29,0,0,0-3.69,2.65,20.69,20.69,0,0,0-.18-3.13c-.19-1.19-.4-5.2-3-4.72a3.37,3.37,0,0,0-2.56,2.11,4.4,4.4,0,0,0-2.76-1.33c-2.79-.46-6.24,1.74-8.08,3.13-.29.23-.77,1.21-.44.44s.66-1.49,1-2.24.75-2.64-.19-3.23c-1.25-.79-2.59,1-3.1,1.68a3.57,3.57,0,0,0-.6,1.07c0,.11-.07.22-.12.33a16.44,16.44,0,0,0-.26-2.54c-.22-1-1.55-2.23-2.55-1a4.83,4.83,0,0,0-1,2.76,29.69,29.69,0,0,0-3.86-5.69c-.59-.71-2.22-3.39-3.73-2s-.06,3.24.81,4.54A25.72,25.72,0,0,0,204.24,75c.19.22.61.71,1.08,1.21a15.31,15.31,0,0,0-2.21-1.36c-1.58-.79-4.84-2.07-6.76-1.33-4,1.5.78,4.61,3.9,6.38a1.68,1.68,0,0,0-1.47.35c-.75.72-.12,1.55.81,2.21-2.5-.4-5-.36-7.09,1.16-1.13.81-3.3,2.82-.83,3.55,4.16,1.24,9.35-.87,13.14-2.12A43,43,0,0,0,209,83.37a5.63,5.63,0,0,0-1,2.68c-.12,1.67,1.8,3,3.81,1.85a11.39,11.39,0,0,0,2.66-2c1-1.08.79-.85.64.12A10.18,10.18,0,0,0,215,88c.08,1.81,2.4,2.86,4.22,1.51a5,5,0,0,0,.87-.92c.85-1,.27,1.07.28.94a17.55,17.55,0,0,0,.26,4.4c.27,1.13,1.64,3.47,3.57,2.39s2-3.82,2-5.57a18.2,18.2,0,0,0-.38-3.66,13.83,13.83,0,0,0,4.77,3.38c1.17.5,1.8.34,2.1-.09h0a27.85,27.85,0,0,0,3,4.94A15,15,0,0,0,239,98.53c.89.64,3,2,4.44,1.66,2.3-.6,2-2.51,1.42-4a21.14,21.14,0,0,0-2.42-4.44,1.58,1.58,0,0,0-.15-.24c1.16.85,2.32,1.68,3.55,2.46,2.08,1.32,5.07,2.85,7.89,2.33a1.94,1.94,0,0,0,1.62-2.34c0-.2-.08-.39-.13-.59a21.71,21.71,0,0,0,3.18,1.53,48.29,48.29,0,0,0,6,2.83,21.23,21.23,0,0,0,12.33.16c1.66-.49,4.95-1.7,4.9-3.45,0-1.43-1.6-2.4-3.44-2.87a53.25,53.25,0,0,0,5.33-1.67c2.26-.79,5-2,6.2-3.78S289.17,83.37,286.82,83.66Z"/><path class="cls-5" d="M261.45,44.31a5.6,5.6,0,0,0-.85-.41c2.73-1.37,7-4.25,6-7.08-2.46-7.06-16.46-3.6-24.8-1,4.29-3,9.06-7.3,4.55-8.47-2.45-.62-5.53.39-8,2,1.91-5.92,1.87-13.85-5.21-11.78-3.91,1.14-7.06,5.11-9.12,8.05a15.31,15.31,0,0,0-2-4.44c-2.22-3.22-7.13-5-10.9-2-4.17,3.28-4.77,7.93-4.32,12.33.06.53.15,1.23.31,2-1.88-.22-3.75-.32-5.33-.37a20.75,20.75,0,0,0-12,3.17c-3.94,2.5-2,4.14,1.41,5.2-1.19.21-2.32.44-3.31.67-.57.13-1.4.33-2.32.6h0c-2-.39-5.63,2.22-7,3.14-.3.21-.59.46-.88.7,1.73-2.72,3.43-6,3.79-8.85.12-1.14.88-6.21-2.63-5.48s-5.52,3.74-6.64,6.81c-.26-5.85-1.52-14.85-5.09-13.49-1.77.67-1.69,3.62-1.9,4.87-.1.64-.21,1.28-.33,1.93a3.5,3.5,0,0,0-.93-1c-4.1-2.65-5,6.94-5.28,11.3-.29-.92-.37-2-.65-2.64a21.52,21.52,0,0,0-3.87-5.91c-2.52-2.82-6.37-4.71-10.24-2.37-2.72,1.64-2,4.86-1.19,7a18.8,18.8,0,0,0,2.05,4c-3.38-1-7-1.14-8.81.18-3,2.2.4,5.32,4.15,7.57-2.78-.46-5.47-.35-6.34,1.57-1,2.16,2.45,3.62,4.41,4.56l.37.19a11.65,11.65,0,0,0-2.46,2.13,10.24,10.24,0,0,0-1.6,2.83,29.87,29.87,0,0,0-.67,3.52c-1.18-2.41-3.8-7.53-7.42-5.47a6.36,6.36,0,0,0-3.24,5.24c-1.52-2.26-3.82-5.23-7-4.77-2.1.32-2.82,3-3.08,4.25a6.65,6.65,0,0,0-.12,1.67c-.54-.43-1.1-.85-1.72-1.28a1.73,1.73,0,0,0-2.45.62c-.9,1.57.48,4,1.09,5.48a24.19,24.19,0,0,0,1.78,3.42,4.85,4.85,0,0,0-1.92-.35.94.94,0,0,0-.78.59c-.6,1.65,1.91,4,3.59,5.6-1.4-.36-2.87-.89-4.1-1.15a28,28,0,0,0-9.09-.48c-4.5.58-6.91,2.66-8.39,5.87-1.57,3.4,2.08,4.78,5.73,5.15a26.17,26.17,0,0,0,10.79-1.42c-4.15,2.31-8.37,5.27-6.54,6.86,1.39,1.19,5.77-.33,9.27-2.06a12.38,12.38,0,0,0-1.66,3c-1.43,4.3,6,4.69,9.51,4.11a14.34,14.34,0,0,0,9.55-6.15c.23-.38.43-.76.64-1.14,0,1.6.4,3,1.92,3.34,4.79,1,6.66-5.76,7.43-10.33a16.58,16.58,0,0,0,1,3.13,32.09,32.09,0,0,0,5.28,8.28c2,2.14,6.83,5.22,9.52,1.91a9.26,9.26,0,0,0,1.86-6.15c2,2.15,4.5,4,6.91,3.35,4.31-1.16,3.65-5.06,2.79-7.91a20.68,20.68,0,0,0-1.62-3.79,5.76,5.76,0,0,0,6.16-.16,2.84,2.84,0,0,0,1.32-3.11c5.25,1.86,10.75,2.26,14.84-2.2,2.51-2.75,2.67-6.23,1.68-9.37a1.34,1.34,0,0,1-.07-.18c4.95-.76,9.6-3.51,13.07-6.41.42-.35,1-.86,1.7-1.46a6.28,6.28,0,0,0,3.35.88c4,.09,7.26-4,8.84-6.32.79-1.17,1.52-2.38,2.18-3.59A3.64,3.64,0,0,0,219.33,56a5,5,0,0,0,5-2c.08-.09.14-.19.21-.28a5.56,5.56,0,0,0,2.29,2.65,6.41,6.41,0,0,0,6.61-.4,8.26,8.26,0,0,0,3.39-7.59c1.67.93,3.36,1.7,4.49,2.23,6,2.8,11.19,2.17,17-.34C260.85,49.2,264.57,46.3,261.45,44.31Z"/></g></g></svg>