<svg id="Laag_1" data-name="Laag 1" xmlns="http://www.w3.org/2000/svg" viewBox="0 0 448.51 246.24"><defs><style>.cls-1{fill:#a2b9b9;opacity:0.7;}.cls-2{fill:#fff;}.cls-3,.cls-4{fill:#bde1e1;}.cls-3{opacity:0.3;}.cls-4{opacity:0.5;}</style></defs><path class="cls-1" d="M419,145.23A50.77,50.77,0,0,0,405.43,144c.13-.39.28-.77.43-1.18,2.37-7,3.3-16.07.9-23.17a62,62,0,0,0-11.14-20.34c-9.44-11-23.7-17.14-37.85-19.09a74,74,0,0,0-22.27.75,72.44,72.44,0,0,0-2.17-16.83c-3.69-14.54-15.2-27.25-27.22-35.73-12.7-8.93-28.32-10.24-43.13-7-1.54.35-3.11.77-4.63,1.26-5.33-12-19-19.11-31.52-21.67a55.44,55.44,0,0,0-25.57,1.2c-7.86,2.22-14.39,6.47-20.57,11.68-6,5.08-10.75,12.18-14.28,19.16-3.9,7.68-4.53,16.68-4.27,25.15.2,7,2.57,13.09,6.12,18.81a24.94,24.94,0,0,0-5,3.37,33.69,33.69,0,0,0-10.37,16A48.81,48.81,0,0,0,147,94.2a68.7,68.7,0,0,0-23.57-2.41c-7.73.44-15.26,3.4-22.13,6.86-14,7-27.26,15.2-34.47,29.73A43.36,43.36,0,0,0,63,140.74c-1.3-.37-2.62-.69-3.94-1a52,52,0,0,0-29.78,2.61C12.18,149.21,1,168.37.06,186.27-1,207,14,225.2,33.43,230.31c9.9,2.58,21.07,1.39,30.65-2A78.62,78.62,0,0,0,81.66,220,58.43,58.43,0,0,0,91.8,230.53c12.26,9.82,28.08,14.24,43.49,15.5a60.15,60.15,0,0,0,21.53-2.11c3.59-1,7.18-1.49,10.7-2.67a95.55,95.55,0,0,0,10.84-4.65c5.67-2.75,11.83-6.28,16.51-10.69a65.24,65.24,0,0,0,44.18,18.26,98.11,98.11,0,0,0,41.72-9c9.41-4.25,17.64-10.79,24.71-18.34,11.67,8.74,25.72,14.25,40.08,17A122.9,122.9,0,0,0,379,236.07,91.93,91.93,0,0,0,410.43,228c16.77-7.68,35.09-22.37,37.73-41.7S437.6,149.75,419,145.23Z"/><path class="cls-2" d="M439.19,195.9c-4.29,8.92-13.38,15.77-21.43,21.14-18.66,12.44-42.12,14.9-63.86,11.9a115.94,115.94,0,0,1-34.15-9.83A80.85,80.85,0,0,1,308.94,213q1.43-1.65,2.74-3.33c-1.17,1-2.43,1.92-3.58,2.75-4.54,3.29-9.18,6.54-13.93,9.5l-1.69,1.05a79.45,79.45,0,0,1-10.86,6.45,92.24,92.24,0,0,1-18.39,6.3A102.67,102.67,0,0,1,242.89,239a66.32,66.32,0,0,1-17.14-1.61c-8-1.21-15.91-3.48-22.82-7.66a41.84,41.84,0,0,1-11.4-9.43c-2.07-2.6-3.67-6.11-6.32-8.25a42.91,42.91,0,0,0,2.25,4.5,40.9,40.9,0,0,0,5.21,7.1c-5,3.77-11.17,6.41-16.79,9-12.71,5.66-26.79,9.14-40.71,8a93.7,93.7,0,0,1-40.95-13.08,49,49,0,0,1-10.77-8.78l0,0a53.11,53.11,0,0,1-9.18-12.13A58.74,58.74,0,0,0,80,217.74a107.56,107.56,0,0,1-15.37,5.91,55.27,55.27,0,0,1-28.72,1.55C17.75,221,5.64,205,4.56,186.6c-1-17.16,9.63-35.41,25.19-42.53,9-4.15,19.33-4.86,29-3.15a39.44,39.44,0,0,1,4,.93,44.57,44.57,0,0,0-.45,5.77,34.74,34.74,0,0,0,.77,6.1A56.24,56.24,0,0,0,66,161.66a49.21,49.21,0,0,1,2-22.33,30,30,0,0,1,1.46-3.7,53.91,53.91,0,0,1,2.31-5.41c6.41-13,18.84-20,30.92-26.78a62.11,62.11,0,0,1,42.17-6.84,49.08,49.08,0,0,1,7.57,2.09,24,24,0,0,0,3.55,18c-2.33-7.83-2-16.69,2.06-23.49a39.91,39.91,0,0,1,8.88-11.75,16.92,16.92,0,0,1,2.89-2.17.56.56,0,0,1,.14.2l.15-.09c.72-.42,1.45-.81,2.18-1.18,0-.07-.07-.13-.11-.21A58.33,58.33,0,0,1,185.5,74.1a34.18,34.18,0,0,1,9.82-.81,17.44,17.44,0,0,1,2.22.32l.65,0a22.52,22.52,0,0,0-7.31-1.23,78.45,78.45,0,0,0-10.86.82,43.92,43.92,0,0,0-9.21,2.57,42,42,0,0,1-4.92-18.38c-.4-7.86.29-16,3.72-23.2A58.82,58.82,0,0,1,183.29,15.8C195,5.35,209.56.4,225.21,2.17c12.72,1.43,27.06,8.69,32.84,20.56a60.71,60.71,0,0,0-11.49,5.12A34.7,34.7,0,0,0,240,33.54c8.53-7.14,20.56-10.75,31.91-10a52.69,52.69,0,0,1,33.47,9.92c10.9,8,21.34,18.74,25.84,31.65a51.75,51.75,0,0,1,2.61,11.77,57.18,57.18,0,0,1,.86,12.76c0,1.08-.06,2.15-.1,3.22a68.53,68.53,0,0,0,.88-10.31c.33,0,.63-.08.95-.12a70.67,70.67,0,0,1,20.69.56c13.14,2.3,26.28,8.84,35.12,19,4.33,5,7.06,11,9.61,17,3,7.07,2.59,15.25.62,22.6q-.37,1.37-.84,2.73h-.22a60.89,60.89,0,0,0-10.23,2.26,6,6,0,0,0-3.52,2l.28-.05a1.26,1.26,0,0,1,.33-.13c2.62-1.93,6.79-2,9.77-2.15a53.1,53.1,0,0,1,6.55-.11,0,0,0,0,1,0,0,47.42,47.42,0,0,1,12.8,2.34,36.59,36.59,0,0,1,22.45,20A33.17,33.17,0,0,1,439.19,195.9Z"/><path class="cls-3" d="M224.52,53.25a14.63,14.63,0,0,0,1,6.3c-.17-7.74,4.61-16.8,9.52-22.07A42.65,42.65,0,0,1,242,31.56a36.87,36.87,0,0,1,4.61-3.71,60.71,60.71,0,0,1,11.49-5.12,30.29,30.29,0,0,0-5.15-7.34C239.77,17.53,225.58,34.3,224.52,53.25Z"/><path class="cls-3" d="M170.81,75.79A43.92,43.92,0,0,1,180,73.22a78.45,78.45,0,0,1,10.86-.82,22.51,22.51,0,0,1,6,.82A69.79,69.79,0,0,1,216.12,78a75,75,0,0,1,19.42,10.83c-12.57-19-39.27-30.09-60.36-20.93a1.4,1.4,0,0,1-1.89-.48,60.76,60.76,0,0,1-4.18-32.12c-2.94,6.9-3.59,14.63-3.22,22.07A42,42,0,0,0,170.81,75.79Z"/><path class="cls-4" d="M439.88,168.35a36.59,36.59,0,0,0-22.45-20,47.42,47.42,0,0,0-12.8-2.34,0,0,0,0,0,0,0,53.1,53.1,0,0,0-6.55.11c-3,.14-7.15.22-9.77,2.15a1.26,1.26,0,0,0-.33.13l-.28.05a6,6,0,0,1,3.52-2,60.89,60.89,0,0,1,10.23-2.26h.22q.47-1.36.84-2.73c2-7.35,2.35-15.53-.62-22.6-2.55-6-5.28-12-9.61-17-7.43-8.51-17.93-14.48-28.9-17.52,12.06,7.68,21.94,17.9,22.36,33.66.3,11-2,24.67-8.11,35.26,2.22-.36,4.41-.69,6.66-1,9.46-1.1,19.54-2.62,28.74.83,7.28,2.73,10.09,9.78,7.89,17.08-3.28,10.89-11.42,19.16-21.64,23.94-20.23,9.46-44.23,8.32-65.11,1.51-14.09-4.59-28.08-12.13-37.4-23.54-10,20.78-29.19,35.77-54.27,36.31-28.59.59-60.8-17.26-70.1-45.16a62.25,62.25,0,0,0,6.67,25.83,1.42,1.42,0,0,1-.5,1.88c-20.44,13-62.56,26.77-87,16.53-13.38-5.6-19.66-17.43-25.19-31.89-1.13,10.07,1.22,21.14,5,31.89.34.92-3.08,1.45-3.9,1.56-17.21,2-38,.19-50.72-13.13A37.47,37.47,0,0,1,6.5,171.56a41.83,41.83,0,0,0-1.94,15C5.64,205,17.75,221,35.94,225.2a55.27,55.27,0,0,0,28.72-1.55A107.56,107.56,0,0,0,80,217.74a58.74,58.74,0,0,1-5.73-11.12,53.11,53.11,0,0,0,9.18,12.13l0,0a49,49,0,0,0,10.77,8.78,93.7,93.7,0,0,0,40.95,13.08c13.92,1.11,28-2.37,40.71-8,5.62-2.54,11.8-5.18,16.79-9a40.9,40.9,0,0,1-5.21-7.1,42.91,42.91,0,0,1-2.25-4.5c2.65,2.14,4.25,5.65,6.32,8.25a41.84,41.84,0,0,0,11.4,9.43c6.91,4.18,14.83,6.45,22.82,7.66A66.32,66.32,0,0,0,242.89,239a102.67,102.67,0,0,0,20.34-3.33,92.24,92.24,0,0,0,18.39-6.3,79.45,79.45,0,0,0,10.86-6.45l1.69-1.05c4.75-3,9.39-6.21,13.93-9.5,1.15-.83,2.41-1.76,3.58-2.75q-1.32,1.68-2.74,3.33a80.85,80.85,0,0,0,10.81,6.15,115.94,115.94,0,0,0,34.15,9.83c21.74,3,45.2.54,63.86-11.9,8.05-5.37,17.14-12.22,21.43-21.14A33.17,33.17,0,0,0,439.88,168.35Z"/><path class="cls-2" d="M169.77,79.32c-.11.06-.19.14-.32.21l.38-.13A.16.16,0,0,0,169.77,79.32Z"/></svg>