<svg id="Laag_1" data-name="Laag 1" xmlns="http://www.w3.org/2000/svg" viewBox="0 0 468.52 257.96"><defs><style>.cls-1{fill:#a2b9b9;}.cls-2{fill:#fff;}.cls-3{fill:#bde1e1;opacity:0.4;}</style></defs><path class="cls-1" d="M466.23,102.79C461.92,82.56,444.88,74.27,428,71a65.09,65.09,0,0,0-27.77,1.09,61.69,61.69,0,0,0-2.36-12.25c-4.14-14-15.38-22.85-27.34-27.94a55.21,55.21,0,0,0-37.34-2.45,45.48,45.48,0,0,0-14.08,7.11c-1.28-10.89-4.89-21.26-13.39-28.11C294.83-.31,282.94-1.86,270.07,2c-11.95,3.6-21.23,11.26-28.22,22.54a82.72,82.72,0,0,0-5,9.43,71.39,71.39,0,0,0-18.38-7.56c-15.59-4.29-31,.14-44.28,9.53a73.93,73.93,0,0,0-26.75,36,43.94,43.94,0,0,0-1.58,6.35c-1-.5-2-1-3-1.44-9.61-4.32-19.56-7-30-6.67C98.62,70.66,84,77.41,73.32,88.31c-8.54-4.69-18.61-5.94-28-5.93-10.92,0-20.28,2.86-28.94,10.32C9.11,99,4,108,1.4,117.73c-5.09,19,4.15,37.79,20.32,45.42,12.76,6,27.25,4.46,40.49.4a2.21,2.21,0,0,1,.14.41A45.38,45.38,0,0,0,78.4,183.74a55,55,0,0,0-.94,8c-.82,16.67,8.18,32.37,21.31,39.95,15.11,8.66,32.46,10.66,49.21,9,12.73-1.23,25.79-5.79,36-14.48a73.38,73.38,0,0,0,15.11,17.41c15.33,12.67,36,15.45,54.54,14a103.08,103.08,0,0,0,56.66-23.25c8.92-7.37,17.16-16.78,21.95-27.85,1.07.58,2.14,1.15,3.27,1.69,12,5.55,26.11,3.79,38.2-.71,12.29-4.59,23.5-14.85,31.37-26.08a73.89,73.89,0,0,0,9.09-17.54,24.85,24.85,0,0,0,1.23-5.88,51.61,51.61,0,0,0,26.73-7.28C457.88,141,470.69,123.75,466.23,102.79Z"/><path class="cls-2" d="M446.39,148.27a43,43,0,0,1-20.07,6.24c-4,.55-8,.79-12,1a81,81,0,0,1-9.25.06,58.4,58.4,0,0,0,11.41,2.19,22.82,22.82,0,0,1-.73,3.15c-1.72,5.45-4.8,10.37-8,14.89a72.93,72.93,0,0,1-26.47,22.74,57,57,0,0,1-33.11,5.43,37.35,37.35,0,0,1-7-1.87,48.64,48.64,0,0,0,2.59-16.25.9.9,0,0,0-.06-.34c-.2,6.36-3.57,12.79-6.46,18a61.58,61.58,0,0,1-6.87,10.18,86.25,86.25,0,0,1-16.49,16,107,107,0,0,1-52.53,20.67c-16.48,1.81-33.63-.77-48.43-9.08A63.65,63.65,0,0,1,195,226a35,35,0,0,1-6.71-8.78c-3.6-6.74-4.53-14.14-5.61-21.62-.63,9,1.73,17.89,5.78,25.89a82.76,82.76,0,0,1-68.63,7.49c-13.1-4.41-23.68-12.51-28.64-27.07a39,39,0,0,1-2-11.22,24.31,24.31,0,0,1,1.48-16.27c3.23-6.68,8.34-10,14-13-5.63-.22-10.48,4.84-13.74,9.4A30.49,30.49,0,0,0,88,176a44.24,44.24,0,0,1-7-6.41c-5.12-4-8.88-9.92-11.78-16.08A81.51,81.51,0,0,1,64.37,140c-.34-1.29-.69-2.61-1-3.92a82.16,82.16,0,0,0,4.67,24c-9.77,1.72-19.77,2.23-29.47.17a33.6,33.6,0,0,1-26.67-34.38c.86-20.17,17.32-36.58,34.92-38.21a79.53,79.53,0,0,1,27,2.09A36,36,0,0,1,78,91.09a57.7,57.7,0,0,0-6.84,9.8c-.59,1.51-1.15,3-1.65,4.55A46.6,46.6,0,0,1,84.14,88.91a60.15,60.15,0,0,1,40.6-16.56c9.54-.08,19.42,3.18,28.21,7.24a37.14,37.14,0,0,0,.71,13.21,37.8,37.8,0,0,1,5-21.41c.64-1.6,1.35-3.12,2.06-4.54A74.54,74.54,0,0,1,191.1,35.11C205,27.58,220.71,27.57,235.21,33a80.39,80.39,0,0,1,7.89,3.39s0,.08-.07.12c.46.18.91.38,1.34.56h0l.23.12,1.9.94a87.91,87.91,0,0,1,7.74,4.39,32.94,32.94,0,0,0-7.59-6.92c-.39-.29-.81-.55-1.21-.81,1.32-2.72,2.77-5.34,4.23-7.81a44.29,44.29,0,0,1,26.62-20.5,46,46,0,0,1,16.76-1.75c5.51.53,9.91,3.29,14.59,6.16C315.46,15.7,320,24,322.52,33a21.77,21.77,0,0,1,1.19,3.44,44.17,44.17,0,0,1,2.64,9.29,1.35,1.35,0,0,0,.57-1.1c0-1.55-.11-3.09-.25-4.64a66.6,66.6,0,0,1,8-3.87c11.77-4.82,24.78-3.91,36.63-.05,11,3.57,21.91,11,27.67,22.17a46.61,46.61,0,0,1,4.74,14.93c-5.72,1.91-12.28,5.39-15.56,10.66,7.38-6.48,16.68-10,26-9.24a72,72,0,0,1,19.48,2.26c14.91,3.74,29.25,10.82,33.88,28.36C472.25,123.38,459.79,139.82,446.39,148.27Z"/><path class="cls-3" d="M371.24,123.54c7.07,10.92,7.07,26.53,21.21,31.22-7.09,12.48-25.45,17.16-35.34,9.36-8.52-5.88-11.42-15.32-16.58-23.61.68,25.06-10.58,52.29-31.48,59.51-38.14,15.61-86.18,17.17-117.29-12.48-6.68-7.39-6.91-19-5.06-30.61-7.33,11.25-11.29,24.83-9.06,38.42-12.72,1.56-24,4.67-36.75,3.11C125.34,195.35,102.73,186,107,164.12a37.19,37.19,0,0,1,13.72-19.19c-13.56,1.72-28.21,5.28-34.91,17.63a59.16,59.16,0,0,1-20.12-49.68c-7.67,9.41-13.13,22.51-9.57,35.63C36,153.18,15.2,140.41,12.42,121.3a37.85,37.85,0,0,0-.48,4.56,33.6,33.6,0,0,0,26.67,34.38c9.7,2.06,19.7,1.55,29.47-.17a82.16,82.16,0,0,1-4.67-24c.27,1.31.62,2.63,1,3.92a81.51,81.51,0,0,0,4.91,13.48c2.9,6.16,6.66,12.07,11.78,16.08A44.24,44.24,0,0,0,88,176a30.49,30.49,0,0,1,2.92-5.24c3.26-4.56,8.11-9.62,13.74-9.4-5.65,3-10.76,6.36-14,13a24.31,24.31,0,0,0-1.48,16.27,39,39,0,0,0,2,11.22c5,14.56,15.54,22.66,28.64,27.07a82.76,82.76,0,0,0,68.63-7.49c-4-8-6.41-16.9-5.78-25.89,1.08,7.48,2,14.88,5.61,21.62A35,35,0,0,0,195,226a63.65,63.65,0,0,0,17.87,15.3c14.8,8.31,32,10.89,48.43,9.08a107,107,0,0,0,52.53-20.67,86.25,86.25,0,0,0,16.49-16,61.58,61.58,0,0,0,6.87-10.18c2.89-5.2,6.26-11.63,6.46-18a.9.9,0,0,1,.06.34,48.64,48.64,0,0,1-2.59,16.25,37.35,37.35,0,0,0,7,1.87,57,57,0,0,0,33.11-5.43,72.93,72.93,0,0,0,26.47-22.74c3.21-4.52,6.29-9.44,8-14.89a22.82,22.82,0,0,0,.73-3.15,58.4,58.4,0,0,1-11.41-2.19,81,81,0,0,0,9.25-.06c4-.16,8-.4,12-1a43,43,0,0,0,20.07-6.24c10.42-6.54,20.23-18,21.89-31.22C446.06,148.91,397.32,155.36,371.24,123.54Z"/></svg>