<svg id="Layer_1" data-name="Layer 1" xmlns="http://www.w3.org/2000/svg" viewBox="0 0 622.84 230.61"><defs><style>.cls-1{fill:#03612f;}.cls-2{fill:#005001;}.cls-3{fill:#013700;}</style></defs><path class="cls-1" d="M550.35,162.67h0l-.07-.06c-.88-1-2.52-2.59-4.19-4.32l-.13-.13-.58-.6-.19-.2-.6-.63-.12-.13-.65-.7c-.07-.09-.15-.17-.22-.25l-.41-.46-.23-.27-.38-.45-.19-.23c-.18-.22-.35-.44-.5-.64l-.39-.5c.3.13.59.24.89.34l.25.07q.32.11.63.18l.32.06.57.09.34,0c.19,0,.37,0,.56,0h.34l.57,0,.31,0a6,6,0,0,0,.61-.11l.28-.07c.22-.06.44-.12.66-.2l.23-.09.35-.13h0c.16-.07.32-.13.48-.21.37-.17-5.65-9.94-8.18-14.46a19.49,19.49,0,0,0,4.68,2.61c.45.14-4.73-7.72-5.92-10.27a5.71,5.71,0,0,0,5.42,1c.39-.13-5.58-12-8.13-17.28a5.48,5.48,0,0,0,4.62.26c.42-.17-2.92-4.21-4-5.87a5.18,5.18,0,0,0,5.62.34c.31-.19-3.14-5.67-6-10.83a4.06,4.06,0,0,0,3.07-.76s0-.14,0-.15c-2.41-1.13-4.54-3.62-6.25-6.66-.16-.29-.32-.58-.47-.88-.33-.62-.65-1.27-1-1.92l-.18-.39c-.3-.66-.6-1.34-.89-2-.39-.93-.77-1.89-1.15-2.83-.11-.28-.26-.58-.39-.9a13.21,13.21,0,0,0,.86,1.45l0,0c.14.21.29.41.44.6l0,0c.14.18.29.35.43.51s0,0,.07.07.28.29.42.42l.09.08.4.34.12.09.38.27.15.08a2.5,2.5,0,0,0,.35.21l.18.08.33.15.21.07.29.1.24,0,.27.05.26,0h.24a1.31,1.31,0,0,0,.28,0H536a3,3,0,0,0,.31,0l.18,0,.32-.08.16,0,.34-.12.07,0h0l.23-.09c.32-.17-5.71-8.12-8.12-12.65a4.25,4.25,0,0,0,2.22,1h.12c.23,0-3.29-5.73-4.52-9-.72-1.87-1.89-5.54-2.33-6.42a30.45,30.45,0,0,0,2,3.58l0,.07.25.33.09.12.21.26.12.14.19.2.14.14.17.16.17.14.15.12.18.13.14.09.2.1.13.06.21.07.12,0,.22,0h0a1.85,1.85,0,0,0,.23,0,.15.15,0,0,0,.1,0c-2.34-3.2-4.23-7.83-6-12.56-1.4-3.85-2.87-7.82-4.09-12.07-.07.27-.15.54-.22.81l-.3,1.11-.15.54-.33,1.2-.15.51-.36,1.23c0,.17-.09.33-.14.49-.13.41-.25.82-.37,1.23-.06.18-.12.35-.17.53-.12.39-.24.78-.37,1.16-.06.2-.13.4-.19.59l-.36,1.09c-.08.21-.15.42-.23.64s-.23.67-.35,1-.17.48-.26.72l-.33.88c-.1.28-.21.55-.32.82l-.29.75-.39.93c-.08.19-.16.39-.25.59l-.45,1c-.07.14-.14.3-.2.45-.18.37-.35.73-.53,1.09l-.15.32-.6,1.13-.11.22-.66,1.17a1.05,1.05,0,0,0-.07.11c-.23.39-.48.78-.72,1.15l0,.05c-.25.39-.51.76-.78,1.12h0c1.91,0,3.55-2.85,5-5.81-.45.88-1.61,4.55-2.33,6.42a29.54,29.54,0,0,1-2,4.32,25.15,25.15,0,0,1-2.37,4.61,4.21,4.21,0,0,0,2.22-1c-1.13,2.12-6.11,10.08-7.6,11.92-.19.23-.37.45-.56.66l.05.07c2.45,1.21,5.46,0,7.64-3.86a33.44,33.44,0,0,1-9.08,12.4s0,.13,0,.15a3.86,3.86,0,0,0,3.14,1.52c-3,5.64-7.5,12.63-7.15,12.84a5.16,5.16,0,0,0,5.61-.34c-1.07,1.66-4.41,5.7-4,5.87a5.48,5.48,0,0,0,4.62-.26c-2.55,5.26-8.52,17.15-8.13,17.28a5.72,5.72,0,0,0,5.42-1c-1.19,2.55-6.6,11.54-6.16,11.4.91-.28,4.08-2.94,4.92-3.74C497,143,491,152.81,491.35,153a8.24,8.24,0,0,0,4.58.88c-1.74,3.46-5.66,9-5.51,9.12,2.69,2.26,5.55,1,8.3-.19a10.21,10.21,0,0,0,2.6-1.68c-.34.66-.69,1.32-1,2-2,3.65-7.36,10.5-7,10.57,3.09.57,6.25-.41,9.31-2.62.57-.81,1.12-1.67,1.66-2.53-.55,2-1.69,7.21-1.45,7.33,3,1.49,5.78-1.69,7.73-6.65-.07,1.83.12,7,.38,6.75,1.87-1.73,3.36-4.75,4.58-8.22.27.56.56,1.09.85,1.6L515,176.42h0l-1.33,7.1h10.23L521.5,170.4c1.78,1.92,3.67,4.08,5.56,4.46.2,0-.51-2.9-.91-4a14.12,14.12,0,0,0,6.63,4.44c.52.13-1.4-4.08-1.92-5.11,1.61,1.21,6.22,4.55,7.74,4.09.38-.12-3.1-4.83-3.2-5a1.51,1.51,0,0,1-.11-.22,22.09,22.09,0,0,0,2.7,2.2l0,0,.63.41.07,0c.2.13.41.25.61.36l.1.06.57.3.14.07.55.25.17.07.51.21.21.07.49.16.23.07.46.12.27.06.43.09.31,0,.38.05.36,0,.34,0a2.8,2.8,0,0,0,.41,0h.29l.47,0,.23,0h.12a5,5,0,0,0,.54-.08c.39-.07-4.82-6.83-6.79-10.28l.3.14c3,1.3,7.79,3.73,10.54.07C551,163.49,550.78,163.16,550.35,162.67Z"/><path class="cls-1" d="M380.45,162.67h0l-.07-.06c-.88-1-2.52-2.59-4.19-4.32l-.13-.13-.58-.6-.19-.2-.6-.63-.12-.13-.65-.7a2.62,2.62,0,0,0-.22-.25l-.41-.46-.23-.27-.38-.45-.19-.23c-.18-.22-.35-.44-.5-.64l-.39-.5c.3.13.59.24.89.34l.25.07q.31.11.63.18l.32.06.57.09.34,0c.19,0,.37,0,.56,0h.34l.57,0,.31,0a6,6,0,0,0,.61-.11l.28-.07c.22-.06.44-.12.66-.2l.23-.09.35-.13h0L379,153c.37-.17-5.65-9.94-8.18-14.46a19.68,19.68,0,0,0,4.68,2.61c.45.14-4.73-7.72-5.92-10.27a5.71,5.71,0,0,0,5.42,1c.39-.13-5.58-12-8.13-17.28a5.48,5.48,0,0,0,4.62.26c.42-.17-2.92-4.21-4-5.87a5.18,5.18,0,0,0,5.62.34c.31-.19-3.14-5.67-6-10.83a4.06,4.06,0,0,0,3.07-.76s0-.14-.05-.15c-2.41-1.13-4.54-3.62-6.25-6.66-.16-.29-.32-.58-.47-.88-.33-.62-.65-1.27-.95-1.92l-.18-.39c-.3-.66-.6-1.34-.89-2-.39-.93-.76-1.89-1.15-2.83-.11-.28-.26-.58-.39-.9a13.21,13.21,0,0,0,.86,1.45l0,0c.14.21.29.41.44.6l0,0c.14.18.29.35.43.51a.46.46,0,0,1,.07.07l.42.42.09.08.4.34.12.09.38.27.15.08a2.5,2.5,0,0,0,.35.21l.18.08.33.15.21.07.29.1.24,0,.27.05.26,0h.24a1.31,1.31,0,0,0,.28,0h.21a3,3,0,0,0,.31,0l.18,0,.32-.08.16,0,.34-.12.07,0h0l.23-.09c.33-.17-5.71-8.12-8.12-12.65a4.25,4.25,0,0,0,2.22,1h.12c.23,0-3.29-5.73-4.52-9-.72-1.87-1.89-5.54-2.33-6.42a30.45,30.45,0,0,0,2,3.58l.06.07.24.33.09.12.21.26.12.14.19.2.14.14.17.16.17.14.15.12.18.13.14.09.2.1.13.06.21.07.13,0,.22,0h0a1.62,1.62,0,0,0,.22,0,.15.15,0,0,0,.1,0c-2.34-3.2-4.23-7.83-5.95-12.56-1.4-3.85-2.87-7.82-4.09-12.07-.07.27-.15.54-.22.81l-.3,1.11-.15.54-.33,1.2-.15.51c-.12.41-.23.82-.36,1.23,0,.17-.09.33-.14.49-.12.41-.25.82-.37,1.23-.06.18-.12.35-.17.53-.12.39-.24.78-.37,1.16-.06.2-.13.4-.19.59L347,50.88c-.08.21-.15.42-.23.64s-.23.67-.35,1-.17.48-.26.72l-.33.88c-.1.28-.21.55-.32.82l-.29.75-.39.93c-.08.19-.16.39-.25.59l-.45,1c-.07.14-.13.3-.2.45-.18.37-.35.73-.53,1.09l-.15.32-.6,1.13a2.26,2.26,0,0,1-.11.22q-.33.6-.66,1.17l-.07.11c-.23.39-.47.78-.72,1.15l0,.05c-.25.39-.51.76-.78,1.12h0c1.91,0,3.55-2.85,5.05-5.81-.45.88-1.61,4.55-2.32,6.42A30.6,30.6,0,0,1,341,70a25.15,25.15,0,0,1-2.37,4.61,4.18,4.18,0,0,0,2.22-1c-1.13,2.12-6.11,10.08-7.6,11.92-.19.23-.37.45-.56.66l.05.07c2.45,1.21,5.46,0,7.64-3.86a33.44,33.44,0,0,1-9.08,12.4s0,.13,0,.15a3.83,3.83,0,0,0,3.13,1.52c-3,5.64-7.5,12.63-7.15,12.84a5.16,5.16,0,0,0,5.61-.34c-1.07,1.66-4.41,5.7-4,5.87a5.48,5.48,0,0,0,4.62-.26c-2.55,5.26-8.52,17.15-8.13,17.28a5.72,5.72,0,0,0,5.42-1c-1.19,2.55-6.6,11.54-6.16,11.4.91-.28,4.08-2.94,4.92-3.74-2.53,4.52-8.55,14.29-8.18,14.46a8.24,8.24,0,0,0,4.58.88c-1.74,3.46-5.66,9-5.51,9.12,2.7,2.26,5.55,1,8.3-.19a10.43,10.43,0,0,0,2.61-1.68c-.35.66-.7,1.32-1.05,2-2,3.65-7.36,10.5-7,10.57,3.1.57,6.25-.41,9.31-2.62.57-.81,1.12-1.67,1.66-2.53-.55,2-1.69,7.21-1.45,7.33,3,1.49,5.78-1.69,7.73-6.65-.07,1.83.12,7,.38,6.75,1.87-1.73,3.36-4.75,4.58-8.22.27.56.56,1.09.85,1.6l-1.33,7.12h0l-1.33,7.1H354L351.6,170.4c1.78,1.92,3.67,4.08,5.56,4.46.2,0-.51-2.9-.91-4a14.12,14.12,0,0,0,6.63,4.44c.52.13-1.4-4.08-1.92-5.11,1.61,1.21,6.22,4.55,7.74,4.09.38-.12-3.1-4.83-3.2-5a1.51,1.51,0,0,1-.11-.22,22.09,22.09,0,0,0,2.7,2.2l0,0,.63.41.07,0,.61.36.1.06.58.3.13.07.55.25.17.07.51.21.21.07.49.16.23.07.46.12.28.06.42.09.31,0,.38.05.36,0,.34,0a2.8,2.8,0,0,0,.41,0h.29l.47,0,.23,0h.12a5,5,0,0,0,.54-.08c.39-.07-4.82-6.83-6.79-10.28l.3.14c3,1.3,7.79,3.73,10.54.07C381.12,163.49,380.88,163.16,380.45,162.67Z"/><path class="cls-1" d="M142.82,158.3h0l-.06-.07c-.88-1-2.52-2.59-4.2-4.31l-.12-.13-.58-.6-.19-.2-.6-.64-.12-.12-.65-.71c-.07-.08-.15-.16-.22-.25l-.41-.46-.24-.27-.37-.45a2.11,2.11,0,0,1-.19-.23c-.18-.22-.35-.43-.5-.64l-.39-.5a8,8,0,0,0,.88.34l.26.08.63.17a3,3,0,0,0,.32.06l.57.09c.11,0,.23,0,.34,0a5.25,5.25,0,0,0,.56,0h.33l.57,0,.32,0,.61-.11.28-.08a5.38,5.38,0,0,0,.65-.2l.24-.08.35-.13h0c.17-.07.33-.13.49-.21.37-.18-5.66-9.94-8.18-14.47a19.49,19.49,0,0,0,4.68,2.61c.45.14-4.73-7.72-5.92-10.27a5.72,5.72,0,0,0,5.42,1c.39-.13-5.58-12-8.13-17.29a5.42,5.42,0,0,0,4.61.26c.42-.17-2.91-4.21-4-5.87a5.14,5.14,0,0,0,5.61.34c.31-.18-3.13-5.66-6-10.83a4.1,4.1,0,0,0,3.07-.75s0-.15-.05-.16C130,92,127.9,89.54,126.18,86.5c-.16-.28-.31-.58-.47-.87-.32-.63-.64-1.27-.95-1.93-.05-.13-.11-.26-.17-.39-.3-.66-.6-1.33-.89-2-.39-.93-.77-1.89-1.15-2.83-.11-.28-.26-.58-.39-.89A13,13,0,0,0,123,79l0,0c.14.21.29.41.44.6l0,.05c.14.18.29.35.43.51l.06.06a5.66,5.66,0,0,0,.43.42.6.6,0,0,0,.08.08c.14.12.27.24.41.34l.12.09c.12.09.25.19.38.27l.14.09.36.2.18.09.32.14.21.07.3.1.24,0,.26.06.27,0,.23,0h.5l.31,0,.18,0,.32-.08.16,0,.33-.12.08,0h0l.23-.1c.32-.16-5.71-8.12-8.12-12.65a4.21,4.21,0,0,0,2.22,1h.11c.24,0-3.28-5.73-4.52-9-.71-1.86-1.88-5.53-2.32-6.42a29.1,29.1,0,0,0,2,3.58l0,.07c.08.12.17.23.25.34l.09.11.21.26.12.14a1.8,1.8,0,0,0,.19.2l.14.15.17.15.16.14a.83.83,0,0,0,.16.12l.18.13.14.09.19.1.14.06.21.08.12,0,.22,0h0l.23,0a.18.18,0,0,0,.1,0c-2.34-3.2-4.23-7.83-6-12.56-1.4-3.85-2.87-7.82-4.09-12.07-.08.27-.15.55-.22.82l-.3,1.1-.15.54c-.11.4-.22.81-.34,1.21,0,.17-.09.33-.14.5L111,41.42c-.05.16-.1.32-.14.48-.13.41-.25.82-.38,1.23,0,.18-.11.36-.16.54-.13.38-.25.77-.37,1.16-.07.19-.13.39-.2.59-.12.36-.23.72-.36,1.08s-.15.43-.22.64-.23.67-.35,1-.18.48-.26.72l-.33.89-.32.81c-.1.25-.19.51-.29.75s-.26.62-.39.93-.17.4-.25.59c-.15.35-.3.68-.45,1l-.21.45c-.17.37-.34.73-.52,1.09a3.18,3.18,0,0,1-.16.32c-.19.39-.39.76-.59,1.14l-.11.21c-.22.4-.44.79-.67,1.17l-.06.11c-.24.4-.48.78-.72,1.16l0,0c-.26.39-.52.77-.78,1.13h0c1.9,0,3.55-2.85,5-5.82-.44.89-1.6,4.56-2.32,6.42a30.74,30.74,0,0,1-2,4.33A25.16,25.16,0,0,1,101,70.22a4.23,4.23,0,0,0,2.22-1c-1.13,2.13-6.11,10.09-7.6,11.92l-.56.66s0,.06,0,.07c2.46,1.21,5.46,0,7.65-3.86A33.39,33.39,0,0,1,93.69,90.4s0,.12,0,.14a3.83,3.83,0,0,0,3.14,1.52c-3,5.65-7.5,12.63-7.15,12.84a5.14,5.14,0,0,0,5.61-.34c-1.08,1.66-4.41,5.7-4,5.87a5.42,5.42,0,0,0,4.61-.26c-2.54,5.27-8.51,17.16-8.12,17.29a5.72,5.72,0,0,0,5.42-1c-1.2,2.55-6.6,11.54-6.16,11.4.91-.28,4.08-2.94,4.92-3.74-2.53,4.53-8.55,14.29-8.18,14.47a8.3,8.3,0,0,0,4.58.87c-1.74,3.46-5.66,9-5.51,9.13,2.69,2.25,5.55,1,8.3-.2a10.21,10.21,0,0,0,2.6-1.68c-.35.66-.69,1.32-1,2-2,3.66-7.36,10.51-7,10.58,3.09.56,6.25-.42,9.31-2.63.57-.81,1.11-1.67,1.66-2.53-.56,2-1.69,7.21-1.45,7.33,3,1.49,5.78-1.68,7.72-6.65-.07,1.83.13,7,.39,6.75,1.86-1.73,3.36-4.75,4.57-8.21.28.55.57,1.09.86,1.6l-1.33,7.12h0l-1.32,7.1h10.23L114,166c1.78,1.92,3.68,4.07,5.57,4.45a16.32,16.32,0,0,0-.91-3.95,14.08,14.08,0,0,0,6.63,4.45c.52.12-1.4-4.09-1.92-5.12,1.61,1.21,6.21,4.56,7.74,4.09.37-.12-3.1-4.82-3.2-5l-.12-.22a23.14,23.14,0,0,0,2.71,2.2l0,0,.63.41.07,0c.2.12.4.24.61.35l.1.06.57.3.14.07.55.25.16.08.52.2.21.08.48.15.24.08.46.11.27.07.42.08.32,0,.38.05.36,0h1a3.71,3.71,0,0,0,.47,0l.23,0h.12l.54-.07c.39-.07-4.82-6.84-6.79-10.28l.29.14c3,1.29,7.79,3.73,10.55.07C143.5,159.11,143.26,158.78,142.82,158.3Z"/><path class="cls-1" d="M280.72,177.42h0l-.06-.07c-.89-1-2.53-2.59-4.2-4.32l-.13-.13-.58-.6-.19-.2-.6-.63-.12-.13-.65-.7a2.62,2.62,0,0,0-.22-.25l-.41-.46-.23-.27-.38-.45-.19-.23c-.18-.22-.35-.44-.5-.64l-.39-.5c.3.13.59.24.89.34l.25.07.63.18.32.06.57.09c.11,0,.23,0,.34,0s.37,0,.56,0h.34l.57,0,.32-.05c.2,0,.4-.06.6-.11l.28-.07c.22-.06.44-.12.66-.2l.23-.09.35-.13h0l.49-.21c.36-.17-5.66-9.94-8.19-14.46a19.68,19.68,0,0,0,4.68,2.61c.45.14-4.73-7.72-5.92-10.27a5.71,5.71,0,0,0,5.42,1c.39-.13-5.58-12-8.13-17.28a5.48,5.48,0,0,0,4.62.26c.42-.17-2.91-4.21-4-5.87a5.18,5.18,0,0,0,5.62.34c.31-.19-3.14-5.67-6-10.83a4.09,4.09,0,0,0,3.08-.76s0-.14-.06-.15c-2.41-1.13-4.54-3.62-6.25-6.66-.16-.29-.32-.58-.47-.88-.33-.62-.65-1.26-.95-1.92l-.18-.39c-.3-.66-.6-1.34-.89-2-.39-.93-.76-1.89-1.15-2.83-.11-.28-.26-.58-.39-.9a11.83,11.83,0,0,0,.87,1.45v0c.14.21.29.41.44.6l0,0c.14.18.29.35.44.51l.06.07.42.42.09.08.4.34.12.09.38.27.15.08a3.24,3.24,0,0,0,.35.21l.18.08.33.15.21.07.29.1.24,0,.27.06.26,0h.24a1.31,1.31,0,0,0,.28,0h.21l.31,0,.18,0,.32-.08.16,0,.34-.13.07,0h0l.23-.09c.33-.17-5.71-8.12-8.11-12.65a4.18,4.18,0,0,0,2.21,1h.12c.24,0-3.29-5.73-4.52-8.95-.72-1.86-1.88-5.54-2.33-6.42a30.45,30.45,0,0,0,2,3.58l.06.07.24.33.09.12.21.26.12.14.19.2.15.15.16.15.17.14.15.12.18.13.14.09.2.1.13.06.21.08.13,0,.22,0h0a1.62,1.62,0,0,0,.22,0,.15.15,0,0,0,.1,0c-2.34-3.2-4.23-7.83-5.95-12.56-1.4-3.85-2.87-7.82-4.09-12.07-.07.27-.15.54-.22.82l-.3,1.1-.15.54-.33,1.21-.15.5c-.12.41-.23.82-.36,1.23,0,.17-.09.33-.14.49-.12.41-.25.82-.37,1.23-.06.18-.12.35-.17.53-.12.39-.24.78-.37,1.16-.06.2-.13.4-.19.59l-.36,1.09c-.08.21-.15.43-.23.64s-.23.67-.35,1-.17.48-.26.72l-.33.88c-.1.28-.21.55-.32.82l-.29.75-.39.93c-.08.19-.16.39-.25.59s-.3.68-.45,1c-.07.14-.13.3-.2.45-.17.37-.35.73-.53,1.09l-.15.32L243,76l-.12.22q-.33.6-.66,1.17l-.06.11c-.24.4-.48.78-.73,1.16l0,0c-.25.39-.51.76-.78,1.12h0c1.91,0,3.55-2.85,5-5.81-.45.88-1.61,4.56-2.32,6.42a30.6,30.6,0,0,1-2.05,4.32,25.15,25.15,0,0,1-2.37,4.61,4.18,4.18,0,0,0,2.22-1c-1.13,2.12-6.1,10.08-7.6,11.92-.19.23-.37.45-.56.66l.05.07c2.45,1.21,5.46,0,7.65-3.86a33.57,33.57,0,0,1-9.09,12.4s0,.13,0,.15a3.84,3.84,0,0,0,3.13,1.52c-3,5.64-7.5,12.63-7.15,12.84a5.16,5.16,0,0,0,5.61-.34c-1.07,1.66-4.41,5.7-4,5.87a5.48,5.48,0,0,0,4.62-.26c-2.55,5.26-8.52,17.15-8.13,17.28a5.71,5.71,0,0,0,5.42-1c-1.19,2.55-6.6,11.54-6.16,11.4.91-.28,4.08-2.94,4.92-3.74-2.53,4.52-8.55,14.29-8.18,14.46a8.24,8.24,0,0,0,4.58.88c-1.74,3.46-5.66,9-5.51,9.12,2.7,2.26,5.55,1,8.3-.19a10.43,10.43,0,0,0,2.61-1.68c-.35.66-.7,1.32-1,2-2,3.66-7.36,10.51-7,10.57,3.1.57,6.25-.41,9.31-2.62.57-.81,1.12-1.67,1.66-2.53-.55,2-1.69,7.21-1.45,7.33,3,1.49,5.78-1.69,7.73-6.65-.07,1.83.13,7,.38,6.75,1.87-1.73,3.36-4.75,4.58-8.22.27.56.56,1.09.85,1.6l-1.33,7.12h0l-1.33,7.1h10.24l-2.45-13.12c1.78,1.92,3.67,4.08,5.56,4.46.2,0-.51-2.9-.91-3.95a14.12,14.12,0,0,0,6.63,4.44c.52.13-1.4-4.08-1.92-5.11,1.61,1.21,6.22,4.55,7.74,4.09.38-.12-3.1-4.83-3.2-5a1.51,1.51,0,0,1-.11-.22,22.09,22.09,0,0,0,2.7,2.2l0,0c.21.14.42.28.64.41l.06,0,.61.36.1.06.58.3.13.07.55.25.17.07c.17.08.34.14.52.21l.2.07.49.16.24.07.45.12.28.06.42.09.31,0,.38,0c.12,0,.24,0,.36,0l.34,0h.7l.48,0,.22,0h.13a5.24,5.24,0,0,0,.53-.08c.4-.06-4.82-6.83-6.79-10.27l.3.13c2.95,1.3,7.79,3.74,10.54.08C281.39,178.23,281.15,177.9,280.72,177.42Z"/><path class="cls-2" d="M621.87,5.3c-.23.86-.47,1.71-.71,2.56l-.3,1.06-.78,2.67c-.1.34-.2.69-.31,1-.26.89-.53,1.77-.8,2.65-.11.37-.23.74-.35,1.11-.26.84-.53,1.69-.8,2.53-.13.41-.27.81-.4,1.22l-.78,2.36c-.16.46-.33.92-.49,1.39-.24.71-.49,1.42-.74,2.13l-.58,1.56-.69,1.88c-.23.6-.47,1.19-.7,1.78s-.41,1.06-.62,1.57c-.27.68-.55,1.33-.83,2-.17.43-.35.86-.53,1.27-.32.74-.64,1.46-1,2.17-.15.33-.29.66-.44,1-.37.8-.74,1.57-1.12,2.34l-.33.69c-.43.84-.86,1.65-1.29,2.46l-.22.43c-.47.87-1,1.7-1.44,2.53l-.12.21q-.76,1.29-1.56,2.49l-.06.1c-.55.83-1.1,1.63-1.67,2.41l0,0c4.1,0,7.63-6.12,10.83-12.47-1,1.89-3.45,9.77-5,13.76a65.42,65.42,0,0,1-4.39,9.28,54,54,0,0,1-5.08,9.88,9,9,0,0,0,4.77-2.18c-2.43,4.56-13.1,21.63-16.31,25.56-.39.49-.79,1-1.19,1.42a.33.33,0,0,0,.1.15c5.26,2.6,11.7.06,16.4-8.27-4.79,11.75-12.08,19.9-19.49,26.59-.07.06,0,.28.08.32a8.23,8.23,0,0,0,6.72,3.26c-3.93,7.3-9,15.66-12.19,21.23-4.07-5.92-9.92-14.33-13-20.12a9.07,9.07,0,0,0,4.76,2.18h0l.23,0c.51,0-7-12.29-9.69-19.2-1.54-4-4-11.86-5-13.76a62.38,62.38,0,0,0,4.37,7.68l.11.15c.18.25.35.49.53.72l.2.25c.15.19.29.37.45.55l.26.3.39.43.32.31.35.34.36.3.33.26.38.26.31.2.41.22.3.13.44.16.27.07a3.89,3.89,0,0,0,.47.09l.1,0h0a3.89,3.89,0,0,0,.49,0,.32.32,0,0,0,.21-.08c-5-6.86-9.08-16.79-12.76-26.92-3-8.26-6.15-16.78-8.78-25.89-.15.59-.31,1.18-.47,1.77l-.63,2.34-.33,1.2c-.24.85-.47,1.71-.72,2.56l-.3,1c-.26.89-.51,1.78-.77,2.67-.11.35-.21.69-.31,1-.27.89-.53,1.77-.8,2.65-.12.37-.24.74-.35,1.11-.27.85-.53,1.69-.8,2.53l-.41,1.23c-.26.78-.51,1.57-.78,2.35L537.24,74l-.75,2.13-.57,1.56c-.23.63-.46,1.26-.7,1.88l-.69,1.78c-.21.53-.41,1.06-.62,1.58-.27.67-.55,1.33-.83,2-.18.42-.35.85-.53,1.26-.32.74-.65,1.46-1,2.18-.15.32-.29.65-.44,1-.37.8-.75,1.57-1.13,2.34l-.33.69c-.42.84-.85,1.66-1.28,2.46l-.23.43c-.47.87-.95,1.71-1.44,2.53l-.12.22q-.76,1.27-1.56,2.49l-.06.09c-.54.83-1.1,1.64-1.66,2.41l0,0c4.09,0,7.62-6.11,10.82-12.47-1,1.9-3.44,9.77-5,13.76a64.89,64.89,0,0,1-4.4,9.28,53.81,53.81,0,0,1-5.07,9.89,9,9,0,0,0,4.77-2.18c-1.31,2.44-5,8.5-8.61,14.19-2-3.44-4.25-7.26-6.36-11a8.8,8.8,0,0,0,6.6-1.61c.08,0-.08-.32-.11-.34-5.17-2.41-9.74-7.76-13.41-14.28-.39-.69-.76-1.39-1.13-2.11-.21-.39-.42-.79-.62-1.2l-.72-1.48c-.17-.34-.33-.67-.49-1-.32-.69-.64-1.39-.95-2.09l-.22-.48q-.6-1.38-1.2-2.79c-.84-2-1.65-4-2.47-6.06-.24-.6-.56-1.25-.84-1.93a28.23,28.23,0,0,0,1.86,3.1l0,0c.31.45.63.88.95,1.29l.08.09c.3.38.61.75.93,1.09l.13.14c.3.31.6.62.91.9l.19.17c.28.26.57.51.86.73l.26.19c.27.2.54.4.81.58l.32.19c.25.15.51.3.76.43l.38.19.7.31c.15.06.3.1.45.15s.42.15.64.21l.5.12.58.11.56.07.51,0c.21,0,.41,0,.61,0l.46,0,.65-.08.39-.07c.23,0,.46-.1.69-.16l.34-.1.72-.26.16-.06h0l.5-.21c.69-.35-12.25-17.42-17.41-27.13a9.09,9.09,0,0,0,4.76,2.19h0a2,2,0,0,0,.24,0c.51,0-7-12.29-9.7-19.2-1.53-4-4-11.87-5-13.76a62.23,62.23,0,0,0,4.38,7.67.91.91,0,0,0,.11.16l.52.71.2.25.45.56.26.3.4.43.31.31.36.33.35.31.33.25.39.27.31.19a3.23,3.23,0,0,0,.41.22l.29.13a3.89,3.89,0,0,0,.44.16l.28.08a3.55,3.55,0,0,0,.47.09l.09,0h0a4,4,0,0,0,.49,0,.35.35,0,0,0,.22-.08c-5-6.87-9.08-16.79-12.77-26.93C479.1,17.63,476,9.11,473.33,0l-.48,1.77q-.3,1.17-.63,2.34c-.1.4-.22.8-.33,1.19-.23.86-.47,1.71-.71,2.56-.1.36-.2.71-.31,1.06-.25.89-.51,1.78-.77,2.67l-.31,1c-.26.89-.53,1.77-.8,2.65-.11.37-.23.74-.35,1.11-.26.84-.53,1.69-.8,2.53-.13.41-.27.81-.4,1.22l-.78,2.36c-.16.46-.33.92-.49,1.39L465.43,26l-.58,1.56-.69,1.88c-.23.6-.47,1.19-.7,1.78s-.41,1.06-.62,1.57c-.27.68-.55,1.33-.83,2-.18.43-.35.86-.53,1.27-.32.74-.64,1.46-1,2.17-.15.33-.29.66-.44,1-.37.8-.74,1.57-1.12,2.34-.11.22-.22.46-.34.69-.42.84-.85,1.65-1.28,2.46-.08.14-.15.29-.22.43-.48.87-1,1.7-1.44,2.53a2.39,2.39,0,0,1-.13.21c-.51.86-1,1.69-1.55,2.49l-.06.1c-.55.83-1.1,1.63-1.67,2.41l.05,0c4.1,0,7.63-6.12,10.83-12.47-1,1.89-3.45,9.77-5,13.76a66.54,66.54,0,0,1-4.39,9.28,54,54,0,0,1-5.08,9.88,9,9,0,0,0,4.77-2.18c-2.43,4.56-13.1,21.63-16.31,25.56-.39.49-.79,1-1.19,1.42a.33.33,0,0,0,.1.15c5.26,2.6,11.7.06,16.4-8.27a67,67,0,0,1-14.09,21.36c-2.2-4-6.48-11.56-8.34-16.41-1.54-4-4-11.86-5-13.76a61.83,61.83,0,0,0,4.37,7.68l.11.15c.18.25.35.49.53.72.06.08.13.16.19.25l.45.55.27.3.39.43.32.31c.11.12.23.23.35.34l.36.3.32.26.39.26.31.19.41.23.3.13.43.16.28.07a3.89,3.89,0,0,0,.47.09l.09,0h0a3.88,3.88,0,0,0,.48,0,.33.33,0,0,0,.22-.08c-5-6.86-9.08-16.79-12.77-26.93-3-8.25-6.14-16.77-8.77-25.88-.15.59-.31,1.18-.47,1.77l-.63,2.34-.33,1.2-.72,2.56-.3,1.05c-.26.89-.51,1.78-.78,2.67-.1.35-.2.69-.31,1-.26.89-.53,1.77-.8,2.65-.11.37-.23.74-.35,1.11-.26.85-.52,1.69-.79,2.53-.14.41-.28.82-.41,1.23l-.78,2.35-.48,1.39-.75,2.13c-.19.53-.38,1-.58,1.56s-.45,1.26-.69,1.88-.46,1.19-.7,1.78-.41,1.06-.61,1.58l-.84,2c-.17.42-.35.85-.53,1.26-.31.74-.64,1.46-1,2.18l-.43,1c-.37.8-.75,1.57-1.13,2.34l-.33.69q-.63,1.26-1.29,2.46l-.22.43c-.47.87-.95,1.71-1.44,2.53l-.12.22c-.51.85-1,1.68-1.56,2.48l-.06.1c-.55.83-1.1,1.64-1.67,2.41,0,0,0,0,.06,0,4.09,0,7.62-6.11,10.82-12.47-1,1.9-3.45,9.77-5,13.76a65.42,65.42,0,0,1-4.39,9.28,53.82,53.82,0,0,1-5.08,9.89,9,9,0,0,0,4.77-2.19c-1,1.87-3.37,5.84-6.05,10.15a168.7,168.7,0,0,1-7.81-18.67c-3-8.26-6.15-16.78-8.77-25.89-.16.59-.32,1.18-.47,1.77L371,81.65c-.11.4-.22.8-.34,1.2-.23.85-.47,1.71-.71,2.56l-.3,1c-.26.89-.51,1.79-.78,2.67-.1.35-.2.69-.31,1-.26.88-.53,1.76-.8,2.64-.11.37-.23.74-.35,1.11-.26.85-.52,1.69-.8,2.53-.13.41-.27.82-.4,1.23l-.78,2.35c-.16.47-.32.93-.49,1.39-.24.71-.49,1.43-.74,2.13-.19.53-.38,1-.58,1.57l-.69,1.87c-.23.6-.46,1.19-.7,1.78s-.41,1.06-.62,1.58c-.27.67-.55,1.33-.83,2-.17.42-.35.85-.53,1.27-.32.73-.64,1.45-1,2.17-.14.32-.29.66-.44,1-.36.79-.74,1.56-1.12,2.33-.11.23-.22.47-.33.69q-.63,1.26-1.29,2.46l-.22.43c-.47.87-.95,1.71-1.44,2.53l-.12.22q-.76,1.27-1.56,2.49l-.06.09c-.55.84-1.1,1.64-1.67,2.41l0,0c4.1,0,7.63-6.11,10.83-12.46-1,1.89-3.45,9.76-5,13.76a65.28,65.28,0,0,1-4.39,9.27,53.82,53.82,0,0,1-5.08,9.89,9,9,0,0,0,4.77-2.18c-.62,1.16-1.79,3.16-3.23,5.53-4.8-2.59-9.05-7.68-12.51-13.82-.39-.69-.76-1.4-1.13-2.11l-.62-1.2-.72-1.48-.49-1c-.32-.69-.64-1.39-1-2.1-.07-.16-.15-.31-.22-.47q-.6-1.38-1.2-2.79c-.84-2-1.65-4-2.47-6.07-.24-.6-.56-1.25-.84-1.93a28.4,28.4,0,0,0,1.86,3.11l0,0c.31.45.63.88.95,1.28l.08.09c.3.39.62.75.93,1.1l.13.13c.3.32.6.62.91.91l.19.16c.28.26.57.51.86.74l.26.19c.27.2.54.4.81.57l.32.19c.25.16.51.31.76.44l.38.18c.24.11.47.22.7.31l.45.16.64.2.5.12.58.12.56.06.51,0h.61l.46,0a5,5,0,0,0,.65-.08l.39-.06c.23-.05.46-.1.69-.17l.34-.1a6.93,6.93,0,0,0,.72-.26l.16-.06h0l.5-.21c.69-.35-12.25-17.41-17.41-27.12a9,9,0,0,0,4.76,2.18h0l.23,0c.51,0-7-12.29-9.7-19.19-1.53-4-4-11.87-5-13.76A61.67,61.67,0,0,0,322,80.25l.11.15c.17.25.35.49.52.72l.2.25.45.55.26.3.4.43.31.32.36.33.35.3.33.26.39.27.31.19c.13.08.27.15.41.22l.29.13.44.16.28.07.47.1H328a2.77,2.77,0,0,0,.49,0,.35.35,0,0,0,.22-.08c-5-6.86-9.08-16.79-12.77-26.92-3-8.26-6.15-16.78-8.77-25.89-.16.59-.32,1.18-.47,1.77L306,36.26c-.11.4-.23.8-.34,1.2-.23.85-.47,1.71-.71,2.56l-.3,1q-.39,1.35-.78,2.67c-.1.35-.21.69-.31,1-.26.88-.53,1.76-.8,2.64-.11.37-.23.74-.35,1.11-.26.85-.53,1.69-.8,2.53-.13.41-.27.82-.4,1.23l-.78,2.35c-.16.47-.33.93-.49,1.39-.24.71-.49,1.43-.74,2.13-.19.53-.39,1-.58,1.57L298,61.6c-.23.6-.47,1.19-.7,1.78s-.41,1.06-.62,1.58c-.27.67-.55,1.33-.83,2-.17.42-.35.85-.53,1.27-.32.73-.64,1.45-1,2.17-.15.32-.29.66-.44,1-.37.79-.74,1.56-1.12,2.33-.11.23-.22.47-.34.69-.42.84-.85,1.66-1.28,2.46-.07.15-.15.29-.22.43-.48.87-1,1.71-1.44,2.53a2.53,2.53,0,0,1-.13.22c-.5.86-1,1.68-1.55,2.49l-.06.09c-.55.84-1.1,1.64-1.67,2.41l.05,0c4.1,0,7.63-6.11,10.83-12.46-1,1.89-3.45,9.76-5,13.76a65.28,65.28,0,0,1-4.39,9.27,53.82,53.82,0,0,1-5.08,9.89,9,9,0,0,0,4.77-2.18c-2.43,4.56-13.1,21.62-16.31,25.56-.39.49-.79,1-1.19,1.42,0,0,.05.11.1.14,5.26,2.6,11.7.06,16.4-8.27-4.79,11.75-12.08,19.91-19.49,26.6-.07,0,.05.27.08.31a8.2,8.2,0,0,0,6.72,3.26c-5,9.22-11.68,20.1-14.28,25a48.71,48.71,0,0,1-5.42-7.85c-.38-.69-.75-1.4-1.13-2.11l-.61-1.2c-.24-.49-.49-1-.72-1.48-.17-.34-.33-.68-.49-1-.32-.69-.64-1.39-.95-2.1-.08-.15-.15-.31-.22-.47q-.6-1.38-1.2-2.79c-.85-2-1.65-4.05-2.47-6.06-.24-.61-.56-1.26-.84-1.93a31,31,0,0,0,1.85,3.1l0,.05c.31.45.63.88,1,1.28l.07.09c.31.39.62.75.94,1.1l.13.13c.3.32.6.63.9.91l.2.17c.28.25.57.5.86.73.08.07.17.12.26.19.27.2.54.4.81.57l.32.2c.25.15.5.3.76.43s.25.12.38.18.47.22.7.31l.45.16c.21.07.42.15.64.2a4.05,4.05,0,0,0,.5.12l.58.12c.18,0,.37,0,.56.06a4.38,4.38,0,0,0,.51,0h.61a3.39,3.39,0,0,0,.45,0c.22,0,.44,0,.66-.07l.39-.07c.23,0,.46-.1.69-.16l.34-.1.72-.27.15-.05h0c.16-.07.33-.13.49-.21.69-.35-12.24-17.41-17.41-27.12a9.06,9.06,0,0,0,4.77,2.18h0l.24,0c.51.05-7-12.29-9.7-19.19-1.54-4-4-11.87-5-13.76a63,63,0,0,0,4.38,7.67l.11.16.52.71.2.25.45.55.26.3c.13.15.26.29.4.43l.31.32.36.33c.11.11.23.2.35.3l.33.26.39.27.31.19c.13.08.27.15.41.22l.29.13a3.89,3.89,0,0,0,.44.16l.28.07a3.78,3.78,0,0,0,.46.1h.09a4.07,4.07,0,0,0,.49,0,.36.36,0,0,0,.22-.09c-5-6.86-9.08-16.78-12.77-26.92-3-8.26-6.15-16.78-8.77-25.88L224.09,63c-.21.77-.41,1.55-.63,2.33l-.33,1.2c-.23.85-.47,1.71-.71,2.56-.1.35-.21.7-.31,1.06-.25.89-.51,1.78-.77,2.66-.1.35-.21.69-.31,1-.27.88-.53,1.77-.8,2.64-.12.38-.23.74-.35,1.11-.26.85-.53,1.69-.8,2.53-.13.41-.27.82-.41,1.23-.25.79-.51,1.57-.78,2.35-.15.47-.32.93-.48,1.39-.25.71-.49,1.43-.74,2.13-.19.53-.39,1-.58,1.57l-.69,1.87c-.23.6-.47,1.19-.7,1.78s-.41,1.06-.62,1.58c-.27.67-.55,1.33-.83,2-.18.42-.35.85-.53,1.27-.32.74-.65,1.45-1,2.17-.15.32-.29.66-.44,1-.37.79-.75,1.56-1.12,2.33-.12.23-.22.47-.34.69-.42.84-.85,1.66-1.28,2.47l-.23.43c-.47.86-1,1.7-1.43,2.52l-.13.22c-.51.86-1,1.69-1.55,2.49l-.06.09c-.55.84-1.11,1.64-1.67,2.41,0,0,0,0,.05,0,4.09,0,7.63-6.12,10.83-12.47-1,1.89-3.45,9.76-5,13.76a68.12,68.12,0,0,1-3.27,7.23c-2.82-4.2-5.61-8.54-7.43-12a9,9,0,0,0,4.76,2.19h0l.23,0c.51,0-7-12.29-9.69-19.2-1.54-4-4-11.87-5-13.76a63.13,63.13,0,0,0,4.37,7.68l.11.15c.18.25.35.48.53.71s.13.17.2.26.29.37.45.55l.26.3.39.43.32.31.35.34.36.3.33.25a4.44,4.44,0,0,0,.38.27l.31.19.41.22.3.13a3.34,3.34,0,0,0,.44.17l.27.07a3.89,3.89,0,0,0,.47.09l.1,0h0a3.89,3.89,0,0,0,.49,0,.32.32,0,0,0,.21-.08c-5-6.87-9.08-16.79-12.76-26.93-3-8.25-6.15-16.77-8.78-25.88-.15.59-.31,1.18-.47,1.77l-.63,2.34-.33,1.2c-.24.85-.47,1.7-.72,2.56l-.3,1c-.26.89-.51,1.78-.77,2.67-.11.35-.21.69-.31,1-.27.89-.53,1.77-.8,2.65-.12.37-.24.74-.35,1.11-.27.84-.53,1.69-.8,2.53-.14.41-.27.82-.41,1.23-.26.78-.51,1.57-.78,2.35l-.48,1.39-.75,2.13L170.06,67c-.23.63-.46,1.26-.7,1.88l-.69,1.78c-.21.52-.41,1.06-.62,1.57-.27.68-.55,1.33-.83,2-.18.42-.35.85-.53,1.26-.32.74-.65,1.46-1,2.18-.15.32-.29.65-.44,1-.37.8-.75,1.57-1.13,2.34l-.33.69c-.42.84-.85,1.65-1.28,2.46l-.23.43c-.47.87-.95,1.71-1.44,2.53l-.12.22c-.51.85-1,1.68-1.56,2.48l-.06.1c-.54.83-1.1,1.64-1.66,2.41l.05,0c4.09,0,7.62-6.11,10.82-12.47-1,1.89-3.44,9.77-5,13.76a65.41,65.41,0,0,1-4.4,9.28,53.71,53.71,0,0,1-5.07,9.88,9,9,0,0,0,4.76-2.18c-2.42,4.56-13.09,21.63-16.3,25.56l-.12.15A157.66,157.66,0,0,1,133.57,116c-3-8.26-6.15-16.78-8.78-25.89-.15.59-.31,1.18-.47,1.77l-.63,2.34-.33,1.2c-.24.85-.47,1.71-.72,2.56l-.3,1.05c-.26.89-.51,1.79-.77,2.67-.11.35-.21.69-.31,1-.27.88-.53,1.76-.8,2.64-.12.37-.24.74-.35,1.11-.27.85-.53,1.69-.8,2.53-.14.41-.27.82-.41,1.23-.26.78-.51,1.57-.78,2.35l-.48,1.39c-.25.71-.5,1.43-.75,2.13-.19.53-.38,1-.57,1.56s-.46,1.26-.7,1.88l-.69,1.78c-.21.53-.41,1.06-.62,1.58s-.56,1.33-.83,2c-.18.42-.35.85-.53,1.27-.32.73-.65,1.45-1,2.17-.15.32-.29.66-.44,1-.37.79-.75,1.56-1.13,2.33l-.33.69c-.42.84-.85,1.66-1.28,2.46l-.23.43c-.47.87-.95,1.71-1.44,2.53L107,138q-.77,1.27-1.56,2.49l-.06.09c-.54.84-1.1,1.64-1.66,2.41l0,0c4.09,0,7.62-6.11,10.82-12.46-1,1.89-3.44,9.76-5,13.76a65.27,65.27,0,0,1-4.4,9.27c-.19.5-.39,1-.6,1.48-1.29-2.23-2.61-4.52-3.89-6.79a8.8,8.8,0,0,0,6.6-1.62c.08,0-.08-.31-.11-.33-5.17-2.42-9.74-7.76-13.41-14.28-.39-.69-.76-1.4-1.13-2.11-.21-.39-.42-.79-.62-1.2l-.72-1.48c-.17-.34-.33-.68-.49-1-.32-.69-.64-1.39-1-2.09l-.22-.48-1.2-2.79c-.85-2-1.65-4.05-2.47-6.06-.24-.61-.56-1.25-.84-1.93A31,31,0,0,0,87,116l0,0c.31.45.63.88,1,1.28a.7.7,0,0,0,.08.1c.3.38.61.75.93,1.09l.13.14c.3.31.6.62.91.9l.19.17c.28.26.57.5.86.73a2.48,2.48,0,0,0,.26.19c.27.2.54.4.81.57l.32.2c.25.15.5.3.76.43l.38.18c.24.11.47.22.7.31l.45.16c.21.08.42.15.64.21l.5.12.58.11a5.32,5.32,0,0,0,.56.06l.51,0h.61l.45,0,.66-.08.39-.07c.23,0,.46-.1.69-.16l.34-.1.72-.26a.76.76,0,0,1,.16-.06h0l.5-.21c.68-.34-12.25-17.41-17.41-27.12a9,9,0,0,0,4.76,2.18h0l.24,0c.51,0-7-12.3-9.7-19.2-1.53-4-4-11.87-5-13.76a63,63,0,0,0,4.38,7.67.91.91,0,0,0,.11.16l.52.71.2.25c.15.19.3.38.45.55l.26.31.4.42.31.32.36.33c.12.11.23.21.35.3l.33.26c.13.1.26.18.39.27l.31.19c.13.08.27.15.41.22l.29.13a3.89,3.89,0,0,0,.44.16l.28.08a3.55,3.55,0,0,0,.47.09l.09,0h0c.16,0,.33,0,.49,0a.31.31,0,0,0,.22-.09C81,69.72,77,59.8,73.28,49.66c-3-8.26-6.15-16.77-8.77-25.88L64,25.55q-.3,1.17-.63,2.34c-.1.4-.22.79-.33,1.19-.23.86-.47,1.71-.71,2.56-.1.36-.2.71-.31,1.06-.25.89-.51,1.78-.77,2.67-.1.34-.21.68-.31,1-.26.88-.53,1.77-.8,2.65-.11.37-.23.74-.35,1.11-.26.84-.53,1.69-.8,2.52-.13.42-.27.82-.4,1.23-.26.79-.52,1.58-.78,2.35-.16.47-.33.93-.49,1.39-.25.72-.49,1.43-.74,2.13-.19.53-.39,1-.58,1.57l-.69,1.88c-.23.6-.47,1.18-.7,1.78s-.41,1.05-.62,1.57c-.27.68-.55,1.33-.83,2-.18.42-.35.85-.53,1.27-.32.74-.64,1.45-1,2.17-.15.33-.29.66-.44,1-.37.79-.74,1.57-1.12,2.33-.11.23-.22.47-.34.7-.42.84-.85,1.65-1.28,2.46l-.23.43c-.47.86-1,1.7-1.43,2.52a1.59,1.59,0,0,1-.13.22c-.51.86-1,1.69-1.55,2.49l-.06.1c-.55.83-1.11,1.63-1.67,2.4,0,0,0,0,.05,0,4.1,0,7.63-6.12,10.83-12.47-1,1.89-3.45,9.77-5,13.76A67.08,67.08,0,0,1,45,87.24a54,54,0,0,1-5.08,9.88,9,9,0,0,0,4.77-2.18c-1.66,3.11-7.13,12-11.47,18.62a54.58,54.58,0,0,1-3.39-5.3c-.39-.69-.76-1.39-1.13-2.11-.2-.39-.41-.79-.61-1.2s-.49-1-.73-1.48l-.48-1c-.33-.69-.64-1.39-1-2.09l-.21-.48q-.61-1.38-1.2-2.79c-.85-2-1.65-4-2.48-6.06-.24-.6-.55-1.25-.84-1.93A29.89,29.89,0,0,0,23,92.2a.1.1,0,0,0,0,0c.31.45.62.88.94,1.29l.08.09c.31.38.62.75.94,1.09l.13.14c.3.31.6.62.9.9l.19.17c.29.26.58.51.87.73l.25.19c.27.2.54.4.81.58l.33.19c.25.15.5.3.75.43l.39.19.7.31c.15.06.3.1.45.15s.42.15.63.21l.51.12.57.11.56.07.52,0c.2,0,.41,0,.61,0l.45,0,.65-.08.4-.07c.23,0,.46-.1.69-.16l.34-.1.71-.26.16-.06h0c.17-.07.34-.13.5-.21.69-.35-12.24-17.42-17.41-27.13a9.09,9.09,0,0,0,4.76,2.19h0l.23,0c.51,0-7-12.29-9.69-19.2-1.54-4-4-11.87-5-13.76a62.22,62.22,0,0,0,4.37,7.67l.11.16c.18.24.35.48.53.71a2.43,2.43,0,0,0,.2.25c.15.19.29.38.45.56l.26.3.39.43.32.31.35.33.36.31.33.25A3.28,3.28,0,0,0,19,52l.31.19.41.22.3.13a3.29,3.29,0,0,0,.44.16l.27.08a3.89,3.89,0,0,0,.47.09l.1,0h0a3.89,3.89,0,0,0,.49,0,.32.32,0,0,0,.21-.08C17,45.94,12.93,36,9.25,25.88,6.25,17.63,3.1,9.11.47,0,.32.59.16,1.18,0,1.77V230.61H622.84V1.77l-.63,2.34C622.1,4.51,622,4.91,621.87,5.3Z"/><path class="cls-3" d="M622.84,46.54c-.16-.59-.74-1.78-.89-2.37-2.63,9.11-5.79,18-8.79,26.26-3.69,10.14-7.74,20.06-12.77,26.93a.35.35,0,0,0,.22.08,4,4,0,0,0,.49,0h0l.09,0a3.55,3.55,0,0,0,.47-.09l.28-.08a3.89,3.89,0,0,0,.44-.16l.29-.13a3.23,3.23,0,0,0,.41-.22l.31-.19a4.56,4.56,0,0,0,.39-.27l.33-.25.35-.31c.12-.1.24-.22.36-.33l.31-.31.4-.43.26-.3.45-.56.2-.25.52-.71a.91.91,0,0,0,.11-.16A62.23,62.23,0,0,0,611.44,85c-1,1.89-3.45,9.77-5,13.76-2.66,6.91-10.21,19.24-9.7,19.2l.24,0h0a9.09,9.09,0,0,0,4.76-2.19c-5.16,9.71-18.1,26.78-17.41,27.13l.5.21h0l.16.06.72.26.34.1c.23.06.46.12.69.16l.39.07.65.08.46,0h.61l.51,0,.56-.07.58-.11.5-.12c.22-.06.43-.13.64-.21l.45-.15.7-.31.38-.19c.26-.13.51-.28.76-.43l.32-.19c.27-.18.54-.38.81-.58l.26-.19c.29-.22.58-.47.86-.73l.19-.17c.31-.28.61-.59.91-.9l.13-.14c.32-.34.63-.71.93-1.09l.08-.09c.32-.41.64-.84,1-1.29l0-.05a29.87,29.87,0,0,0,1.85-3.1c-.28.68-.6,1.33-.84,1.93-.82,2-1.63,4.06-2.47,6.06l-1.2,2.79-.22.48c-.31.7-.63,1.4-.95,2.09-.16.35-.32.68-.49,1l-.72,1.48c-.2.41-.41.81-.62,1.2-.37.72-.74,1.42-1.13,2.11a52.75,52.75,0,0,1-3.39,5.3c-4.34-6.61-9.81-15.51-11.46-18.62a9,9,0,0,0,4.77,2.18,54,54,0,0,1-5.08-9.88,66,66,0,0,1-4.39-9.28c-1.53-4-4-11.87-5-13.76,3.2,6.35,6.73,12.5,10.82,12.47,0,0,0,0,.06,0-.57-.77-1.13-1.57-1.67-2.4l-.06-.1q-.79-1.2-1.56-2.49l-.12-.22q-.73-1.23-1.44-2.52c-.08-.14-.15-.29-.22-.43-.44-.81-.87-1.62-1.29-2.46l-.33-.7c-.38-.76-.76-1.54-1.13-2.33-.14-.32-.29-.65-.43-1-.33-.72-.66-1.43-1-2.17-.17-.42-.35-.85-.53-1.27-.27-.66-.55-1.31-.83-2-.21-.52-.41-1-.61-1.57s-.47-1.18-.7-1.78-.46-1.25-.69-1.88-.39-1-.58-1.57q-.37-1-.75-2.13l-.48-1.39c-.26-.77-.52-1.56-.78-2.35l-.41-1.23c-.27-.83-.53-1.68-.8-2.52-.11-.37-.23-.74-.34-1.11-.28-.88-.54-1.77-.8-2.65-.11-.35-.21-.69-.32-1-.26-.89-.51-1.78-.77-2.67l-.3-1.06-.72-2.56L559,72.44l-.63-2.34c-.16-.59-.32-1.18-.47-1.77-2.63,9.11-5.77,17.62-8.77,25.88-3.69,10.14-7.75,20.06-12.77,26.92a.29.29,0,0,0,.22.09c.16,0,.32,0,.48,0h0l.09,0a3.89,3.89,0,0,0,.47-.09l.28-.08a3.75,3.75,0,0,0,.43-.16l.3-.13.41-.22.31-.19c.13-.09.26-.17.38-.27l.33-.26q.18-.13.36-.3c.12-.1.24-.22.35-.33s.21-.21.32-.32.26-.28.39-.42l.27-.31c.15-.17.3-.36.45-.55s.13-.16.19-.25.35-.47.53-.71l.11-.16a63,63,0,0,0,4.37-7.67c-.94,1.89-3.44,9.77-5,13.76-2.65,6.9-10.2,19.24-9.69,19.2l.23,0h0a9,9,0,0,0,4.76-2.18c-5.17,9.71-18.1,26.78-17.41,27.12.16.08.33.14.5.21h0a1,1,0,0,1,.16.06l.72.26.34.1c.22.06.45.12.68.16l.4.07.65.08h.45c.21,0,.41,0,.61,0a4.55,4.55,0,0,0,.52,0l.56-.06.57-.11.51-.12.64-.21.44-.16c.24-.09.47-.2.7-.31l.39-.18c.25-.13.5-.28.75-.43l.33-.2c.27-.17.54-.37.81-.57l.26-.19c.29-.23.57-.47.86-.73l.19-.17c.3-.28.61-.59.9-.9l.14-.14c.31-.34.62-.71.93-1.09l.08-.1c.32-.4.64-.83,1-1.28l0-.05a29.2,29.2,0,0,0,1.86-3.1c-.29.68-.6,1.32-.84,1.93-.83,2-1.63,4.06-2.48,6.06q-.58,1.41-1.2,2.79l-.21.48c-.31.7-.63,1.4-1,2.09l-.49,1c-.24.5-.48,1-.73,1.48s-.4.81-.61,1.2c-.37.71-.74,1.42-1.13,2.11-3.67,6.52-8.24,11.86-13.41,14.28,0,0-.2.29-.11.33a8.79,8.79,0,0,0,6.59,1.62c-1.27,2.27-2.6,4.56-3.89,6.79l-.6-1.48a66.39,66.39,0,0,1-4.39-9.27c-1.53-4-4-11.87-5-13.76,3.2,6.35,6.73,12.5,10.83,12.46l0,0c-.56-.77-1.12-1.57-1.67-2.41L517,185c-.52-.81-1-1.64-1.55-2.49a2.53,2.53,0,0,1-.13-.22c-.48-.82-1-1.66-1.43-2.53l-.23-.43c-.43-.8-.86-1.62-1.28-2.46-.12-.22-.23-.46-.34-.69-.38-.77-.75-1.54-1.12-2.33-.15-.32-.29-.66-.44-1-.33-.72-.65-1.44-1-2.17-.18-.42-.35-.85-.53-1.27-.28-.66-.56-1.32-.83-2-.21-.52-.41-1-.62-1.58s-.47-1.18-.7-1.78l-.69-1.88c-.19-.52-.39-1-.58-1.56-.25-.7-.49-1.42-.74-2.13-.16-.46-.33-.92-.49-1.39l-.78-2.35c-.13-.41-.27-.82-.4-1.23-.27-.84-.54-1.68-.8-2.53-.12-.37-.24-.74-.35-1.11-.27-.88-.54-1.76-.8-2.64-.1-.35-.21-.69-.31-1-.26-.88-.52-1.78-.77-2.67-.11-.35-.21-.7-.31-1.05-.24-.85-.48-1.71-.71-2.56-.11-.4-.23-.8-.33-1.2q-.33-1.17-.63-2.34l-.48-1.77c-2.62,9.11-5.77,17.63-8.77,25.89a156.27,156.27,0,0,1-8.68,20.33l-.11-.15c-3.21-3.93-13.88-21-16.31-25.56a9,9,0,0,0,4.77,2.18,53.72,53.72,0,0,1-5.08-9.88A66.54,66.54,0,0,1,459,138.2c-1.53-4-4-11.87-5-13.76,3.2,6.36,6.73,12.5,10.83,12.47l.05,0c-.57-.77-1.12-1.58-1.67-2.41l-.06-.1c-.53-.8-1-1.63-1.55-2.48l-.13-.22c-.48-.82-1-1.66-1.43-2.53l-.23-.43c-.43-.81-.86-1.62-1.28-2.46-.12-.23-.23-.46-.34-.69-.38-.77-.75-1.54-1.12-2.34-.15-.32-.29-.65-.44-1-.33-.72-.65-1.44-1-2.18-.18-.41-.35-.84-.53-1.26-.28-.67-.56-1.32-.83-2-.21-.51-.41-1-.62-1.57s-.47-1.18-.7-1.78l-.69-1.88-.58-1.56L451,107.9c-.16-.47-.33-.93-.49-1.39l-.78-2.35c-.13-.41-.27-.82-.4-1.23-.27-.84-.54-1.69-.8-2.53-.12-.37-.24-.74-.35-1.11-.27-.88-.54-1.76-.8-2.65-.1-.34-.21-.68-.31-1-.26-.89-.52-1.78-.77-2.67-.11-.35-.21-.7-.31-1-.24-.86-.48-1.71-.71-2.56-.11-.4-.23-.8-.33-1.2q-.33-1.17-.63-2.34L443.87,84c-2.62,9.11-5.77,17.63-8.77,25.88-3.69,10.14-7.74,20.06-12.77,26.93a.35.35,0,0,0,.22.08,4,4,0,0,0,.49,0h0l.09,0a3.55,3.55,0,0,0,.47-.09l.28-.07a4,4,0,0,0,.44-.17l.29-.13a3.23,3.23,0,0,0,.41-.22l.31-.19.39-.27.33-.25.35-.3.36-.34.31-.31c.13-.14.27-.28.4-.43l.26-.3.45-.55.2-.26c.17-.23.35-.46.52-.71l.11-.15a63.13,63.13,0,0,0,4.38-7.68c-.95,1.89-3.45,9.77-5,13.76-2.66,6.91-10.21,19.24-9.7,19.2l.24,0h0a9,9,0,0,0,4.76-2.19c-1.82,3.43-4.61,7.77-7.43,12a68.14,68.14,0,0,1-3.26-7.23c-1.53-4-4-11.87-5-13.76,3.2,6.35,6.73,12.5,10.82,12.47,0,0,0,0,.06,0-.57-.77-1.12-1.57-1.67-2.41l-.06-.09c-.53-.81-1.05-1.63-1.56-2.49l-.12-.22q-.74-1.23-1.44-2.52l-.22-.43c-.44-.81-.87-1.63-1.29-2.47-.11-.22-.22-.46-.33-.69-.38-.77-.76-1.54-1.12-2.33-.15-.32-.3-.66-.44-1-.33-.72-.66-1.44-1-2.17-.18-.42-.36-.85-.53-1.27-.28-.66-.56-1.32-.83-2-.21-.52-.42-1-.62-1.58s-.47-1.18-.7-1.78l-.69-1.87c-.2-.52-.39-1-.58-1.57-.25-.7-.5-1.42-.74-2.13-.17-.46-.33-.92-.49-1.39l-.78-2.35c-.13-.41-.27-.82-.41-1.23-.27-.84-.53-1.68-.79-2.53-.12-.37-.24-.73-.35-1.11-.27-.87-.54-1.76-.8-2.64-.11-.35-.21-.69-.31-1-.27-.88-.52-1.77-.78-2.66l-.3-1.06-.72-2.56-.33-1.2-.63-2.33c-.15-.59-.32-1.18-.47-1.77-2.62,9.1-5.77,17.62-8.77,25.88-3.69,10.14-7.75,20.06-12.77,26.92a.34.34,0,0,0,.22.09,4.28,4.28,0,0,0,.49,0h.08a3.94,3.94,0,0,0,.47-.1l.28-.07c.14,0,.29-.1.44-.16l.29-.13.41-.22.31-.19.39-.27.32-.26c.12-.1.24-.19.36-.3l.35-.33.32-.32.39-.43c.09-.1.18-.19.27-.3l.45-.55c.06-.08.13-.16.19-.25s.35-.47.53-.71a.91.91,0,0,1,.11-.16,61.67,61.67,0,0,0,4.37-7.67c-.94,1.89-3.44,9.76-5,13.76-2.65,6.9-10.2,19.24-9.69,19.19l.23,0h0a9,9,0,0,0,4.76-2.18c-5.16,9.71-18.1,26.77-17.41,27.12.16.08.33.14.5.21h0l.16,0,.72.27.34.1c.23.06.45.12.69.16l.39.07c.22,0,.43.06.65.07a3.39,3.39,0,0,0,.45,0c.21,0,.41,0,.61,0a4.38,4.38,0,0,0,.52,0l.56-.06.57-.12a4.7,4.7,0,0,0,.51-.12c.21,0,.42-.13.64-.2l.45-.16c.23-.09.46-.2.69-.31s.26-.11.39-.18.5-.28.76-.43l.32-.2c.27-.17.54-.37.81-.57l.26-.19c.29-.23.57-.48.86-.73l.19-.17c.31-.28.61-.59.9-.91l.14-.13c.31-.35.62-.71.93-1.1l.08-.09c.32-.4.64-.83.95-1.28l0-.05a29.2,29.2,0,0,0,1.86-3.1c-.29.67-.6,1.32-.84,1.93-.83,2-1.63,4.06-2.48,6.06q-.59,1.41-1.2,2.79l-.21.47c-.31.71-.63,1.41-.95,2.1l-.49,1c-.24.5-.48,1-.73,1.48s-.4.8-.61,1.2c-.37.71-.74,1.42-1.13,2.11a48.67,48.67,0,0,1-5.41,7.85c-2.6-4.86-9.33-15.74-14.28-25a8.2,8.2,0,0,0,6.71-3.26s.15-.26.09-.31c-7.41-6.69-14.71-14.85-19.49-26.6,4.69,8.33,11.13,10.87,16.4,8.27a.48.48,0,0,0,.09-.14c-.39-.45-.79-.93-1.19-1.42-3.21-3.94-13.88-21-16.3-25.56a9,9,0,0,0,4.76,2.18,53.81,53.81,0,0,1-5.07-9.89,65.27,65.27,0,0,1-4.4-9.27c-1.53-4-4-11.87-5-13.76,3.2,6.35,6.73,12.5,10.82,12.46l0,0c-.56-.77-1.12-1.57-1.66-2.41l-.06-.09c-.53-.81-1.05-1.63-1.56-2.49l-.12-.22c-.49-.82-1-1.66-1.44-2.53l-.23-.43c-.43-.8-.86-1.62-1.28-2.46-.11-.22-.22-.46-.33-.69-.38-.77-.76-1.54-1.13-2.33-.15-.32-.29-.66-.44-1-.32-.72-.65-1.44-1-2.17-.18-.42-.35-.85-.53-1.27-.28-.66-.56-1.32-.83-2s-.41-1.05-.62-1.58l-.69-1.78c-.24-.62-.47-1.25-.7-1.87l-.57-1.57c-.25-.7-.5-1.42-.75-2.13L322,99.19c-.27-.78-.52-1.56-.78-2.35-.14-.41-.27-.82-.41-1.23-.27-.84-.53-1.68-.8-2.53-.11-.37-.23-.74-.35-1.11-.27-.88-.53-1.76-.8-2.64-.1-.35-.2-.69-.31-1-.26-.88-.51-1.77-.77-2.67l-.3-1.05c-.25-.85-.48-1.71-.72-2.56l-.33-1.2-.63-2.34c-.16-.59-.32-1.18-.47-1.77-2.63,9.11-5.78,17.63-8.78,25.89-3.68,10.13-7.74,20.06-12.76,26.92a.32.32,0,0,0,.21.08,2.63,2.63,0,0,0,.49,0h.09l.47-.1.27-.07.44-.16.3-.13.41-.22.31-.19.38-.27.33-.26.36-.3.35-.33.32-.32.39-.43.27-.3.44-.55.2-.25c.18-.23.35-.47.53-.72l.11-.15a63,63,0,0,0,4.37-7.67c-.94,1.89-3.44,9.76-5,13.76-2.65,6.9-10.2,19.24-9.69,19.19l.23,0h0a9,9,0,0,0,4.76-2.18c-5.17,9.71-18.1,26.77-17.41,27.12.16.08.33.14.5.21h0a1,1,0,0,0,.16.06,6.18,6.18,0,0,0,.72.26l.33.1c.23.07.46.12.69.17s.27,0,.4.06a4.62,4.62,0,0,0,.65.08l.45,0c.21,0,.41,0,.61,0l.52,0,.56-.06.57-.12.51-.12.63-.2.45-.16c.24-.09.47-.2.7-.31l.39-.18c.25-.13.5-.28.75-.44l.33-.19c.27-.17.54-.37.81-.57l.25-.19c.29-.23.58-.48.87-.74l.19-.16c.3-.29.6-.59.9-.91l.14-.13c.31-.35.62-.71.93-1.1l.08-.09c.32-.4.63-.83.94-1.28l0-.05a28.4,28.4,0,0,0,1.86-3.11c-.29.68-.6,1.33-.84,1.93-.83,2-1.63,4.06-2.48,6.07q-.59,1.41-1.2,2.79l-.21.47c-.32.71-.63,1.41-1,2.1l-.48,1c-.24.5-.48,1-.73,1.48s-.4.8-.61,1.2c-.37.71-.74,1.42-1.13,2.11-3.46,6.14-7.71,11.23-12.52,13.82-1.44-2.37-2.6-4.37-3.23-5.53a9,9,0,0,0,4.77,2.18,53.81,53.81,0,0,1-5.07-9.89,65.27,65.27,0,0,1-4.4-9.27c-1.53-4-4-11.87-5-13.76,3.21,6.35,6.74,12.5,10.83,12.46l.05,0c-.56-.77-1.12-1.57-1.67-2.41l-.06-.09c-.52-.81-1-1.64-1.55-2.49a2.53,2.53,0,0,0-.13-.22c-.48-.82-1-1.66-1.43-2.53l-.23-.43c-.43-.8-.86-1.62-1.28-2.46-.11-.22-.22-.46-.33-.69-.38-.77-.76-1.54-1.13-2.33-.15-.32-.29-.66-.44-1-.32-.72-.65-1.44-1-2.17-.18-.42-.35-.85-.53-1.27-.28-.66-.56-1.32-.83-2s-.41-1.05-.62-1.58l-.69-1.78c-.24-.62-.47-1.25-.7-1.88l-.57-1.56c-.26-.7-.5-1.42-.75-2.13l-.48-1.39c-.27-.78-.52-1.57-.78-2.35-.14-.41-.28-.82-.41-1.23-.27-.84-.53-1.68-.8-2.53-.11-.37-.23-.74-.35-1.11-.27-.88-.53-1.76-.8-2.64-.1-.35-.21-.69-.31-1-.26-.88-.52-1.78-.77-2.67-.1-.35-.21-.7-.31-1-.24-.85-.47-1.71-.71-2.56l-.33-1.2-.63-2.34c-.16-.59-.32-1.18-.47-1.77-2.63,9.11-5.78,17.63-8.78,25.89a169.64,169.64,0,0,1-7.8,18.66c-2.68-4.3-5.06-8.27-6.06-10.14a9,9,0,0,0,4.77,2.19,53.19,53.19,0,0,1-5.07-9.89,65.41,65.41,0,0,1-4.4-9.28c-1.53-4-4-11.86-5-13.76,3.21,6.36,6.74,12.5,10.83,12.47l0,0c-.56-.77-1.12-1.58-1.67-2.41l-.06-.1c-.52-.8-1-1.63-1.55-2.48a2.53,2.53,0,0,0-.13-.22c-.48-.82-1-1.66-1.43-2.53l-.23-.43c-.43-.8-.86-1.62-1.28-2.46-.11-.23-.22-.46-.34-.69-.37-.77-.75-1.54-1.12-2.34-.15-.32-.29-.65-.44-1-.32-.72-.65-1.44-1-2.18-.18-.41-.35-.84-.53-1.26-.28-.66-.56-1.32-.83-2s-.41-1.05-.62-1.58-.47-1.18-.69-1.78-.47-1.25-.7-1.88-.39-1-.57-1.56c-.26-.7-.5-1.42-.75-2.13l-.48-1.39c-.27-.78-.53-1.57-.78-2.35-.14-.41-.28-.82-.41-1.23-.27-.84-.53-1.68-.8-2.53-.11-.37-.23-.74-.35-1.11-.27-.88-.53-1.76-.8-2.65-.1-.34-.21-.68-.31-1-.26-.89-.52-1.78-.77-2.67-.1-.35-.21-.7-.31-1.05-.24-.86-.47-1.71-.71-2.56l-.33-1.2c-.22-.78-.42-1.56-.63-2.34l-.48-1.77c-2.62,9.11-5.77,17.63-8.77,25.88-3.69,10.14-7.74,20.07-12.77,26.93a.35.35,0,0,0,.22.08,3.89,3.89,0,0,0,.49,0h0l.1,0,.47-.09.27-.07.44-.16.29-.13.42-.23.31-.19.38-.27.33-.25.35-.3.36-.34c.11-.1.21-.2.31-.31s.27-.28.4-.43l.26-.3.45-.55.2-.25c.18-.23.35-.47.52-.72l.11-.15a63.13,63.13,0,0,0,4.38-7.68c-1,1.9-3.44,9.77-5,13.76-1.86,4.85-6.14,12.38-8.35,16.41A67.18,67.18,0,0,1,170,134.57c4.69,8.33,11.13,10.87,16.4,8.27a.65.65,0,0,0,.1-.15c-.4-.45-.8-.93-1.2-1.42-3.21-3.93-13.87-21-16.3-25.56a9,9,0,0,0,4.76,2.18,54.66,54.66,0,0,1-5.07-9.88,64.34,64.34,0,0,1-4.39-9.28c-1.53-4-4-11.87-5-13.76,3.2,6.35,6.73,12.5,10.82,12.47,0,0,0,0,.06,0-.57-.78-1.13-1.58-1.67-2.41l-.06-.1q-.79-1.2-1.56-2.49l-.12-.21c-.49-.83-1-1.66-1.44-2.53-.08-.14-.15-.29-.22-.43-.44-.81-.87-1.62-1.29-2.46l-.33-.69c-.38-.77-.76-1.54-1.13-2.34-.14-.32-.29-.65-.43-1-.33-.71-.66-1.43-1-2.17-.18-.41-.35-.84-.53-1.27-.27-.66-.55-1.31-.83-2-.21-.51-.41-1-.61-1.57s-.47-1.18-.7-1.78-.46-1.25-.7-1.88L157,70.56l-.75-2.13L155.75,67,155,64.68l-.41-1.22c-.27-.84-.53-1.69-.8-2.53-.11-.37-.23-.74-.35-1.11-.27-.88-.53-1.76-.8-2.65-.1-.34-.2-.69-.31-1-.26-.89-.51-1.78-.77-2.67l-.3-1.06-.72-2.56-.33-1.19-.63-2.34c-.16-.59-.32-1.18-.47-1.77-2.63,9.11-5.78,17.63-8.77,25.88-3.69,10.14-7.75,20.06-12.77,26.93a.32.32,0,0,0,.21.08,3.89,3.89,0,0,0,.49,0h0l.1,0a3.89,3.89,0,0,0,.47-.09l.27-.08a3.29,3.29,0,0,0,.44-.16l.3-.13.41-.22.31-.19a3.28,3.28,0,0,0,.38-.27l.33-.25.36-.31c.12-.1.23-.22.35-.33l.32-.31.39-.43.27-.3c.15-.18.3-.37.44-.56a2.43,2.43,0,0,0,.2-.25c.18-.23.35-.47.53-.71l.11-.16A62.22,62.22,0,0,0,138.58,85c-.94,1.89-3.44,9.77-5,13.76-2.65,6.91-10.2,19.24-9.69,19.2a1.81,1.81,0,0,0,.23,0h0a9.09,9.09,0,0,0,4.76-2.19c-5.17,9.71-18.1,26.78-17.41,27.13.16.08.33.14.5.21h0l.16.06c.24.09.47.18.72.26l.33.1c.23.06.46.12.69.16l.4.07.65.08.45,0H116l.52,0,.56-.07.57-.11.51-.12.64-.21.44-.15.7-.31.39-.19c.25-.13.5-.28.75-.43l.33-.19c.27-.18.54-.38.81-.58l.26-.19c.29-.22.57-.47.86-.73l.19-.17c.3-.28.6-.59.9-.9l.14-.14c.31-.34.62-.71.93-1.09l.08-.09c.32-.41.63-.84,1-1.29l0-.05a28.23,28.23,0,0,0,1.86-3.1c-.29.68-.6,1.33-.84,1.93-.83,2-1.63,4.06-2.48,6.06q-.59,1.41-1.2,2.79l-.21.48c-.31.7-.63,1.4-1,2.09l-.48,1c-.24.5-.48,1-.73,1.48s-.4.81-.61,1.2c-.37.72-.74,1.42-1.13,2.11-3.67,6.52-8.24,11.87-13.41,14.28,0,0-.2.29-.12.34a8.82,8.82,0,0,0,6.6,1.61c-2.1,3.74-4.34,7.56-6.35,11-3.63-5.69-7.31-11.75-8.61-14.19a9,9,0,0,0,4.77,2.18,53.82,53.82,0,0,1-5.08-9.89,66,66,0,0,1-4.39-9.28c-1.53-4-4-11.86-5-13.76,3.2,6.36,6.73,12.51,10.83,12.47l0,0c-.57-.77-1.12-1.58-1.67-2.41l-.06-.09c-.52-.81-1-1.64-1.55-2.49a2.53,2.53,0,0,1-.13-.22c-.48-.82-1-1.66-1.43-2.53l-.23-.43c-.43-.8-.86-1.62-1.28-2.46-.12-.23-.23-.46-.34-.69-.38-.77-.75-1.54-1.12-2.34-.15-.32-.29-.65-.44-1-.33-.72-.65-1.44-1-2.18-.18-.41-.35-.84-.53-1.26-.28-.66-.56-1.32-.83-2-.21-.52-.41-1-.62-1.58s-.47-1.18-.7-1.78l-.69-1.88c-.19-.52-.39-1-.58-1.56-.25-.7-.49-1.42-.74-2.13-.16-.47-.33-.92-.49-1.39l-.78-2.35c-.13-.41-.27-.82-.4-1.23-.27-.84-.54-1.68-.8-2.53-.12-.37-.24-.74-.35-1.11-.27-.88-.54-1.76-.8-2.65-.1-.34-.21-.68-.31-1-.26-.89-.52-1.78-.77-2.67-.11-.35-.21-.7-.31-1-.24-.85-.48-1.71-.71-2.56-.11-.4-.23-.8-.33-1.2q-.33-1.17-.63-2.34L78,94.68c-2.62,9.11-5.77,17.63-8.77,25.89-3.69,10.13-7.74,20.06-12.77,26.92a.35.35,0,0,0,.22.08,4,4,0,0,0,.49,0h0l.09,0a3.55,3.55,0,0,0,.47-.09l.28-.07.44-.16.29-.13.41-.22.31-.2.39-.26.33-.26.35-.3.36-.34.31-.31c.13-.14.27-.28.4-.43l.26-.3.45-.55.2-.25c.17-.23.35-.47.52-.72l.11-.15a62.38,62.38,0,0,0,4.38-7.68c-1,1.9-3.45,9.77-5,13.76-2.66,6.91-10.21,19.24-9.7,19.2l.24,0h0a9.07,9.07,0,0,0,4.76-2.18c-3.08,5.79-8.93,14.2-13,20.12-3.21-5.57-8.26-13.93-12.18-21.23a8.23,8.23,0,0,0,6.71-3.26s.15-.26.09-.32c-7.41-6.69-14.71-14.84-19.49-26.59,4.69,8.33,11.13,10.87,16.4,8.27a.43.43,0,0,0,.09-.15c-.39-.45-.79-.93-1.19-1.42-3.21-3.93-13.88-21-16.31-25.56a9,9,0,0,0,4.77,2.18A54,54,0,0,1,18.66,108a65.41,65.41,0,0,1-4.4-9.28c-1.53-4-4-11.87-5-13.76,3.2,6.35,6.73,12.5,10.82,12.47l.05,0C19.6,96.64,19,95.84,18.5,95l-.06-.1q-.8-1.2-1.56-2.49l-.12-.21c-.49-.83-1-1.66-1.44-2.53l-.23-.43c-.43-.81-.86-1.62-1.28-2.46-.11-.23-.22-.47-.33-.69-.38-.77-.76-1.54-1.13-2.34-.15-.32-.29-.65-.44-1-.32-.71-.65-1.43-1-2.17-.18-.41-.35-.84-.53-1.27-.28-.66-.56-1.31-.83-2-.21-.51-.41-1-.62-1.57L8.27,74c-.24-.62-.47-1.25-.7-1.88L7,70.56c-.26-.71-.5-1.42-.75-2.13L5.77,67c-.27-.78-.52-1.57-.78-2.36l-.41-1.22c-.27-.84-.53-1.69-.8-2.53-.11-.37-.23-.74-.35-1.11-.27-.88-.53-1.76-.8-2.65l-.31-1c-.26-.89-.51-1.78-.77-2.67l-.3-1.06C1,51.56.77,50.71.53,49.85L.2,48.66c-.21-.78,0-1.34-.2-2.12V230.61H622.84Z"/></svg>