<?xml version="1.0" encoding="utf-8"?>
<!-- Generator: Adobe Illustrator 24.2.3, SVG Export Plug-In . SVG Version: 6.00 Build 0)  -->
<svg version="1.1" id="Laag_1" xmlns="http://www.w3.org/2000/svg" xmlns:xlink="http://www.w3.org/1999/xlink" x="0px" y="0px"
	 viewBox="0 0 65.5 90.3" style="enable-background:new 0 0 65.5 90.3;" xml:space="preserve">
<style type="text/css">
	.st0{fill-rule:evenodd;clip-rule:evenodd;fill:#E2CAA2;}
	.st1{fill-rule:evenodd;clip-rule:evenodd;fill:#A67C52;}
	.st2{fill-rule:evenodd;clip-rule:evenodd;fill:url(#SVGID_1_);}
</style>
<g>
	<g>
		<polygon class="st0" points="62.4,7.7 62.9,88.7 36.1,88.7 32.6,79.6 29.8,88.7 0.1,88.7 0,79 3.8,77.2 0,75.5 0.1,44.3 
			11.2,40.4 0,36.9 0.1,23 7.3,20.5 0.1,18 0,7.4 		"/>
		<g>
			<polygon class="st1" points="0,75.5 1.6,77.1 2.9,77.7 3.8,77.2 			"/>
			<polygon class="st1" points="29.8,88.7 0.1,88.7 1.7,90.3 31.4,90.3 33.7,82.6 32.6,79.6 			"/>
			<polygon class="st1" points="0,36.9 1.6,38.5 9.7,40.9 11.2,40.4 			"/>
			<polygon class="st1" points="0.1,18 1.7,19.6 5.8,21 7.3,20.5 			"/>
			<polygon class="st1" points="65.5,90.3 64.1,9.3 62.4,7.7 62.9,88.7 36.1,88.7 37.8,90.3 			"/>
		</g>
	</g>
	
		<linearGradient id="SVGID_1_" gradientUnits="userSpaceOnUse" x1="39.6587" y1="82.015" x2="40.7834" y2="49.6323" gradientTransform="matrix(1 0 0 -1 0 92)">
		<stop  offset="2.000000e-02" style="stop-color:#E6CDA1"/>
		<stop  offset="0.24" style="stop-color:#DAC196"/>
		<stop  offset="1" style="stop-color:#AD956F"/>
	</linearGradient>
	<polygon class="st2" points="65.5,90.3 15.4,66.2 15.4,0 65.5,0 	"/>
	<g>
		<polygon class="st1" points="15.4,67.7 62.9,90.2 65.5,90.3 15.4,66.2 		"/>
	</g>
</g>
</svg>
