<svg id="Laag_1" data-name="Laag 1" xmlns="http://www.w3.org/2000/svg" viewBox="0 0 380.82 405.62"><defs><style>.cls-1{fill:#ef8620;}.cls-2{fill:#f5ac37;}.cls-3{fill:#f9f3af;}.cls-4{fill:#fbec8a;}.cls-5{fill:#f09a20;}.cls-6{fill:#dd6a10;}.cls-7{fill:#fbd74c;}.cls-8{fill:#f8c716;}.cls-9{fill:#e4b014;opacity:0.8;}.cls-10{fill:#feedb8;}.cls-11{fill:#fef3ce;}.cls-12{fill:#fff;}.cls-13{fill:#b4b4b4;}.cls-14{fill:#c4c4c3;}.cls-15{fill:#cdcccc;}.cls-16{fill:#d3d3d3;}.cls-17{fill:#e7e6e6;}.cls-18{fill:#9a9999;}.cls-19{fill:#f2f2f2;}</style></defs><polygon class="cls-1" points="361.32 284.49 361.8 286.97 280.83 304.96 280.86 302.15 361.32 284.49"/><polygon class="cls-2" points="280.83 304.96 200.88 288.91 202.61 286.07 280.86 302.15 280.83 304.96"/><polygon class="cls-3" points="189.76 252.27 200.88 288.91 202.61 286.07 191.64 250.51 189.76 252.27"/><polygon class="cls-4" points="189.76 252.27 188.92 263.53 199.58 301.04 200.93 288.89 189.76 252.27"/><polygon class="cls-5" points="199.58 301.04 280.01 316.57 280.83 304.96 200.93 288.89 199.58 301.04"/><polygon class="cls-6" points="280.83 304.96 280.01 316.57 361.09 298.12 361.8 286.97 280.83 304.96"/><polygon class="cls-7" points="351.45 249.07 269.06 231.88 191.64 250.51 202.61 286.07 280.86 302.15 361.32 284.49 351.45 249.07"/><polygon class="cls-8" points="227.41 279.76 339.49 277.65 270.6 245.7 227.41 279.76"/><polygon class="cls-4" points="270.6 245.7 270.34 249.25 331.89 277.79 339.49 277.65 270.6 245.7"/><polygon class="cls-1" points="231.75 279.68 227.41 279.76 270.6 245.7 270.34 249.25 231.75 279.68"/><polygon class="cls-9" points="246.39 279.4 274.69 254.09 324.84 277.93 331.89 277.79 270.34 249.25 231.75 279.68 246.39 279.4"/><polygon class="cls-10" points="191.64 250.51 194 258.17 275.24 236.95 351.45 249.07 269.06 231.88 191.64 250.51"/><polygon class="cls-1" points="375.36 263.32 375.84 265.8 294.88 283.79 294.9 280.98 375.36 263.32"/><polygon class="cls-2" points="294.88 283.79 214.92 267.74 216.65 264.9 294.9 280.98 294.88 283.79"/><polygon class="cls-3" points="203.8 231.1 214.92 267.74 216.65 264.9 205.69 229.34 203.8 231.1"/><polygon class="cls-4" points="203.8 231.1 202.97 242.36 213.62 279.87 214.97 267.72 203.8 231.1"/><polygon class="cls-5" points="213.62 279.87 294.05 295.4 294.88 283.79 214.97 267.72 213.62 279.87"/><polygon class="cls-6" points="294.88 283.79 294.05 295.4 375.13 276.95 375.84 265.8 294.88 283.79"/><polygon class="cls-7" points="365.49 227.9 283.1 210.71 205.69 229.34 216.65 264.9 294.9 280.98 375.36 263.32 365.49 227.9"/><polygon class="cls-8" points="241.45 258.59 353.53 256.48 284.64 224.53 241.45 258.59"/><polygon class="cls-4" points="284.64 224.53 284.38 228.07 345.93 256.62 353.53 256.48 284.64 224.53"/><polygon class="cls-1" points="245.79 258.51 241.45 258.59 284.64 224.53 284.38 228.07 245.79 258.51"/><polygon class="cls-9" points="260.43 258.23 288.74 232.92 338.89 256.76 345.93 256.62 284.38 228.07 245.79 258.51 260.43 258.23"/><polygon class="cls-10" points="205.69 229.34 208.05 237 289.28 215.78 365.49 227.9 283.1 210.71 205.69 229.34"/><polygon class="cls-7" points="316.32 197.8 367.96 229.18 329.22 262.13 237.38 263.86 185.99 232.2 224.36 199.66 316.32 197.8"/><polygon class="cls-6" points="369.38 231.42 369.15 242.57 329.56 276.38 329.51 264.79 369.38 231.42"/><polygon class="cls-5" points="236.87 278.52 236.98 266.26 329.51 264.79 329.56 276.38 236.87 278.52"/><polygon class="cls-4" points="184.08 234.59 184.13 247.46 236.87 278.52 236.98 266.26 184.08 234.59"/><polygon class="cls-3" points="184.08 234.59 185.99 232.2 237.38 263.86 236.98 266.26 184.08 234.59"/><polygon class="cls-2" points="329.22 262.13 329.51 264.79 236.98 266.26 237.38 263.86 329.22 262.13"/><polygon class="cls-1" points="367.96 229.18 369.38 231.42 329.51 264.79 329.22 262.13 367.96 229.18"/><polygon class="cls-11" points="185.99 232.2 193.97 237.12 231.44 203.54 315.4 199.63 367.96 229.18 316.32 197.8 224.36 199.66 185.99 232.2"/><polygon class="cls-8" points="239.8 211.63 250.03 252.13 323.38 227.68 239.8 211.63"/><polygon class="cls-1" points="323.38 227.68 239.8 211.63 240.69 215.13 317.72 229.56 323.38 227.68"/><polygon class="cls-9" points="250.03 252.13 259.53 248.96 250.31 219.77 312.32 231.37 317.72 229.56 240.69 215.13 250.03 252.13"/><polygon class="cls-7" points="322.63 172.52 374.26 203.9 335.53 236.85 243.69 238.58 192.3 206.92 230.66 174.38 322.63 172.52"/><polygon class="cls-6" points="375.68 206.14 375.45 217.29 335.87 251.1 335.81 239.51 375.68 206.14"/><polygon class="cls-5" points="243.17 253.24 243.29 240.98 335.81 239.51 335.87 251.1 243.17 253.24"/><polygon class="cls-4" points="190.38 209.31 190.44 222.18 243.17 253.24 243.29 240.98 190.38 209.31"/><polygon class="cls-3" points="190.38 209.31 192.3 206.92 243.69 238.58 243.29 240.98 190.38 209.31"/><polygon class="cls-2" points="335.53 236.85 335.81 239.51 243.29 240.98 243.69 238.58 335.53 236.85"/><polygon class="cls-1" points="374.26 203.9 375.68 206.14 335.81 239.51 335.53 236.85 374.26 203.9"/><polygon class="cls-11" points="192.3 206.92 200.28 211.84 237.75 178.26 321.71 174.34 374.26 203.9 322.63 172.52 230.66 174.38 192.3 206.92"/><polygon class="cls-8" points="246.11 186.34 256.34 226.84 329.68 202.4 246.11 186.34"/><polygon class="cls-1" points="329.68 202.4 246.11 186.34 246.99 189.85 324.02 204.28 329.68 202.4"/><polygon class="cls-9" points="256.34 226.84 265.84 223.68 256.61 194.49 318.62 206.08 324.02 204.28 246.99 189.85 256.34 226.84"/><polygon class="cls-1" points="364.98 209.58 365.46 212.06 284.5 230.05 284.52 227.24 364.98 209.58"/><polygon class="cls-2" points="284.5 230.05 204.54 213.99 206.27 211.16 284.52 227.24 284.5 230.05"/><polygon class="cls-3" points="193.42 177.36 204.54 213.99 206.27 211.16 195.3 175.59 193.42 177.36"/><polygon class="cls-4" points="193.42 177.36 192.58 188.61 203.24 226.13 204.59 213.97 193.42 177.36"/><polygon class="cls-5" points="203.24 226.13 283.67 241.65 284.5 230.05 204.59 213.97 203.24 226.13"/><polygon class="cls-6" points="284.5 230.05 283.67 241.65 364.75 223.21 365.46 212.06 284.5 230.05"/><polygon class="cls-7" points="355.11 174.16 272.72 156.97 195.3 175.59 206.27 211.16 284.52 227.24 364.98 209.58 355.11 174.16"/><polygon class="cls-8" points="231.07 204.85 343.15 202.74 274.26 170.78 231.07 204.85"/><polygon class="cls-4" points="274.26 170.78 274 174.33 335.55 202.88 343.15 202.74 274.26 170.78"/><polygon class="cls-1" points="235.41 204.76 231.07 204.85 274.26 170.78 274 174.33 235.41 204.76"/><polygon class="cls-9" points="250.05 204.49 278.35 179.18 328.5 203.01 335.55 202.88 274 174.33 235.41 204.76 250.05 204.49"/><polygon class="cls-10" points="195.3 175.59 197.67 183.26 278.9 162.03 355.11 174.16 272.72 156.97 195.3 175.59"/><polygon class="cls-7" points="327.77 138.59 379.4 169.97 340.67 202.91 248.83 204.65 197.44 172.99 235.8 140.45 327.77 138.59"/><polygon class="cls-6" points="380.82 172.21 380.59 183.35 341 217.17 340.96 205.58 380.82 172.21"/><polygon class="cls-5" points="248.31 219.31 248.43 207.04 340.96 205.58 341 217.17 248.31 219.31"/><polygon class="cls-4" points="195.53 175.38 195.58 188.24 248.31 219.31 248.43 207.04 195.53 175.38"/><polygon class="cls-3" points="195.53 175.38 197.44 172.99 248.83 204.65 248.43 207.04 195.53 175.38"/><polygon class="cls-2" points="340.67 202.91 340.96 205.58 248.43 207.04 248.83 204.65 340.67 202.91"/><polygon class="cls-1" points="379.4 169.97 380.82 172.21 340.96 205.58 340.67 202.91 379.4 169.97"/><polygon class="cls-11" points="197.44 172.99 205.42 177.9 242.89 144.32 326.85 140.41 379.4 169.97 327.77 138.59 235.8 140.45 197.44 172.99"/><polygon class="cls-8" points="251.25 152.41 261.48 192.91 334.82 168.46 251.25 152.41"/><polygon class="cls-1" points="334.82 168.46 251.25 152.41 252.13 155.91 329.16 170.35 334.82 168.46"/><polygon class="cls-9" points="261.48 192.91 270.98 189.74 261.75 160.56 323.76 172.15 329.16 170.35 252.13 155.91 261.48 192.91"/><polygon class="cls-7" points="307.06 114.29 358.7 145.67 319.96 178.61 228.12 180.35 176.73 148.69 215.1 116.15 307.06 114.29"/><polygon class="cls-6" points="360.12 147.91 359.89 159.06 320.3 192.87 320.25 181.28 360.12 147.91"/><polygon class="cls-5" points="227.61 195.01 227.72 182.75 320.25 181.28 320.3 192.87 227.61 195.01"/><polygon class="cls-4" points="174.82 151.08 174.88 163.94 227.61 195.01 227.72 182.75 174.82 151.08"/><polygon class="cls-3" points="174.82 151.08 176.73 148.69 228.12 180.35 227.72 182.75 174.82 151.08"/><polygon class="cls-2" points="319.96 178.61 320.25 181.28 227.72 182.75 228.12 180.35 319.96 178.61"/><polygon class="cls-1" points="358.7 145.67 360.12 147.91 320.25 181.28 319.96 178.61 358.7 145.67"/><polygon class="cls-11" points="176.73 148.69 184.71 153.6 222.18 120.03 306.15 116.11 358.7 145.67 307.06 114.29 215.1 116.15 176.73 148.69"/><polygon class="cls-8" points="230.54 128.11 240.78 168.61 314.12 144.16 230.54 128.11"/><polygon class="cls-1" points="314.12 144.16 230.54 128.11 231.43 131.62 308.46 146.05 314.12 144.16"/><polygon class="cls-9" points="240.78 168.61 250.27 165.44 241.05 136.26 303.06 147.85 308.46 146.05 231.43 131.62 240.78 168.61"/><polygon class="cls-1" points="359.37 147.87 359.84 150.35 278.88 168.34 278.9 165.53 359.37 147.87"/><polygon class="cls-2" points="278.88 168.34 198.93 152.29 200.66 149.45 278.9 165.53 278.88 168.34"/><polygon class="cls-3" points="187.81 115.65 198.93 152.29 200.66 149.45 189.69 113.89 187.81 115.65"/><polygon class="cls-4" points="187.81 115.65 186.97 126.9 197.63 164.42 198.98 152.26 187.81 115.65"/><polygon class="cls-5" points="197.63 164.42 278.05 179.95 278.88 168.34 198.98 152.26 197.63 164.42"/><polygon class="cls-6" points="278.88 168.34 278.05 179.95 359.13 161.5 359.84 150.35 278.88 168.34"/><polygon class="cls-7" points="349.49 112.45 267.11 95.26 189.69 113.89 200.66 149.45 278.9 165.53 359.37 147.87 349.49 112.45"/><polygon class="cls-8" points="225.46 143.14 337.53 141.03 268.65 109.08 225.46 143.14"/><polygon class="cls-4" points="268.65 109.08 268.39 112.62 329.94 141.17 337.54 141.03 268.65 109.08"/><polygon class="cls-1" points="229.8 143.06 225.46 143.14 268.65 109.08 268.39 112.62 229.8 143.06"/><polygon class="cls-9" points="244.43 142.78 272.74 117.47 322.89 141.31 329.94 141.17 268.39 112.62 229.8 143.06 244.43 142.78"/><polygon class="cls-10" points="189.69 113.89 192.05 121.55 273.29 100.33 349.49 112.45 267.11 95.26 189.69 113.89"/><polygon class="cls-7" points="152.46 266.18 204.1 297.56 165.36 330.51 73.52 332.24 22.13 300.58 60.5 268.05 152.46 266.18"/><polygon class="cls-6" points="205.51 299.8 205.29 310.95 165.7 344.76 165.65 333.17 205.51 299.8"/><polygon class="cls-5" points="73 346.9 73.12 334.64 165.65 333.17 165.7 344.76 73 346.9"/><polygon class="cls-4" points="20.22 302.97 20.27 315.84 73 346.9 73.12 334.64 20.22 302.97"/><polygon class="cls-3" points="20.22 302.97 22.13 300.58 73.52 332.24 73.12 334.64 20.22 302.97"/><polygon class="cls-2" points="165.36 330.51 165.65 333.17 73.12 334.64 73.52 332.24 165.36 330.51"/><polygon class="cls-1" points="204.1 297.56 205.51 299.8 165.65 333.17 165.36 330.51 204.1 297.56"/><polygon class="cls-11" points="22.13 300.58 30.11 305.5 67.58 271.92 151.54 268 204.1 297.56 152.46 266.18 60.5 268.05 22.13 300.58"/><polygon class="cls-8" points="75.94 280.01 86.17 320.51 159.51 296.06 75.94 280.01"/><polygon class="cls-1" points="159.51 296.06 75.94 280.01 76.83 283.51 153.86 297.95 159.51 296.06"/><polygon class="cls-9" points="86.17 320.51 95.67 317.34 86.45 288.15 148.46 299.75 153.86 297.95 76.83 283.51 86.17 320.51"/><polygon class="cls-1" points="179.67 303.24 180.14 305.72 99.18 323.71 99.2 320.9 179.67 303.24"/><polygon class="cls-2" points="99.18 323.71 19.23 307.66 20.96 304.82 99.2 320.9 99.18 323.71"/><polygon class="cls-3" points="8.1 271.02 19.23 307.66 20.96 304.82 9.99 269.26 8.1 271.02"/><polygon class="cls-4" points="8.1 271.02 7.27 282.27 17.93 319.79 19.28 307.63 8.1 271.02"/><polygon class="cls-5" points="17.93 319.79 98.35 335.32 99.18 323.71 19.28 307.63 17.93 319.79"/><polygon class="cls-6" points="99.18 323.71 98.35 335.32 179.43 316.87 180.14 305.72 99.18 323.71"/><polygon class="cls-7" points="169.79 267.82 87.4 250.63 9.99 269.26 20.96 304.82 99.2 320.9 179.67 303.24 169.79 267.82"/><polygon class="cls-8" points="45.76 298.51 157.83 296.4 88.94 264.45 45.76 298.51"/><polygon class="cls-4" points="88.94 264.45 88.69 267.99 150.24 296.54 157.83 296.4 88.94 264.45"/><polygon class="cls-1" points="50.1 298.43 45.76 298.51 88.94 264.45 88.69 267.99 50.1 298.43"/><polygon class="cls-9" points="64.73 298.15 93.04 272.84 143.19 296.68 150.24 296.54 88.69 267.99 50.1 298.43 64.73 298.15"/><polygon class="cls-10" points="9.99 269.26 12.35 276.92 93.59 255.7 169.79 267.82 87.4 250.63 9.99 269.26"/><polygon class="cls-7" points="164.36 230.71 216 262.09 177.27 295.04 85.43 296.77 34.03 265.11 72.4 232.57 164.36 230.71"/><polygon class="cls-6" points="217.42 264.33 217.19 275.48 177.6 309.29 177.55 297.7 217.42 264.33"/><polygon class="cls-5" points="84.91 311.43 85.03 299.17 177.55 297.7 177.6 309.29 84.91 311.43"/><polygon class="cls-4" points="32.12 267.5 32.18 280.37 84.91 311.43 85.03 299.17 32.12 267.5"/><polygon class="cls-3" points="32.12 267.5 34.03 265.11 85.43 296.77 85.03 299.17 32.12 267.5"/><polygon class="cls-2" points="177.27 295.04 177.55 297.7 85.03 299.17 85.43 296.77 177.27 295.04"/><polygon class="cls-1" points="216 262.09 217.42 264.33 177.55 297.7 177.27 295.04 216 262.09"/><polygon class="cls-11" points="34.03 265.11 42.02 270.03 79.48 236.45 163.45 232.53 216 262.09 164.36 230.71 72.4 232.57 34.03 265.11"/><polygon class="cls-8" points="87.85 244.53 98.08 285.04 171.42 260.59 87.85 244.53"/><polygon class="cls-1" points="171.42 260.59 87.85 244.53 88.73 248.04 165.76 262.47 171.42 260.59"/><polygon class="cls-9" points="98.08 285.04 107.58 281.87 98.35 252.68 160.36 264.27 165.76 262.47 88.73 248.04 98.08 285.04"/><polygon class="cls-1" points="195.1 263.49 195.58 265.97 114.62 283.96 114.64 281.15 195.1 263.49"/><polygon class="cls-2" points="114.62 283.96 34.66 267.91 36.39 265.07 114.64 281.15 114.62 283.96"/><polygon class="cls-3" points="23.54 231.27 34.66 267.91 36.39 265.07 25.43 229.51 23.54 231.27"/><polygon class="cls-4" points="23.54 231.27 22.7 242.53 33.36 280.04 34.71 267.89 23.54 231.27"/><polygon class="cls-5" points="33.36 280.04 113.79 295.57 114.62 283.96 34.71 267.89 33.36 280.04"/><polygon class="cls-6" points="114.62 283.96 113.79 295.57 194.87 277.12 195.58 265.97 114.62 283.96"/><polygon class="cls-7" points="185.23 228.07 102.84 210.88 25.43 229.51 36.39 265.07 114.64 281.15 195.1 263.49 185.23 228.07"/><polygon class="cls-8" points="61.19 258.76 173.27 256.65 104.38 224.7 61.19 258.76"/><polygon class="cls-4" points="104.38 224.7 104.12 228.25 165.67 256.8 173.27 256.65 104.38 224.7"/><polygon class="cls-1" points="65.53 258.68 61.19 258.76 104.38 224.7 104.12 228.25 65.53 258.68"/><polygon class="cls-9" points="80.17 258.4 108.47 233.1 158.63 256.93 165.67 256.8 104.12 228.25 65.53 258.68 80.17 258.4"/><polygon class="cls-10" points="25.43 229.51 27.79 237.17 109.02 215.95 185.23 228.07 102.84 210.88 25.43 229.51"/><polygon class="cls-1" points="209.15 242.32 209.62 244.8 128.66 262.79 128.68 259.98 209.15 242.32"/><polygon class="cls-2" points="128.66 262.79 48.71 246.74 50.44 243.9 128.68 259.98 128.66 262.79"/><polygon class="cls-3" points="37.58 210.1 48.71 246.74 50.44 243.9 39.47 208.34 37.58 210.1"/><polygon class="cls-4" points="37.58 210.1 36.75 221.36 47.41 258.87 48.76 246.72 37.58 210.1"/><polygon class="cls-5" points="47.41 258.87 127.83 274.4 128.66 262.79 48.76 246.72 47.41 258.87"/><polygon class="cls-6" points="128.66 262.79 127.83 274.4 208.91 255.95 209.62 244.8 128.66 262.79"/><polygon class="cls-7" points="199.27 206.9 116.89 189.71 39.47 208.34 50.44 243.9 128.68 259.98 209.15 242.32 199.27 206.9"/><polygon class="cls-8" points="75.24 237.59 187.31 235.48 118.43 203.53 75.24 237.59"/><polygon class="cls-4" points="118.43 203.53 118.17 207.08 179.72 235.63 187.31 235.48 118.43 203.53"/><polygon class="cls-1" points="79.58 237.51 75.24 237.59 118.43 203.53 118.17 207.08 79.58 237.51"/><polygon class="cls-9" points="94.21 237.24 122.52 211.93 172.67 235.76 179.72 235.63 118.17 207.08 79.58 237.51 94.21 237.24"/><polygon class="cls-10" points="39.47 208.34 41.83 216 123.07 194.78 199.27 206.9 116.89 189.71 39.47 208.34"/><polygon class="cls-7" points="162.92 179.14 214.56 210.52 175.82 243.46 83.98 245.2 32.59 213.53 70.96 181 162.92 179.14"/><polygon class="cls-6" points="215.98 212.76 215.75 223.9 176.16 257.71 176.11 246.13 215.98 212.76"/><polygon class="cls-5" points="83.47 259.86 83.58 247.59 176.11 246.13 176.16 257.71 83.47 259.86"/><polygon class="cls-4" points="30.68 215.93 30.74 228.79 83.47 259.86 83.58 247.59 30.68 215.93"/><polygon class="cls-3" points="30.68 215.93 32.59 213.53 83.98 245.2 83.58 247.59 30.68 215.93"/><polygon class="cls-2" points="175.82 243.46 176.11 246.13 83.58 247.59 83.98 245.2 175.82 243.46"/><polygon class="cls-1" points="214.56 210.52 215.98 212.76 176.11 246.13 175.82 243.46 214.56 210.52"/><polygon class="cls-11" points="32.59 213.53 40.58 218.45 78.04 184.87 162.01 180.96 214.56 210.52 162.92 179.14 70.96 181 32.59 213.53"/><polygon class="cls-8" points="86.41 192.96 96.64 233.46 169.98 209.01 86.41 192.96"/><polygon class="cls-1" points="169.98 209.01 86.41 192.96 87.29 196.46 164.32 210.9 169.98 209.01"/><polygon class="cls-9" points="96.64 233.46 106.14 230.29 96.91 201.1 158.92 212.7 164.32 210.9 87.29 196.46 96.64 233.46"/><polygon class="cls-7" points="156.41 151.52 208.04 182.9 169.31 215.85 77.47 217.58 26.08 185.92 64.45 153.38 156.41 151.52"/><polygon class="cls-6" points="209.46 185.14 209.24 196.29 169.65 230.1 169.6 218.51 209.46 185.14"/><polygon class="cls-5" points="76.95 232.24 77.07 219.98 169.6 218.51 169.65 230.1 76.95 232.24"/><polygon class="cls-4" points="24.17 188.31 24.22 201.18 76.95 232.24 77.07 219.98 24.17 188.31"/><polygon class="cls-3" points="24.17 188.31 26.08 185.92 77.47 217.58 77.07 219.98 24.17 188.31"/><polygon class="cls-2" points="169.31 215.85 169.6 218.51 77.07 219.98 77.47 217.58 169.31 215.85"/><polygon class="cls-1" points="208.04 182.9 209.46 185.14 169.6 218.51 169.31 215.85 208.04 182.9"/><polygon class="cls-11" points="26.08 185.92 34.06 190.84 71.53 157.26 155.49 153.34 208.04 182.9 156.41 151.52 64.45 153.38 26.08 185.92"/><polygon class="cls-8" points="79.89 165.35 90.12 205.85 163.46 181.4 79.89 165.35"/><polygon class="cls-1" points="163.46 181.4 79.89 165.35 80.78 168.85 157.81 183.29 163.46 181.4"/><polygon class="cls-9" points="90.12 205.85 99.62 202.68 90.4 173.49 152.41 185.09 157.81 183.29 80.78 168.85 90.12 205.85"/><polygon class="cls-1" points="198.76 188.58 199.24 191.06 118.28 209.05 118.3 206.24 198.76 188.58"/><polygon class="cls-2" points="118.28 209.05 38.32 193 40.05 190.16 118.3 206.24 118.28 209.05"/><polygon class="cls-3" points="27.2 156.36 38.32 193 40.05 190.16 29.09 154.6 27.2 156.36"/><polygon class="cls-4" points="27.2 156.36 26.37 167.62 37.02 205.13 38.37 192.97 27.2 156.36"/><polygon class="cls-5" points="37.02 205.13 117.45 220.66 118.28 209.05 38.37 192.97 37.02 205.13"/><polygon class="cls-6" points="118.28 209.05 117.45 220.66 198.53 202.21 199.24 191.06 118.28 209.05"/><polygon class="cls-7" points="188.89 153.16 106.5 135.97 29.09 154.6 40.05 190.16 118.3 206.24 198.76 188.58 188.89 153.16"/><polygon class="cls-8" points="64.86 183.85 176.93 181.74 108.04 149.79 64.86 183.85"/><polygon class="cls-4" points="108.04 149.79 107.78 153.33 169.33 181.88 176.93 181.74 108.04 149.79"/><polygon class="cls-1" points="69.2 183.77 64.86 183.85 108.04 149.79 107.78 153.33 69.2 183.77"/><polygon class="cls-9" points="83.83 183.49 112.14 158.18 162.29 182.01 169.33 181.88 107.78 153.33 69.2 183.77 83.83 183.49"/><polygon class="cls-10" points="29.09 154.6 31.45 162.26 112.69 141.04 188.89 153.16 106.5 135.97 29.09 154.6"/><polygon class="cls-7" points="161.55 117.59 213.19 148.97 174.45 181.91 82.61 183.65 31.22 151.99 69.59 119.45 161.55 117.59"/><polygon class="cls-6" points="214.6 151.21 214.38 162.36 174.79 196.17 174.74 184.58 214.6 151.21"/><polygon class="cls-5" points="82.09 198.31 82.21 186.05 174.74 184.58 174.79 196.17 82.09 198.31"/><polygon class="cls-4" points="29.31 154.38 29.36 167.24 82.09 198.31 82.21 186.05 29.31 154.38"/><polygon class="cls-3" points="29.31 154.38 31.22 151.99 82.61 183.65 82.21 186.05 29.31 154.38"/><polygon class="cls-2" points="174.45 181.91 174.74 184.58 82.21 186.05 82.61 183.65 174.45 181.91"/><polygon class="cls-1" points="213.19 148.97 214.6 151.21 174.74 184.58 174.45 181.91 213.19 148.97"/><polygon class="cls-11" points="31.22 151.99 39.2 156.91 76.67 123.33 160.63 119.41 213.19 148.97 161.55 117.59 69.59 119.45 31.22 151.99"/><polygon class="cls-8" points="85.03 131.41 95.26 171.91 168.6 147.47 85.03 131.41"/><polygon class="cls-1" points="168.6 147.47 85.03 131.41 85.92 134.92 162.95 149.35 168.6 147.47"/><polygon class="cls-9" points="95.26 171.91 104.76 168.75 95.54 139.56 157.55 151.15 162.95 149.35 85.92 134.92 95.26 171.91"/><polygon class="cls-7" points="140.84 93.29 192.48 124.67 153.75 157.62 61.91 159.35 10.52 127.69 48.88 95.15 140.84 93.29"/><polygon class="cls-6" points="193.9 126.91 193.67 138.06 154.08 171.87 154.03 160.28 193.9 126.91"/><polygon class="cls-5" points="61.39 174.01 61.51 161.75 154.03 160.28 154.08 171.87 61.39 174.01"/><polygon class="cls-4" points="8.61 130.08 8.66 142.94 61.39 174.01 61.51 161.75 8.61 130.08"/><polygon class="cls-3" points="8.61 130.08 10.52 127.69 61.91 159.35 61.51 161.75 8.61 130.08"/><polygon class="cls-2" points="153.75 157.62 154.03 160.28 61.51 161.75 61.91 159.35 153.75 157.62"/><polygon class="cls-1" points="192.48 124.67 193.9 126.91 154.03 160.28 153.75 157.62 192.48 124.67"/><polygon class="cls-11" points="10.52 127.69 18.5 132.61 55.97 99.03 139.93 95.11 192.48 124.67 140.84 93.29 48.88 95.15 10.52 127.69"/><polygon class="cls-8" points="64.33 107.11 74.56 147.61 147.9 123.17 64.33 107.11"/><polygon class="cls-1" points="147.9 123.17 64.33 107.11 65.21 110.62 142.24 125.05 147.9 123.17"/><polygon class="cls-9" points="74.56 147.61 84.06 144.45 74.83 115.26 136.84 126.85 142.24 125.05 65.21 110.62 74.56 147.61"/><polygon class="cls-1" points="193.15 126.87 193.63 129.35 112.66 147.34 112.69 144.53 193.15 126.87"/><polygon class="cls-2" points="112.66 147.34 32.71 131.29 34.44 128.45 112.69 144.53 112.66 147.34"/><polygon class="cls-3" points="21.59 94.65 32.71 131.29 34.44 128.45 23.47 92.89 21.59 94.65"/><polygon class="cls-4" points="21.59 94.65 20.75 105.91 31.41 143.42 32.76 131.27 21.59 94.65"/><polygon class="cls-5" points="31.41 143.42 111.84 158.95 112.66 147.34 32.76 131.27 31.41 143.42"/><polygon class="cls-6" points="112.66 147.34 111.84 158.95 192.92 140.5 193.63 129.35 112.66 147.34"/><polygon class="cls-7" points="183.28 91.45 100.89 74.26 23.47 92.89 34.44 128.45 112.69 144.53 193.15 126.87 183.28 91.45"/><polygon class="cls-8" points="59.24 122.14 171.32 120.03 102.43 88.08 59.24 122.14"/><polygon class="cls-4" points="102.43 88.08 102.17 91.63 163.72 120.17 171.32 120.03 102.43 88.08"/><polygon class="cls-1" points="63.58 122.06 59.24 122.14 102.43 88.08 102.17 91.63 63.58 122.06"/><polygon class="cls-9" points="78.22 121.78 106.52 96.47 156.67 120.31 163.72 120.17 102.17 91.63 63.58 122.06 78.22 121.78"/><polygon class="cls-10" points="23.47 92.89 25.84 100.55 107.07 79.33 183.28 91.45 100.89 74.26 23.47 92.89"/><polygon class="cls-7" points="145.86 45.72 197.49 77.1 158.76 110.04 66.92 111.78 15.53 80.11 53.89 47.58 145.86 45.72"/><polygon class="cls-6" points="198.91 79.34 198.69 90.48 159.1 124.29 159.05 112.71 198.91 79.34"/><polygon class="cls-5" points="66.4 126.43 66.52 114.17 159.05 112.71 159.1 124.29 66.4 126.43"/><polygon class="cls-4" points="13.62 82.5 13.67 95.37 66.4 126.43 66.52 114.17 13.62 82.5"/><polygon class="cls-3" points="13.62 82.5 15.53 80.11 66.92 111.78 66.52 114.17 13.62 82.5"/><polygon class="cls-2" points="158.76 110.04 159.05 112.71 66.52 114.17 66.92 111.78 158.76 110.04"/><polygon class="cls-1" points="197.49 77.1 198.91 79.34 159.05 112.71 158.76 110.04 197.49 77.1"/><polygon class="cls-11" points="15.53 80.11 23.51 85.03 60.98 51.45 144.94 47.54 197.49 77.1 145.86 45.72 53.89 47.58 15.53 80.11"/><polygon class="cls-8" points="69.34 59.54 79.57 100.04 152.91 75.59 69.34 59.54"/><polygon class="cls-1" points="152.91 75.59 69.34 59.54 70.22 63.04 147.25 77.48 152.91 75.59"/><polygon class="cls-9" points="79.57 100.04 89.07 96.87 79.85 67.68 141.85 79.28 147.25 77.48 70.22 63.04 79.57 100.04"/><polygon class="cls-7" points="173.52 24.3 225.16 55.68 186.42 88.62 94.58 90.36 43.19 58.7 81.56 26.16 173.52 24.3"/><polygon class="cls-6" points="226.57 57.92 226.35 69.07 186.76 102.88 186.71 91.29 226.57 57.92"/><polygon class="cls-5" points="94.06 105.02 94.18 92.75 186.71 91.29 186.76 102.88 94.06 105.02"/><polygon class="cls-4" points="41.28 61.09 41.33 73.95 94.06 105.02 94.18 92.75 41.28 61.09"/><polygon class="cls-3" points="41.28 61.09 43.19 58.7 94.58 90.36 94.18 92.75 41.28 61.09"/><polygon class="cls-2" points="186.42 88.62 186.71 91.29 94.18 92.75 94.58 90.36 186.42 88.62"/><polygon class="cls-1" points="225.16 55.68 226.57 57.92 186.71 91.29 186.42 88.62 225.16 55.68"/><polygon class="cls-11" points="43.19 58.7 51.17 63.61 88.64 30.04 172.6 26.12 225.16 55.68 173.52 24.3 81.56 26.16 43.19 58.7"/><polygon class="cls-8" points="97 38.12 107.23 78.62 180.57 54.17 97 38.12"/><polygon class="cls-1" points="180.57 54.17 97 38.12 97.89 41.63 174.92 56.06 180.57 54.17"/><polygon class="cls-9" points="107.23 78.62 116.73 75.45 107.51 46.27 169.52 57.86 174.92 56.06 97.89 41.63 107.23 78.62"/><polygon class="cls-7" points="152.81 0 204.45 31.38 165.72 64.32 73.88 66.06 22.49 34.4 60.85 1.86 152.81 0"/><polygon class="cls-6" points="205.87 33.62 205.64 44.77 166.06 78.58 166.01 66.99 205.87 33.62"/><polygon class="cls-5" points="73.36 80.72 73.48 68.46 166.01 66.99 166.06 78.58 73.36 80.72"/><polygon class="cls-4" points="20.58 36.79 20.63 49.65 73.36 80.72 73.48 68.46 20.58 36.79"/><polygon class="cls-3" points="20.58 36.79 22.49 34.4 73.88 66.06 73.48 68.46 20.58 36.79"/><polygon class="cls-2" points="165.72 64.32 166.01 66.99 73.48 68.46 73.88 66.06 165.72 64.32"/><polygon class="cls-1" points="204.45 31.38 205.87 33.62 166.01 66.99 165.72 64.32 204.45 31.38"/><polygon class="cls-11" points="22.49 34.4 30.47 39.31 67.94 5.74 151.9 1.82 204.45 31.38 152.81 0 60.85 1.86 22.49 34.4"/><polygon class="cls-8" points="76.3 13.82 86.53 54.32 159.87 29.88 76.3 13.82"/><polygon class="cls-1" points="159.87 29.88 76.3 13.82 77.18 17.33 154.21 31.76 159.87 29.88"/><polygon class="cls-9" points="86.53 54.32 96.03 51.16 86.81 21.97 148.81 33.56 154.21 31.76 77.18 17.33 86.53 54.32"/><polygon class="cls-7" points="285.36 317.46 336.99 348.85 298.26 381.79 206.42 383.52 155.03 351.86 193.4 319.33 285.36 317.46"/><polygon class="cls-6" points="338.41 351.08 338.19 362.23 298.6 396.04 298.55 384.45 338.41 351.08"/><polygon class="cls-5" points="205.9 398.18 206.02 385.92 298.55 384.45 298.6 396.04 205.9 398.18"/><polygon class="cls-4" points="153.12 354.25 153.17 367.12 205.9 398.18 206.02 385.92 153.12 354.25"/><polygon class="cls-3" points="153.12 354.25 155.03 351.86 206.42 383.52 206.02 385.92 153.12 354.25"/><polygon class="cls-2" points="298.26 381.79 298.55 384.45 206.02 385.92 206.42 383.52 298.26 381.79"/><polygon class="cls-1" points="336.99 348.85 338.41 351.08 298.55 384.45 298.26 381.79 336.99 348.85"/><polygon class="cls-11" points="155.03 351.86 163.01 356.78 200.48 323.2 284.44 319.29 336.99 348.85 285.36 317.46 193.4 319.33 155.03 351.86"/><polygon class="cls-8" points="208.84 331.29 219.07 371.79 292.41 347.34 208.84 331.29"/><polygon class="cls-1" points="292.41 347.34 208.84 331.29 209.72 334.79 286.75 349.23 292.41 347.34"/><polygon class="cls-9" points="219.07 371.79 228.57 368.62 219.35 339.43 281.35 351.03 286.75 349.23 209.72 334.79 219.07 371.79"/><polygon class="cls-7" points="264.65 293.17 316.29 324.55 277.56 357.49 185.72 359.23 134.32 327.56 172.69 295.03 264.65 293.17"/><polygon class="cls-6" points="317.71 326.79 317.48 337.93 277.89 371.74 277.84 360.16 317.71 326.79"/><polygon class="cls-5" points="185.2 373.88 185.32 361.62 277.84 360.16 277.89 371.74 185.2 373.88"/><polygon class="cls-4" points="132.41 329.95 132.47 342.82 185.2 373.88 185.32 361.62 132.41 329.95"/><polygon class="cls-3" points="132.41 329.95 134.32 327.56 185.72 359.23 185.32 361.62 132.41 329.95"/><polygon class="cls-2" points="277.56 357.49 277.84 360.16 185.32 361.62 185.72 359.23 277.56 357.49"/><polygon class="cls-1" points="316.29 324.55 317.71 326.79 277.84 360.16 277.56 357.49 316.29 324.55"/><polygon class="cls-11" points="134.32 327.56 142.31 332.48 179.77 298.9 263.74 294.99 316.29 324.55 264.65 293.17 172.69 295.03 134.32 327.56"/><polygon class="cls-8" points="188.13 306.99 198.37 347.49 271.71 323.04 188.13 306.99"/><polygon class="cls-1" points="271.71 323.04 188.13 306.99 189.02 310.49 266.05 324.93 271.71 323.04"/><polygon class="cls-9" points="198.37 347.49 207.87 344.32 198.64 315.13 260.65 326.73 266.05 324.93 189.02 310.49 198.37 347.49"/><polygon class="cls-12" points="267.11 95.26 265.47 78.96 263.84 95.26 247.55 96.89 263.84 98.52 265.47 114.81 267.11 98.52 283.4 96.89 267.11 95.26"/><polygon class="cls-12" points="19.56 77.33 17.93 61.04 16.29 77.33 0 78.96 16.29 80.6 17.93 96.89 19.56 80.6 35.85 78.96 19.56 77.33"/><polygon class="cls-13" points="76.13 350.88 58.99 389.95 62.43 366.66 76.13 350.88"/><polygon class="cls-14" points="58.99 389.95 35.32 383.77 62.43 366.66 58.99 389.95"/><polygon class="cls-14" points="13.65 386.57 35.32 383.77 58.99 389.95 13.65 386.57"/><polygon class="cls-15" points="50.08 345.68 62.43 366.66 76.13 350.88 50.08 345.68"/><polygon class="cls-16" points="37.03 354.85 62.43 366.66 35.32 383.77 37.03 354.85"/><polygon class="cls-17" points="22.99 361.34 13.65 386.57 35.32 383.77 22.99 361.34"/><polygon class="cls-17" points="14.3 362.18 13.65 386.57 8.11 379.7 14.3 362.18"/><polygon class="cls-17" points="70.3 341.83 76.13 350.88 50.08 345.68 70.3 341.83"/><polygon class="cls-12" points="14.3 362.18 22.99 361.34 13.65 386.57 14.3 362.18"/><polygon class="cls-15" points="37.03 354.85 22.99 361.34 35.32 383.77 37.03 354.85"/><polygon class="cls-12" points="50.08 345.68 37.03 354.85 62.43 366.66 50.08 345.68"/><polygon class="cls-12" points="52.09 341.89 50.08 345.68 70.3 341.83 52.09 341.89"/><polyline class="cls-13" points="37.03 354.85 35.32 383.77 39.91 380.87 38.58 357.6 47.38 359.67 37.03 354.85"/><polygon class="cls-13" points="39.91 380.87 58.99 389.95 35.32 383.77 39.91 380.87"/><polygon class="cls-18" points="65.08 363.6 62.43 366.66 58.99 389.95 65.08 363.6"/><polygon class="cls-15" points="22.99 361.34 13.65 386.57 24.1 367.97 27.49 369.53 22.99 361.34"/><polygon class="cls-13" points="25.36 385.06 58.99 389.95 13.65 386.57 25.36 385.06"/><ellipse class="cls-19" cx="33.45" cy="352.48" rx="21.65" ry="3.8" transform="translate(-162.74 57.74) rotate(-28.23)"/><path class="cls-17" d="M34.16,348.8c7.11-3.81,13.78-6.31,17.93-6.91-2.25-.95-11,2.08-20.58,7.22C21,354.77,13.43,360.9,14.43,362.75c.25.46,1,.62,2.23.49C16.59,360.44,24,354.25,34.16,348.8Z"/><path class="cls-13" d="M50.48,346.43s-1.89,1.67-1.89,1.67l14.25,19.28Z"/><polygon class="cls-12" points="8.11 379.7 13.65 386.57 35.32 383.77 63.23 369.19 76.13 350.88 70.3 341.83 70.3 341.83 75.12 350.65 62.43 366.66 62.43 366.66 35.51 382.96 13.92 385.44 8.11 379.7"/><path class="cls-12" d="M54.53,341.83c1.11,1.93-7.68,9.33-16.14,13.51-10.88,5.84-20.76,8.91-23.21,7.86,2.67.51,10.91-2.46,20.06-7.37,10.53-5.65,18.26-11.74,17.27-13.59a.91.91,0,0,0-.42-.35l2.44-.06"/><polygon class="cls-12" points="23.15 361.65 35.32 383.77 26.34 360.14 23.15 361.65"/><polygon class="cls-12" points="16.68 360.42 15.53 348.92 14.38 360.42 2.88 361.57 14.38 362.72 15.53 374.22 16.68 362.72 28.18 361.57 16.68 360.42"/><polygon class="cls-12" points="6.23 358.82 6.76 353.51 12.06 352.98 6.76 352.45 6.23 347.15 5.7 352.45 0.4 352.98 5.7 353.51 6.23 358.82"/><polygon class="cls-13" points="128.32 405.62 86.07 397.93 109.43 396.7 128.32 405.62"/><polygon class="cls-14" points="86.07 397.93 85.62 375.24 109.43 396.7 86.07 397.93"/><polygon class="cls-17" points="77.06 355.14 85.62 375.24 86.07 397.93 77.06 355.14"/><polygon class="cls-15" points="126.28 379.13 109.43 396.7 128.32 405.62 126.28 379.13"/><polygon class="cls-16" points="113.92 369.06 109.43 396.7 85.62 375.24 113.92 369.06"/><polygon class="cls-17" points="103.88 357.3 77.06 355.14 85.62 375.24 103.88 357.3"/><polygon class="cls-12" points="100.72 349.15 77.06 355.14 82.17 347.94 100.72 349.15"/><polygon class="cls-13" points="135.47 397.56 128.32 405.62 126.28 379.13 135.47 397.56"/><polygon class="cls-17" points="100.72 349.15 103.88 357.3 77.06 355.14 100.72 349.15"/><polygon class="cls-15" points="113.92 369.06 103.88 357.3 85.62 375.24 113.92 369.06"/><polygon class="cls-12" points="126.28 379.13 113.92 369.06 109.43 396.7 126.28 379.13"/><polygon class="cls-16" points="130.48 380.05 126.28 379.13 135.47 397.56 130.48 380.05"/><polyline class="cls-13" points="113.92 369.06 85.62 375.24 89.65 378.88 111.69 371.29 112.09 380.32 113.92 369.06"/><polygon class="cls-13" points="89.65 378.88 86.07 397.93 85.62 375.24 89.65 378.88"/><polygon class="cls-18" points="113.09 398.43 109.43 396.7 86.07 397.93 113.09 398.43"/><polygon class="cls-15" points="103.88 357.3 77.06 355.14 97.79 360.16 97.2 363.84 103.88 357.3"/><polygon class="cls-13" points="81.68 365.99 86.07 397.93 77.06 355.14 81.68 365.99"/><ellipse class="cls-19" cx="115.23" cy="364.96" rx="3.8" ry="21.65" transform="translate(-220.97 182.08) rotate(-43.93)"/><path class="cls-12" d="M119,364.66c5.6,5.8,9.81,11.55,11.52,15.38.3-2.42-5-10-12.53-17.85-8.29-8.61-16.24-14.22-17.75-12.76-.38.37-.32,1.17.13,2.29C103,350.89,111,356.37,119,364.66Z"/><path class="cls-13" d="M125.67,379.72s-2.12-1.37-2.12-1.37l-14.7,18.94Z"/><polygon class="cls-12" points="82.17 347.94 77.06 355.14 85.62 375.24 107.2 398.16 128.32 405.62 135.47 397.56 135.47 397.56 128.28 404.59 109.43 396.7 109.43 396.7 86.45 375.2 78.22 355.09 82.17 347.94"/><polygon class="cls-12" points="103.62 357.53 85.62 375.24 105.94 360.2 103.62 357.53"/><path class="cls-17" d="M131.19,382.37c-1.56,1.6-11.06-4.86-17.37-11.88-8.57-8.88-14.2-17.57-13.85-20.21.23,2.7,5.32,9.84,12.52,17.31,8.29,8.61,16.25,14.41,17.76,13a.91.91,0,0,0,.23-.5l.71,2.33"/></svg>