<?xml version="1.0" encoding="utf-8"?>
<!-- Generator: Adobe Illustrator 24.2.3, SVG Export Plug-In . SVG Version: 6.00 Build 0)  -->
<svg version="1.1" id="Laag_1" xmlns="http://www.w3.org/2000/svg" xmlns:xlink="http://www.w3.org/1999/xlink" x="0px" y="0px"
	 viewBox="0 0 497 81" style="enable-background:new 0 0 497 81;" xml:space="preserve">
<style type="text/css">
	.st0{fill-rule:evenodd;clip-rule:evenodd;fill:#F3DCB5;}
	.st1{fill-rule:evenodd;clip-rule:evenodd;fill:#A67C52;}
</style>
<g>
	<polygon class="st0" points="5,0 8.5,7.8 11.9,0 55.9,0 59.3,10.7 62.7,0 70.9,0 72.2,5.9 73.5,0 191.4,0 195.7,13.7 200,0 
		240.6,0 242.5,8.8 244.4,0 425.6,0 427.8,9.8 429.9,0 431.4,0 434.3,14.6 437.1,0 495,0 495,79 464.5,79 460.6,61.5 456.8,79 
		416.8,79 412.8,66.4 408.8,79 267.2,79 264.4,70.3 261.7,79 219.4,79 216.6,66.4 213.8,79 115.4,79 111.1,69.3 106.7,79 0,79 0,0 	
		"/>
	<g>
		<polygon class="st1" points="106.7,79 0,79 0,81 108.7,81 112.5,72.5 111.1,69.3 		"/>
		<polygon class="st1" points="243.3,5.2 242.6,2 240.6,0 242.5,8.8 		"/>
		<polygon class="st1" points="213.8,79 115.5,79 117.4,81 215.8,81 217.8,71.9 216.6,66.4 		"/>
		<polygon class="st1" points="261.7,79 219.4,79 221.4,81 263.6,81 265.7,74.4 264.4,70.3 		"/>
		<polygon class="st1" points="73,2.3 72.9,2 70.9,0 72.2,5.9 		"/>
		<polygon class="st1" points="196.4,11.5 193.4,2 191.4,0 195.7,13.7 		"/>
		<polygon class="st1" points="59.9,8.6 57.9,2 55.9,0 59.3,10.7 		"/>
		<polygon class="st1" points="9,6.5 7,2 5,0 8.5,7.8 		"/>
		<polygon class="st1" points="435.1,10.5 433.4,2 431.4,0 434.3,14.6 		"/>
		<polygon class="st1" points="456.8,79 416.8,79 418.8,81 458.8,81 461.9,67 460.6,61.5 		"/>
		<polygon class="st1" points="497,81 466.5,81 464.5,79 495,79 		"/>
		<polygon class="st1" points="428.6,6.2 427.6,2 425.6,0 427.8,9.8 		"/>
		<polygon class="st1" points="408.8,79 267.2,79 269.2,81 410.8,81 414.1,70.5 412.8,66.4 		"/>
	</g>
</g>
<polygon class="st0" points="495,0 497,2.5 497,81 495,79 "/>
</svg>
