<svg xmlns="http://www.w3.org/2000/svg" xmlns:xlink="http://www.w3.org/1999/xlink" viewBox="0 0 371.35 386.5"><defs><style>.cls-1,.cls-18{isolation:isolate;}.cls-2{fill:url(#radial-gradient);}.cls-3{fill:#b66d44;}.cls-4{fill:#966649;}.cls-4,.cls-6{opacity:0.5;mix-blend-mode:multiply;}.cls-5,.cls-6{fill:#13814c;}.cls-7{fill:#ef8620;}.cls-8{fill:#f4ab37;}.cls-9{fill:#fbf9ad;}.cls-10{fill:#faeb8a;}.cls-11{fill:#ef9920;}.cls-12{fill:#dd690a;}.cls-13{fill:#fbd74b;}.cls-14{fill:#f8c715;}.cls-15{fill:#e4b012;opacity:0.8;}.cls-16{fill:#feedb7;}.cls-17{fill:#fef3ce;}.cls-18{fill:#290000;opacity:0.4;}.cls-19{fill:#760007;}.cls-20{fill:#930007;}.cls-21{fill:#c0262c;}.cls-22{fill:#b50007;}.cls-23{fill:#d97c7f;}.cls-24{fill:#800007;}.cls-25{fill:#e09496;}.cls-26{fill:#d16165;}.cls-27{fill:#990007;}.cls-28{fill:#5d0007;}.cls-29{fill:#cd5357;}.cls-30{fill:#a61118;}.cls-31{fill:#fff;}</style><radialGradient id="radial-gradient" cx="185.67" cy="340.68" r="75.29" gradientTransform="translate(1207.72 155.01) rotate(90) scale(1 3)" gradientUnits="userSpaceOnUse"><stop offset="0" stop-color="#013700"/><stop offset="0.56" stop-color="#7bbd40"/></radialGradient></defs><g class="cls-1"><g id="Layer_1" data-name="Layer 1"><ellipse class="cls-2" cx="185.67" cy="340.68" rx="185.67" ry="45.82"/><polygon class="cls-3" points="224.5 302.28 225.7 302.28 234.47 302.28 235.68 302.28 242.12 336.79 234.47 336.79 225.7 336.79 218.06 336.79 224.5 302.28"/><path class="cls-4" d="M237.17,321.63a26.32,26.32,0,0,1-3.8-1.23,18,18,0,0,1-7.77-5.26,25.25,25.25,0,0,0,2.22,5.08c-1.44-.34-2.62-2-3.35-3.13-.05-.08-2.24,2.07-3.31,3l3.33-17.81h11.19l3.65,19.59A7.79,7.79,0,0,1,237.17,321.63Z"/><path class="cls-5" d="M182.81,288a24.27,24.27,0,0,0,6.13-3.94c-.83,1.55-1.64,3.09-2.47,4.61-4.7,8.59-17.31,24.71-16.4,24.87,7.27,1.33,14.69-1,21.89-6.18,1.33-1.9,2.62-3.92,3.9-5.95-1.3,4.72-4,17-3.41,17.25,7.12,3.51,13.59-4,18.17-15.64-.17,4.3.3,16.43.9,15.88,4.39-4.07,7.91-11.18,10.76-19.33,4.2,8.46,9.37,14.93,14.19,15.94.52.09-1-8-1.8-11.38,4.67,4.85,9.73,11.25,14.78,12.27.46.09-1.21-6.82-2.14-9.29,5.25,5.73,10.72,9.28,15.59,10.46,1.22.3-3.29-9.62-4.52-12,3.79,2.84,14.62,10.72,18.2,9.62.89-.28-7.29-11.35-7.52-11.82l-.27-.52c8.86,8.36,18.22,12.4,27.34,10.73.92-.16-11.35-16.07-16-24.18l.69.32c6.94,3.05,18.32,8.78,24.79.17.73-1-15-15-21.32-23.47-.3-.39-.6-.79-.91-1.17a19.6,19.6,0,0,0,17.33-.28c.86-.41-13.3-23.38-19.24-34,2,1.88,8.87,5.48,11,6.13,1.06.33-11.11-18.16-13.92-24.15a13.4,13.4,0,0,0,12.74,2.28c.92-.3-13.11-28.28-19.11-40.66a12.84,12.84,0,0,0,10.86.6c1-.4-6.85-9.9-9.39-13.8,4.3,2.68,8.75,3.34,13.19.8.73-.44-7.37-13.34-14.2-25.49a9.65,9.65,0,0,0,7.24-1.77c.09-.06-.09-.35-.12-.37-5.68-2.65-10.68-8.52-14.71-15.67a119.53,119.53,0,0,1-5.84-12.25c-.93-2.2-1.81-4.45-2.71-6.66-.27-.66-.61-1.37-.92-2.12,5.17,10,12.56,13,18.54,10.08.75-.38-13.43-19.1-19.1-29.76a9.8,9.8,0,0,0,5.49,2.43c.56,0-7.72-13.49-10.63-21.06-1.69-4.39-4.43-13-5.46-15.1,3.5,7,7.37,13.71,11.87,13.68a.42.42,0,0,0,.24-.09c-5.51-7.53-10-18.42-14-29.55C239.27,19.34,235.82,10,232.94,0c-5.79,22-13.18,44.45-23.11,58l.06,0c4.49,0,8.36-6.71,11.87-13.68-1,2.07-3.78,10.71-5.45,15.1a71.59,71.59,0,0,1-4.82,10.17,59.2,59.2,0,0,1-5.57,10.85,9.87,9.87,0,0,0,5.23-2.39c-2.66,5-14.36,23.73-17.88,28.05-.44.54-.87,1.06-1.31,1.56a.35.35,0,0,0,.11.15c5.77,2.86,12.83.07,18-9.07-5.25,12.9-13.25,21.84-21.37,29.18-.07.06.06.3.09.35a9,9,0,0,0,7.37,3.57c-7.14,13.29-17.64,29.73-16.81,30.22,4.45,2.54,8.91,1.88,13.2-.8-2.53,3.9-10.37,13.4-9.39,13.8a12.82,12.82,0,0,0,10.85-.6c-6,12.38-20,40.36-19.1,40.66a13.4,13.4,0,0,0,12.74-2.28c-2.81,6-15.52,27.14-14.48,26.82,2.14-.67,9.59-6.92,11.56-8.8-5.94,10.65-20.09,33.62-19.23,34A19.27,19.27,0,0,0,176.25,267c-4.09,8.16-13.3,21.2-13,21.48C169.63,293.77,176.35,290.82,182.81,288Z"/><path class="cls-6" d="M163.29,288.46c-.34-.28,8.87-13.32,13-21.48a19.27,19.27,0,0,1-10.77-2.05c-.86-.41,13.29-23.38,19.23-34-2,1.88-9.42,8.13-11.56,8.8-1,.32,11.67-20.83,14.48-26.82a13.4,13.4,0,0,1-12.74,2.28c-.93-.3,13.12-28.28,19.1-40.66a12.82,12.82,0,0,1-10.85.6c-1-.4,6.86-9.9,9.39-13.8-4.29,2.68-8.75,3.34-13.2.8-.83-.49,9.67-16.93,16.81-30.22a9,9,0,0,1-7.37-3.57c0-.05-.16-.29-.09-.35,8.12-7.34,16.12-16.28,21.37-29.18-5.15,9.14-12.21,11.93-18,9.07a.35.35,0,0,1-.11-.15c.44-.5.87-1,1.31-1.56,3.52-4.32,15.22-23,17.88-28a9.87,9.87,0,0,1-5.23,2.39,59.2,59.2,0,0,0,5.57-10.85,71.59,71.59,0,0,0,4.82-10.17c1.67-4.39,4.4-13,5.45-15.1-3.51,7-7.38,13.71-11.87,13.68l-.06,0C219.67,44.59,227,22.4,232.77.62a117.34,117.34,0,0,1-1.93,19.13,97.25,97.25,0,0,1-6.31,20.67c-.13.27.1.61.26.45,2.43-2.52,5.47-5.52,6.81-10-.14,2.79-.2,5.59-.36,8.38,0,.3.22.42.34.23A24.61,24.61,0,0,0,234.37,33a17.73,17.73,0,0,0,1.54,6.19c.09.18.29.1.32-.15a32.45,32.45,0,0,0,.29-5.45c.41,1.15.87,2.25,1.32,3.38,1.28,3.24,2.31,6.94,4.31,9.12.14.16.33-.1.28-.37a83.66,83.66,0,0,1-1.68-10.9c1,2.88,2.42,5.54,4.09,7,.14.12.35-.08.28-.38-.44-2-1.12-3.77-1.58-5.73,3.65,8.15,7.28,16.47,12.25,22.3-4.26-.45-8-6.94-11.34-13.64,1,2.07,3.77,10.71,5.46,15.1,2.91,7.57,11.19,21.11,10.63,21.06l-.26,0a45.72,45.72,0,0,1-6.83-9.16,66.15,66.15,0,0,1-6.54-14.7c-.13-.4-.44-.06-.35.33a74.19,74.19,0,0,0,3.92,11c-3.4-2.73-6-7.81-8.69-12.15-.16-.26-.41.06-.3.4.53,1.68,1,3.4,1.59,5-1.62-1.95-2.81-4.75-4.25-7.06-.15-.23-.37,0-.33.32.33,2.31.95,4.51,1.11,6.87-1.59-3-2.74-6.56-4.14-9.81-.12-.29-.42-.13-.35.25a64.81,64.81,0,0,1,1,9.1,25.18,25.18,0,0,1-.6,8.13c-1.2-5.64-2.25-11.42-4.44-16.22-.12-.29-.4-.14-.35.25a29.28,29.28,0,0,1,.49,5.92c-1-2.22-1.36-5.06-2.6-7-.11-.18-.34-.07-.34.24A53.65,53.65,0,0,1,225.9,68c-.31,1-.63,2.06-1,3.08a92.4,92.4,0,0,0,1-15.69c0-.38-.32-.43-.38-.08-1.31,6.22-2.61,12.65-4.85,18.12-2,4.91-4.63,9-6.56,14-.1.24,0,.55.21.48,2.84-1.24,4.92-5,6.87-8.57-1.16,3.48-2.73,6.58-3.91,10.06-.1.25.05.55.21.49a18.8,18.8,0,0,0,6.23-4.26,15.61,15.61,0,0,0,1.63-2c-.45,2.26-.9,4.51-1.5,6.65-.1.32.15.7.3.4,1.69-3.35,3.55-6.81,4.37-11,.1,3.12.35,6.22.7,9.28.05.36.31.28.38,0a29.22,29.22,0,0,0,.66-6.06c.83,3.72,1.7,7.6,3.45,10.33.15.24.38,0,.34-.32-.26-2-.56-4-.82-6,2.83,6.43,6.7,11.84,11.26,13.74.16.07.33-.24.22-.49-1.51-3.34-2.9-6.85-4.17-10.45a38.82,38.82,0,0,0,3.1,3.59,72.05,72.05,0,0,0,5.43,5c1.41,1.15,3.12,2.56,4.74,2,.12,0,.17-.32.12-.49-.93-2.48-2.28-4.27-3.34-6.55a36.79,36.79,0,0,1-1.51-4.41c1.09,1.8,2.35,3.36,3.83,3.58.18,0,.23-.37.14-.57a32,32,0,0,1-2.22-6.07c4,7.52,9.56,12.11,14.68,17.06a26.88,26.88,0,0,0,5.65,4.35,6,6,0,0,0,2.49.92c-5.88,2.54-13-.64-18-10.32.31.75.65,1.46.92,2.12.9,2.21,1.78,4.46,2.71,6.66,1.53,3.64,3.14,7.21,4.91,10.54a1.8,1.8,0,0,1-.2-.19c-1.11-1-2.21-2.12-3.27-3.28-2.43-2.74-4.7-6.06-7.43-7.91-.18-.1-.3.28-.22.5,1.32,4.3,3.72,7.06,5.54,10.69-5.18-1.1-9.94-4.94-14.75-8.14-.18-.11-.33.34-.18.56.9,1.35,1.89,2.54,2.79,3.89-1.78-.7-3.3-2.6-4.89-4.06-.22-.19-.4.34-.19.57a38,38,0,0,1,2.88,4.31c.78,1.2,6.18,6.5,7.52,9.11-1.45.13-7.33-3.85-8.86-5a75.93,75.93,0,0,1-11-9.73c-.18-.21-.37.24-.22.52.76,1.45,1.55,2.91,2.31,4.37-1.86-1.41-3.35-4.38-4.59-7-.11-.24-.32,0-.32.24a91.08,91.08,0,0,1-1.63,14.78v-1.17c-.08-4-.47-8-.85-11.91,0-.28-.29-.32-.35-.08-1,3.22-1.72,6.74-2.95,9.74a76.05,76.05,0,0,0,.13-13.24c0-.34-.33-.3-.37,0a36,36,0,0,1-2,7.79c.1-2.92.41-5.84-.14-8.69,0-.32-.3-.3-.37,0a62.33,62.33,0,0,1-5.63,15.09c-2.27,4.22-4.86,7.94-7,12.35-.12.25,0,.63.2.55a20.17,20.17,0,0,0,6.64-4.73c-1.38,6.53-4.71,12-7.79,16.18-.13.18,0,.57.14.56a11.06,11.06,0,0,0,6-2.75,19,19,0,0,0,4.66-5.48c-.25,2.45-.65,4.84-.94,7.28-.05.31.16.55.32.31a21,21,0,0,0,2.29-5.74,116.41,116.41,0,0,1-.93,13c0,.34.18.51.32.31,1.92-2.6,3.2-6.75,3.8-11.08A120.14,120.14,0,0,1,225,154.13c0,.24.23.31.33.14,1.66-3.18,2.18-7.35,2.5-11.52a45,45,0,0,0,2.77,4.32c2.1,2.93,4.34,6.71,7.14,7.46.13,0,.29-.14.23-.39a28.14,28.14,0,0,0-1.78-4.93,31.47,31.47,0,0,1-.92-3.21,27.08,27.08,0,0,0,6,7.25c.16.15.39-.17.27-.45a63.8,63.8,0,0,1-2.33-7,44.9,44.9,0,0,0,5.59,5.61,84.91,84.91,0,0,0,7.07,5.21c2.25,1.53,4.7,3.18,7.18,3,.16,0,.25-.35.13-.55-2-3.43-4.36-6-6.41-9.26,3.06,2.91,6.2,5.89,9.71,6.76.23,0,.34-.38.16-.61-2.16-2.61-4.37-5.13-6.41-8,.39.33.79.66,1.19,1a46,46,0,0,0,4,2.84c1.23.8,2.52,1.56,3.85,1.36.15,0,.27-.35.14-.56-2.75-4.49-5.53-8.93-8-13.83,2.25,2.48,4.25,5.58,6.5,8.09a63.86,63.86,0,0,0,8.35,7.66,68.9,68.9,0,0,0,8.68,5.86,13.14,13.14,0,0,0,5.86,1.81c-4.41,2.49-8.83,1.82-13.1-.84,2.54,3.9,10.37,13.4,9.39,13.8a12.84,12.84,0,0,1-10.86-.6c1.92,4,4.66,9.51,7.46,15.24-2.44-.72-4.79-2.65-6.91-4.64-2.95-2.78-5.71-6.11-8.67-8.87-.16-.15-.39.17-.26.45a58.66,58.66,0,0,0,5.37,9.2c-3.47-1.44-6.31-5.4-9.39-8.31-.19-.17-.41.26-.25.52,2.95,4.49,5.81,9.19,9.25,12.6-3.59-.11-7.15-1.68-10.5-3.78a51.79,51.79,0,0,1-10.42-8.8c-.15-.18-.37.18-.27.46,1,2.42,2.25,4.6,3.32,7-2.26-1.39-3.91-4.56-5.71-7.13-.12-.2-.4,0-.32.32a55.15,55.15,0,0,0,6.73,16.76,22.39,22.39,0,0,1-6.2-5.17c-2.73-3-5.3-6.46-8.19-9-.17-.15-.37.16-.27.45,1,2.64,1.93,5.33,2.83,8.05-2.51-2.72-4.26-7.06-6.33-10.6-.12-.2-.32,0-.33.23-.15,3.93-.25,8.34-1.64,11.65-.64-3.56-.73-7.33-1.31-10.92,0-.33-.31-.29-.38,0-.74,3.43-1.83,6.9-3.78,8.71-.25-3,0-6.05-.44-9,0-.28-.28-.32-.36-.08a28.51,28.51,0,0,1-2.53,6.46c-.05-2.1.17-4.2.19-6.29,0-.41-.3-.42-.39-.09-1.14,5-4.24,7.76-6.94,10.05-.12-3.56,1.06-6.89.83-10.51,0-.26-.21-.47-.34-.23a44.05,44.05,0,0,1-6.1,9.22,21.39,21.39,0,0,1-5.57,4.32c.37-1.36.7-2.75,1-4.13a43.2,43.2,0,0,0,1-13.56c0-.3-.27-.3-.35-.07-4,10.47-7.38,21.88-13.74,28.89-.19.19-.07.74.15.6a33.58,33.58,0,0,0,6.85-6.45,95.14,95.14,0,0,1-11.93,19.55c-.12.15-.13.54,0,.59,3.79,1.16,7.79-.05,11.34-2.41a26.16,26.16,0,0,0,4.38-3.69,58.56,58.56,0,0,1-4.07,8.82c-2.49,4.3-5.72,7.25-8.09,11.78a.51.51,0,0,0,.05.52c2,1.78,4.69.74,6.75-.18a43.26,43.26,0,0,0,6.63-3.84,34.29,34.29,0,0,0,5.67-4.62c-1.12,3-2.25,6-3.41,9-.1.27.1.64.27.45,2.17-2.44,4.68-4.92,6.47-8.33a51.47,51.47,0,0,1-3.12,8.7c-1.57,3.1-3.87,5.34-4.88,9.12-.07.22,0,.5.16.5,1.95-.07,3.81-2,5.39-3.72,1.78-2,3.43-4.21,5.11-6.41a46,46,0,0,0,6.8-12.59,96.8,96.8,0,0,1-1.14,14c-.05.33.18.51.33.31a26.34,26.34,0,0,0,4.43-11.32,172.25,172.25,0,0,1,.32,19.15c0,.29.23.45.33.22a56.24,56.24,0,0,0,4-10.53c.29-1.12.56-2.27.79-3.46a56.22,56.22,0,0,0,3.43,6.2c1.74,2.67,3.67,5.23,5.91,6.54.15.09.33-.25.22-.48a52.87,52.87,0,0,1-2.33-6.53,36,36,0,0,0,2.06,3.76c1.31,2.09,2.78,4.12,4.49,5.15.15.07.29-.2.25-.42-.38-1.86-.85-3.67-1.37-5.42a60.08,60.08,0,0,0,6.82,7.72c2.34,2.24,4.73,4.3,7.17,6.22,2.24,1.77,4.67,3.59,7.19,3.45.19,0,.28-.46.1-.62-5.32-4.45-9.76-11.25-13.72-18.74,1.55,1.57,3.17,3,4.78,4.34,4.15,3.47,8.45,7.36,13.08,8.56.22.06.33-.38.15-.6a78.73,78.73,0,0,1-4.66-6.76c2.35,2.57,4.63,5.27,7.07,7.53,2.69,2.49,5.65,4.76,8.76,4.67.16,0,.29-.36.15-.55-3.34-4.41-6.87-8.42-9.43-14.14,4.91,6.09,9.92,12,15.39,16.67,3.89,3.31,7.93,7.48,12.25,9.27a19.62,19.62,0,0,1-16.24-.24c.31.38.61.78.91,1.17,5,6.73,15.95,16.94,19.88,21.36-4.55,0-9.07-1.88-13.36-4.44-5.2-3.12-10.16-7.23-15.16-11.17-.19-.14-.4.23-.24.51a51.36,51.36,0,0,0,7.59,10.1c-8.47-1.08-15.77-9.34-23.59-14.13-.16-.1-.32.25-.23.47A35.51,35.51,0,0,0,266,279.6c-3.08-.08-6.2-2-9-4.11a79.06,79.06,0,0,1-9.51-9c-.12-.12-.31,0-.3.28a25.79,25.79,0,0,0,2.31,8.83c-1.84-1.62-3.24-4.46-4.67-6.9-.13-.23-.41,0-.33.31.94,4,2.83,6.87,4.51,10-4.31-2.35-8-7.46-11.68-11.72-.16-.17-.32.12-.29.37a18.22,18.22,0,0,0,3.07,7.75c1.35,2.1,3,4.13,3.76,7-5.14-2.33-9.57-7.59-14-12.4-.09-.12-.26,0-.28.18a35.23,35.23,0,0,1-1.62,7.5c-.32-3-.78-5.93-1.34-8.84-.07-.29-.33-.33-.38,0-.68,5.34-3,9.51-4.89,13.72-.31-5.45-.56-11-2.06-15.95-.07-.25-.31-.17-.35.09a46.47,46.47,0,0,1-6.1,15.94c0-4.46-.43-9-.35-13.44,0-.38-.33-.45-.39-.09a51,51,0,0,1-3.07,12.22c.16-5.38.28-10.74-1-15.79-.06-.25-.34-.19-.35.08-1.19,14.1-4.95,27.26-9.2,39.41-.1.27.1.64.27.45a35.76,35.76,0,0,0,5.95-9.57c-.84,4.58-1.85,9.06-3,13.41-.08.27.09.66.26.45,4.24-5.12,8.59-10.74,10.72-19a191.48,191.48,0,0,1,.1,20.33c0,.32.21.39.33.24,2.91-4.08,4.53-9.83,6.48-15.11.54-1.44,1-3,1.44-4.48.64,1.67,1.34,3.27,2.06,4.75,1.74,3.56,4.12,7.69,7,7.94.16,0,.22-.28.17-.49-.74-2.9-1.36-5.85-1.87-8.87,0,.09.09.16.13.24,1.1,1.94,2.45,4,4.11,4.29.19,0,.24-.36.15-.56a56.18,56.18,0,0,1-3.61-12.28,71.18,71.18,0,0,0,5.64,10.95c2.41,3.79,5.13,7.18,8.24,9.13.18.11.3-.25.22-.49-1.2-4.08-2.31-8.24-3.14-12.61a75.89,75.89,0,0,0,5.7,7.86c3.1,3.64,6.73,7,10.62,6.6.16,0,.28-.37.14-.56-2.57-3.75-4-9.26-5-14.75a66.94,66.94,0,0,0,5.78,8.08c3,3.5,6.49,6.77,10.22,6.69.16,0,.23-.27.17-.5-1.62-5.44-3.36-10.77-4.57-16.51,9.67,10.17,20.16,21,31.67,23.09-8.74,1.09-17.66-3-26.12-10.93l.27.52c.23.47,8.41,11.54,7.52,11.82-3.58,1.1-14.41-6.78-18.2-9.62,1.23,2.42,5.74,12.34,4.52,12-4.87-1.18-10.34-4.73-15.59-10.46.93,2.47,2.6,9.38,2.14,9.29-5-1-10.11-7.42-14.78-12.27.8,3.39,2.32,11.47,1.8,11.38-4.82-1-10-7.48-14.19-15.94-2.85,8.15-6.37,15.26-10.76,19.33-.6.55-1.07-11.58-.9-15.88-4.58,11.68-11.05,19.15-18.17,15.64-.55-.28,2.11-12.53,3.41-17.25-1.28,2-2.57,4-3.9,5.95-7.2,5.2-14.62,7.51-21.89,6.18-.91-.16,11.7-16.28,16.4-24.87.83-1.52,1.64-3.06,2.47-4.61a24.27,24.27,0,0,1-6.13,3.94C176.35,290.82,169.63,293.77,163.29,288.46Z"/><polygon class="cls-7" points="154.91 321.2 155.07 322.02 128.2 327.99 128.21 327.06 154.91 321.2"/><polygon class="cls-8" points="128.2 327.99 101.67 322.66 102.25 321.72 128.21 327.06 128.2 327.99"/><polygon class="cls-9" points="97.98 310.51 101.67 322.66 102.25 321.72 98.61 309.92 97.98 310.51"/><polygon class="cls-10" points="97.98 310.51 97.7 314.24 101.24 326.69 101.69 322.66 97.98 310.51"/><polygon class="cls-11" points="101.24 326.69 127.93 331.84 128.2 327.99 101.69 322.66 101.24 326.69"/><polygon class="cls-12" points="128.2 327.99 127.93 331.84 154.83 325.72 155.07 322.02 128.2 327.99"/><polygon class="cls-13" points="151.63 309.44 124.3 303.74 98.61 309.92 102.25 321.72 128.21 327.06 154.91 321.2 151.63 309.44"/><polygon class="cls-14" points="110.47 319.63 147.66 318.93 124.81 308.33 110.47 319.63"/><polygon class="cls-10" points="124.81 308.33 124.72 309.5 145.14 318.98 147.66 318.93 124.81 308.33"/><polygon class="cls-7" points="111.92 319.6 110.47 319.63 124.81 308.33 124.72 309.5 111.92 319.6"/><polygon class="cls-15" points="116.77 319.51 126.16 311.11 142.81 319.02 145.14 318.98 124.72 309.5 111.92 319.6 116.77 319.51"/><polygon class="cls-16" points="98.61 309.92 99.39 312.46 126.35 305.42 151.63 309.44 124.3 303.74 98.61 309.92"/><polygon class="cls-7" points="159.57 314.17 159.73 315 132.86 320.97 132.87 320.03 159.57 314.17"/><polygon class="cls-8" points="132.86 320.97 106.33 315.64 106.91 314.7 132.87 320.03 132.86 320.97"/><polygon class="cls-9" points="102.64 303.48 106.33 315.64 106.91 314.7 103.27 302.9 102.64 303.48"/><polygon class="cls-10" points="102.64 303.48 102.36 307.22 105.9 319.67 106.35 315.63 102.64 303.48"/><polygon class="cls-11" points="105.9 319.67 132.59 324.82 132.86 320.97 106.35 315.63 105.9 319.67"/><polygon class="cls-12" points="132.86 320.97 132.59 324.82 159.49 318.7 159.73 315 132.86 320.97"/><polygon class="cls-13" points="156.29 302.42 128.96 296.71 103.27 302.9 106.91 314.7 132.87 320.03 159.57 314.17 156.29 302.42"/><polygon class="cls-14" points="115.14 312.6 152.32 311.9 129.47 301.3 115.14 312.6"/><polygon class="cls-10" points="129.47 301.3 129.38 302.48 149.8 311.95 152.32 311.9 129.47 301.3"/><polygon class="cls-7" points="116.58 312.58 115.14 312.6 129.47 301.3 129.38 302.48 116.58 312.58"/><polygon class="cls-15" points="121.43 312.49 130.82 304.09 147.47 312 149.8 311.95 129.38 302.48 116.58 312.58 121.43 312.49"/><polygon class="cls-16" points="103.27 302.9 104.05 305.44 131.01 298.4 156.29 302.42 128.96 296.71 103.27 302.9"/><polygon class="cls-13" points="139.98 292.43 157.11 302.85 144.26 313.78 113.78 314.35 96.73 303.85 109.46 293.05 139.98 292.43"/><polygon class="cls-12" points="157.58 303.59 157.51 307.29 144.37 318.51 144.35 314.66 157.58 303.59"/><polygon class="cls-11" points="113.61 319.22 113.65 315.15 144.35 314.66 144.37 318.51 113.61 319.22"/><polygon class="cls-10" points="96.1 304.64 96.11 308.91 113.61 319.22 113.65 315.15 96.1 304.64"/><polygon class="cls-9" points="96.1 304.64 96.73 303.85 113.78 314.35 113.65 315.15 96.1 304.64"/><polygon class="cls-8" points="144.26 313.78 144.35 314.66 113.65 315.15 113.78 314.35 144.26 313.78"/><polygon class="cls-7" points="157.11 302.85 157.58 303.59 144.35 314.66 144.26 313.78 157.11 302.85"/><polygon class="cls-17" points="96.73 303.85 99.38 305.48 111.81 294.34 139.67 293.04 157.11 302.85 139.98 292.43 109.46 293.05 96.73 303.85"/><polygon class="cls-14" points="114.59 297.02 117.98 310.46 142.32 302.35 114.59 297.02"/><polygon class="cls-7" points="142.32 302.35 114.59 297.02 114.88 298.18 140.44 302.97 142.32 302.35"/><polygon class="cls-15" points="117.98 310.46 121.13 309.41 118.07 299.72 138.65 303.57 140.44 302.97 114.88 298.18 117.98 310.46"/><polygon class="cls-13" points="142.07 284.04 159.2 294.46 146.35 305.39 115.88 305.96 98.82 295.46 111.55 284.66 142.07 284.04"/><polygon class="cls-12" points="159.68 295.2 159.6 298.9 146.46 310.12 146.45 306.27 159.68 295.2"/><polygon class="cls-11" points="115.7 310.83 115.74 306.76 146.45 306.27 146.46 310.12 115.7 310.83"/><polygon class="cls-10" points="98.19 296.25 98.21 300.52 115.7 310.83 115.74 306.76 98.19 296.25"/><polygon class="cls-9" points="98.19 296.25 98.82 295.46 115.88 305.96 115.74 306.76 98.19 296.25"/><polygon class="cls-8" points="146.35 305.39 146.45 306.27 115.74 306.76 115.88 305.96 146.35 305.39"/><polygon class="cls-7" points="159.2 294.46 159.68 295.2 146.45 306.27 146.35 305.39 159.2 294.46"/><polygon class="cls-17" points="98.82 295.46 101.47 297.09 113.9 285.95 141.77 284.65 159.2 294.46 142.07 284.04 111.55 284.66 98.82 295.46"/><polygon class="cls-14" points="116.68 288.63 120.07 302.07 144.41 293.96 116.68 288.63"/><polygon class="cls-7" points="144.41 293.96 116.68 288.63 116.97 289.79 142.53 294.58 144.41 293.96"/><polygon class="cls-15" points="120.07 302.07 123.23 301.02 120.17 291.33 140.74 295.18 142.53 294.58 116.97 289.79 120.07 302.07"/><polygon class="cls-7" points="156.13 296.34 156.28 297.16 129.42 303.13 129.42 302.2 156.13 296.34"/><polygon class="cls-8" points="129.42 303.13 102.89 297.81 103.46 296.86 129.42 302.2 129.42 303.13"/><polygon class="cls-9" points="99.19 285.65 102.89 297.81 103.46 296.86 99.82 285.06 99.19 285.65"/><polygon class="cls-10" points="99.19 285.65 98.92 289.38 102.45 301.83 102.9 297.8 99.19 285.65"/><polygon class="cls-11" points="102.45 301.83 129.14 306.98 129.42 303.13 102.9 297.8 102.45 301.83"/><polygon class="cls-12" points="129.42 303.13 129.14 306.98 156.05 300.86 156.28 297.16 129.42 303.13"/><polygon class="cls-13" points="152.85 284.59 125.51 278.88 99.82 285.06 103.46 296.86 129.42 302.2 156.13 296.34 152.85 284.59"/><polygon class="cls-14" points="111.69 294.77 148.88 294.07 126.02 283.47 111.69 294.77"/><polygon class="cls-10" points="126.02 283.47 125.94 284.64 146.36 294.12 148.88 294.07 126.02 283.47"/><polygon class="cls-7" points="113.13 294.74 111.69 294.77 126.02 283.47 125.94 284.64 113.13 294.74"/><polygon class="cls-15" points="117.99 294.65 127.38 286.25 144.02 294.16 146.36 294.12 125.94 284.64 113.13 294.74 117.99 294.65"/><polygon class="cls-16" points="99.82 285.06 100.61 287.61 127.56 280.56 152.85 284.59 125.51 278.88 99.82 285.06"/><polygon class="cls-13" points="143.78 272.78 160.91 283.2 148.06 294.13 117.58 294.7 100.53 284.2 113.26 273.4 143.78 272.78"/><polygon class="cls-12" points="161.38 283.94 161.31 287.64 148.17 298.86 148.15 295.01 161.38 283.94"/><polygon class="cls-11" points="117.41 299.57 117.45 295.5 148.15 295.01 148.17 298.86 117.41 299.57"/><polygon class="cls-10" points="99.89 284.99 99.91 289.26 117.41 299.57 117.45 295.5 99.89 284.99"/><polygon class="cls-9" points="99.89 284.99 100.53 284.2 117.58 294.7 117.45 295.5 99.89 284.99"/><polygon class="cls-8" points="148.06 294.13 148.15 295.01 117.45 295.5 117.58 294.7 148.06 294.13"/><polygon class="cls-7" points="160.91 283.2 161.38 283.94 148.15 295.01 148.06 294.13 160.91 283.2"/><polygon class="cls-17" points="100.53 284.2 103.18 285.83 115.61 274.69 143.47 273.39 160.91 283.2 143.78 272.78 113.26 273.4 100.53 284.2"/><polygon class="cls-14" points="118.39 277.37 121.78 290.81 146.12 282.7 118.39 277.37"/><polygon class="cls-7" points="146.12 282.7 118.39 277.37 118.68 278.53 144.24 283.32 146.12 282.7"/><polygon class="cls-15" points="121.78 290.81 124.93 289.76 121.87 280.07 142.45 283.92 144.24 283.32 118.68 278.53 121.78 290.81"/><polygon class="cls-13" points="136.91 264.72 154.04 275.13 141.19 286.06 110.71 286.64 93.66 276.13 106.39 265.34 136.91 264.72"/><polygon class="cls-12" points="154.51 275.88 154.44 279.58 141.3 290.8 141.28 286.95 154.51 275.88"/><polygon class="cls-11" points="110.54 291.5 110.58 287.44 141.28 286.95 141.3 290.8 110.54 291.5"/><polygon class="cls-10" points="93.02 276.93 93.04 281.2 110.54 291.5 110.58 287.44 93.02 276.93"/><polygon class="cls-9" points="93.02 276.93 93.66 276.13 110.71 286.64 110.58 287.44 93.02 276.93"/><polygon class="cls-8" points="141.19 286.06 141.28 286.95 110.58 287.44 110.71 286.64 141.19 286.06"/><polygon class="cls-7" points="154.04 275.13 154.51 275.88 141.28 286.95 141.19 286.06 154.04 275.13"/><polygon class="cls-17" points="93.66 276.13 96.31 277.77 108.74 266.62 136.6 265.32 154.04 275.13 136.91 264.72 106.39 265.34 93.66 276.13"/><polygon class="cls-14" points="111.51 269.31 114.91 282.75 139.25 274.63 111.51 269.31"/><polygon class="cls-7" points="139.25 274.63 111.51 269.31 111.81 270.47 137.37 275.26 139.25 274.63"/><polygon class="cls-15" points="114.91 282.75 118.06 281.7 115 272.01 135.58 275.86 137.37 275.26 111.81 270.47 114.91 282.75"/><polygon class="cls-7" points="154.26 275.86 154.42 276.69 127.55 282.66 127.56 281.72 154.26 275.86"/><polygon class="cls-8" points="127.55 282.66 101.02 277.33 101.6 276.39 127.56 281.72 127.55 282.66"/><polygon class="cls-9" points="97.33 265.17 101.02 277.33 101.6 276.39 97.96 264.59 97.33 265.17"/><polygon class="cls-10" points="97.33 265.17 97.06 268.91 100.59 281.36 101.04 277.32 97.33 265.17"/><polygon class="cls-11" points="100.59 281.36 127.28 286.51 127.55 282.66 101.04 277.32 100.59 281.36"/><polygon class="cls-12" points="127.55 282.66 127.28 286.51 154.19 280.39 154.42 276.69 127.55 282.66"/><polygon class="cls-13" points="150.99 264.11 123.65 258.4 97.96 264.59 101.6 276.39 127.56 281.72 154.26 275.86 150.99 264.11"/><polygon class="cls-14" points="109.83 274.29 147.02 273.59 124.16 262.99 109.83 274.29"/><polygon class="cls-10" points="124.16 262.99 124.07 264.17 144.5 273.64 147.02 273.59 124.16 262.99"/><polygon class="cls-7" points="111.27 274.27 109.83 274.29 124.16 262.99 124.07 264.17 111.27 274.27"/><polygon class="cls-15" points="116.12 274.18 125.52 265.78 142.16 273.69 144.5 273.64 124.07 264.17 111.27 274.27 116.12 274.18"/><polygon class="cls-16" points="97.96 264.59 98.74 267.13 125.7 260.09 150.99 264.11 123.65 258.4 97.96 264.59"/><polygon class="cls-7" points="132.4 341.95 132.56 342.77 105.69 348.74 105.7 347.81 132.4 341.95"/><polygon class="cls-8" points="105.69 348.74 79.16 343.42 79.73 342.47 105.7 347.81 105.69 348.74"/><polygon class="cls-9" points="75.47 331.26 79.16 343.42 79.73 342.47 76.09 330.67 75.47 331.26"/><polygon class="cls-10" points="75.47 331.26 75.19 334.99 78.73 347.44 79.17 343.41 75.47 331.26"/><polygon class="cls-11" points="78.73 347.44 105.42 352.6 105.69 348.74 79.17 343.41 78.73 347.44"/><polygon class="cls-12" points="105.69 348.74 105.42 352.6 132.32 346.47 132.56 342.77 105.69 348.74"/><polygon class="cls-13" points="129.12 330.2 101.78 324.49 76.09 330.67 79.73 342.47 105.7 347.81 132.4 341.95 129.12 330.2"/><polygon class="cls-14" points="87.96 340.38 125.15 339.68 102.29 329.08 87.96 340.38"/><polygon class="cls-10" points="102.29 329.08 102.21 330.25 122.63 339.73 125.15 339.68 102.29 329.08"/><polygon class="cls-7" points="89.4 340.35 87.96 340.38 102.29 329.08 102.21 330.25 89.4 340.35"/><polygon class="cls-15" points="94.26 340.26 103.65 331.86 120.29 339.77 122.63 339.73 102.21 330.25 89.4 340.35 94.26 340.26"/><polygon class="cls-16" points="76.09 330.67 76.88 333.22 103.83 326.17 129.12 330.2 101.78 324.49 76.09 330.67"/><polygon class="cls-7" points="246.12 333.46 246.28 334.28 219.42 340.25 219.42 339.32 246.12 333.46"/><polygon class="cls-8" points="219.42 340.25 192.88 334.92 193.46 333.98 219.42 339.32 219.42 340.25"/><polygon class="cls-9" points="189.19 322.76 192.88 334.92 193.46 333.98 189.82 322.18 189.19 322.76"/><polygon class="cls-10" points="189.19 322.76 188.92 326.5 192.45 338.95 192.9 334.91 189.19 322.76"/><polygon class="cls-11" points="192.45 338.95 219.14 344.1 219.42 340.25 192.9 334.91 192.45 338.95"/><polygon class="cls-12" points="219.42 340.25 219.14 344.1 246.05 337.98 246.28 334.28 219.42 340.25"/><polygon class="cls-13" points="242.85 321.7 215.51 316 189.82 322.18 193.46 333.98 219.42 339.32 246.12 333.46 242.85 321.7"/><polygon class="cls-14" points="201.69 331.88 238.88 331.19 216.02 320.58 201.69 331.88"/><polygon class="cls-10" points="216.02 320.58 215.93 321.76 236.36 331.23 238.88 331.19 216.02 320.58"/><polygon class="cls-7" points="203.13 331.86 201.69 331.88 216.02 320.58 215.93 321.76 203.13 331.86"/><polygon class="cls-15" points="207.99 331.77 217.38 323.37 234.02 331.28 236.36 331.23 215.93 321.76 203.13 331.86 207.99 331.77"/><polygon class="cls-16" points="189.82 322.18 190.6 324.72 217.56 317.68 242.85 321.7 215.51 316 189.82 322.18"/><polygon class="cls-7" points="250.78 326.43 250.94 327.25 224.08 333.22 224.08 332.29 250.78 326.43"/><polygon class="cls-8" points="224.08 333.22 197.54 327.9 198.12 326.95 224.08 332.29 224.08 333.22"/><polygon class="cls-9" points="193.85 315.74 197.54 327.9 198.12 326.95 194.48 315.15 193.85 315.74"/><polygon class="cls-10" points="193.85 315.74 193.58 319.47 197.11 331.92 197.56 327.89 193.85 315.74"/><polygon class="cls-11" points="197.11 331.92 223.8 337.07 224.08 333.22 197.56 327.89 197.11 331.92"/><polygon class="cls-12" points="224.08 333.22 223.8 337.07 250.71 330.95 250.94 327.25 224.08 333.22"/><polygon class="cls-13" points="247.51 314.68 220.17 308.97 194.48 315.15 198.12 326.95 224.08 332.29 250.78 326.43 247.51 314.68"/><polygon class="cls-14" points="206.35 324.86 243.54 324.16 220.68 313.56 206.35 324.86"/><polygon class="cls-10" points="220.68 313.56 220.59 314.74 241.02 324.21 243.54 324.16 220.68 313.56"/><polygon class="cls-7" points="207.79 324.83 206.35 324.86 220.68 313.56 220.59 314.74 207.79 324.83"/><polygon class="cls-15" points="212.65 324.74 222.04 316.34 238.68 324.25 241.02 324.21 220.59 314.74 207.79 324.83 212.65 324.74"/><polygon class="cls-16" points="194.48 315.15 195.26 317.7 222.22 310.65 247.51 314.68 220.17 308.97 194.48 315.15"/><polygon class="cls-13" points="229.26 303.92 246.39 314.33 233.54 325.26 203.06 325.84 186.01 315.33 198.74 304.53 229.26 303.92"/><polygon class="cls-12" points="246.86 315.07 246.79 318.77 233.65 329.99 233.63 326.15 246.86 315.07"/><polygon class="cls-11" points="202.89 330.7 202.93 326.63 233.63 326.15 233.65 329.99 202.89 330.7"/><polygon class="cls-10" points="185.38 316.12 185.39 320.39 202.89 330.7 202.93 326.63 185.38 316.12"/><polygon class="cls-9" points="185.38 316.12 186.01 315.33 203.06 325.84 202.93 326.63 185.38 316.12"/><polygon class="cls-8" points="233.54 325.26 233.63 326.15 202.93 326.63 203.06 325.84 233.54 325.26"/><polygon class="cls-7" points="246.39 314.33 246.86 315.07 233.63 326.15 233.54 325.26 246.39 314.33"/><polygon class="cls-17" points="186.01 315.33 188.66 316.96 201.09 305.82 228.95 304.52 246.39 314.33 229.26 303.92 198.74 304.53 186.01 315.33"/><polygon class="cls-14" points="203.87 308.5 207.26 321.94 231.6 313.83 203.87 308.5"/><polygon class="cls-7" points="231.6 313.83 203.87 308.5 204.16 309.67 229.72 314.46 231.6 313.83"/><polygon class="cls-15" points="207.26 321.94 210.41 320.89 207.35 311.21 227.93 315.05 229.72 314.46 204.16 309.67 207.26 321.94"/><polygon class="cls-13" points="233.28 296.3 250.42 306.71 237.56 317.65 207.09 318.22 190.04 307.71 202.77 296.92 233.28 296.3"/><polygon class="cls-12" points="250.89 307.46 250.81 311.16 237.68 322.38 237.66 318.53 250.89 307.46"/><polygon class="cls-11" points="206.92 323.09 206.96 319.02 237.66 318.53 237.68 322.38 206.92 323.09"/><polygon class="cls-10" points="189.4 308.51 189.42 312.78 206.92 323.09 206.96 319.02 189.4 308.51"/><polygon class="cls-9" points="189.4 308.51 190.04 307.71 207.09 318.22 206.96 319.02 189.4 308.51"/><polygon class="cls-8" points="237.56 317.65 237.66 318.53 206.96 319.02 207.09 318.22 237.56 317.65"/><polygon class="cls-7" points="250.42 306.71 250.89 307.46 237.66 318.53 237.56 317.65 250.42 306.71"/><polygon class="cls-17" points="190.04 307.71 192.69 309.35 205.12 298.2 232.98 296.9 250.42 306.71 233.28 296.3 202.77 296.92 190.04 307.71"/><polygon class="cls-14" points="207.89 300.89 211.29 314.33 235.62 306.21 207.89 300.89"/><polygon class="cls-7" points="235.62 306.21 207.89 300.89 208.19 302.05 233.75 306.84 235.62 306.21"/><polygon class="cls-15" points="211.29 314.33 214.44 313.28 211.38 303.59 231.96 307.44 233.75 306.84 208.19 302.05 211.29 314.33"/><polygon class="cls-7" points="250.04 308.6 250.2 309.42 223.34 315.39 223.34 314.46 250.04 308.6"/><polygon class="cls-8" points="223.34 315.39 196.81 310.06 197.38 309.12 223.34 314.46 223.34 315.39"/><polygon class="cls-9" points="193.12 297.91 196.81 310.06 197.38 309.12 193.74 297.32 193.12 297.91"/><polygon class="cls-10" points="193.12 297.91 192.84 301.64 196.38 314.09 196.82 310.06 193.12 297.91"/><polygon class="cls-11" points="196.38 314.09 223.06 319.24 223.34 315.39 196.82 310.06 196.38 314.09"/><polygon class="cls-12" points="223.34 315.39 223.06 319.24 249.97 313.12 250.2 309.42 223.34 315.39"/><polygon class="cls-13" points="246.77 296.84 219.43 291.14 193.74 297.32 197.38 309.12 223.34 314.46 250.04 308.6 246.77 296.84"/><polygon class="cls-14" points="205.61 307.03 242.8 306.33 219.94 295.73 205.61 307.03"/><polygon class="cls-10" points="219.94 295.73 219.85 296.9 240.28 306.38 242.8 306.33 219.94 295.73"/><polygon class="cls-7" points="207.05 307 205.61 307.03 219.94 295.73 219.85 296.9 207.05 307"/><polygon class="cls-15" points="211.91 306.91 221.3 298.51 237.94 306.42 240.28 306.38 219.85 296.9 207.05 307 211.91 306.91"/><polygon class="cls-16" points="193.74 297.32 194.53 299.86 221.48 292.82 246.77 296.84 219.43 291.14 193.74 297.32"/><polygon class="cls-13" points="173.15 321.94 190.29 332.35 177.44 343.29 146.96 343.86 129.91 333.36 142.64 322.56 173.15 321.94"/><polygon class="cls-12" points="190.76 333.1 190.68 336.8 177.55 348.01 177.53 344.17 190.76 333.1"/><polygon class="cls-11" points="146.79 348.73 146.83 344.66 177.53 344.17 177.55 348.01 146.79 348.73"/><polygon class="cls-10" points="129.27 334.15 129.29 338.42 146.79 348.73 146.83 344.66 129.27 334.15"/><polygon class="cls-9" points="129.27 334.15 129.91 333.36 146.96 343.86 146.83 344.66 129.27 334.15"/><polygon class="cls-8" points="177.44 343.29 177.53 344.17 146.83 344.66 146.96 343.86 177.44 343.29"/><polygon class="cls-7" points="190.29 332.35 190.76 333.1 177.53 344.17 177.44 343.29 190.29 332.35"/><polygon class="cls-17" points="129.91 333.36 132.56 334.99 144.99 323.85 172.85 322.55 190.29 332.35 173.15 321.94 142.64 322.56 129.91 333.36"/><polygon class="cls-14" points="147.76 326.53 151.16 339.97 175.5 331.86 147.76 326.53"/><polygon class="cls-7" points="175.5 331.86 147.76 326.53 148.06 327.69 173.62 332.48 175.5 331.86"/><polygon class="cls-15" points="151.16 339.97 154.31 338.92 151.25 329.23 171.82 333.08 173.62 332.48 148.06 327.69 151.16 339.97"/><polygon class="cls-7" points="182.18 334.24 182.34 335.06 155.47 341.03 155.48 340.1 182.18 334.24"/><polygon class="cls-8" points="155.47 341.03 128.94 335.7 129.52 334.76 155.48 340.1 155.47 341.03"/><polygon class="cls-9" points="125.25 323.55 128.94 335.7 129.52 334.76 125.88 322.96 125.25 323.55"/><polygon class="cls-10" points="125.25 323.55 124.97 327.28 128.51 339.73 128.96 335.7 125.25 323.55"/><polygon class="cls-11" points="128.51 339.73 155.2 344.88 155.47 341.03 128.96 335.7 128.51 339.73"/><polygon class="cls-12" points="155.47 341.03 155.2 344.88 182.1 338.76 182.34 335.06 155.47 341.03"/><polygon class="cls-13" points="178.91 322.48 151.57 316.78 125.88 322.96 129.52 334.76 155.48 340.1 182.18 334.24 178.91 322.48"/><polygon class="cls-14" points="137.75 332.67 174.94 331.97 152.08 321.37 137.75 332.67"/><polygon class="cls-10" points="152.08 321.37 151.99 322.54 172.42 332.01 174.94 331.97 152.08 321.37"/><polygon class="cls-7" points="139.19 332.64 137.75 332.67 152.08 321.37 151.99 322.54 139.19 332.64"/><polygon class="cls-15" points="144.04 332.55 153.44 324.15 170.08 332.06 172.42 332.01 151.99 322.54 139.19 332.64 144.04 332.55"/><polygon class="cls-16" points="125.88 322.96 126.66 325.5 153.62 318.46 178.91 322.48 151.57 316.78 125.88 322.96"/><polygon class="cls-13" points="177.1 310.17 194.24 320.58 181.38 331.51 150.91 332.09 133.86 321.58 146.59 310.79 177.1 310.17"/><polygon class="cls-12" points="194.71 321.33 194.63 325.02 181.5 336.25 181.48 332.4 194.71 321.33"/><polygon class="cls-11" points="150.74 336.95 150.78 332.89 181.48 332.4 181.5 336.25 150.74 336.95"/><polygon class="cls-10" points="133.22 322.38 133.24 326.65 150.74 336.95 150.78 332.89 133.22 322.38"/><polygon class="cls-9" points="133.22 322.38 133.86 321.58 150.91 332.09 150.78 332.89 133.22 322.38"/><polygon class="cls-8" points="181.38 331.51 181.48 332.4 150.78 332.89 150.91 332.09 181.38 331.51"/><polygon class="cls-7" points="194.24 320.58 194.71 321.33 181.48 332.4 181.38 331.51 194.24 320.58"/><polygon class="cls-17" points="133.86 321.58 136.5 323.22 148.94 312.07 176.8 310.77 194.24 320.58 177.1 310.17 146.59 310.79 133.86 321.58"/><polygon class="cls-14" points="151.71 314.76 155.11 328.2 179.44 320.08 151.71 314.76"/><polygon class="cls-7" points="179.44 320.08 151.71 314.76 152.01 315.92 177.57 320.71 179.44 320.08"/><polygon class="cls-15" points="155.11 328.2 158.26 327.14 155.2 317.46 175.78 321.31 177.57 320.71 152.01 315.92 155.11 328.2"/><polygon class="cls-7" points="187.3 321.05 187.46 321.87 160.6 327.84 160.6 326.91 187.3 321.05"/><polygon class="cls-8" points="160.6 327.84 134.06 322.51 134.64 321.57 160.6 326.91 160.6 327.84"/><polygon class="cls-9" points="130.38 310.36 134.06 322.51 134.64 321.57 131 309.77 130.38 310.36"/><polygon class="cls-10" points="130.38 310.36 130.1 314.09 133.63 326.54 134.08 322.51 130.38 310.36"/><polygon class="cls-11" points="133.63 326.54 160.32 331.69 160.6 327.84 134.08 322.51 133.63 326.54"/><polygon class="cls-12" points="160.6 327.84 160.32 331.69 187.23 325.57 187.46 321.87 160.6 327.84"/><polygon class="cls-13" points="184.03 309.3 156.69 303.59 131 309.77 134.64 321.57 160.6 326.91 187.3 321.05 184.03 309.3"/><polygon class="cls-14" points="142.87 319.48 180.06 318.78 157.2 308.18 142.87 319.48"/><polygon class="cls-10" points="157.2 308.18 157.11 309.35 177.54 318.82 180.06 318.78 157.2 308.18"/><polygon class="cls-7" points="144.31 319.45 142.87 319.48 157.2 308.18 157.11 309.35 144.31 319.45"/><polygon class="cls-15" points="149.17 319.36 158.56 310.96 175.2 318.87 177.54 318.82 157.11 309.35 144.31 319.45 149.17 319.36"/><polygon class="cls-16" points="131 309.77 131.78 312.31 158.74 305.27 184.03 309.3 156.69 303.59 131 309.77"/><polygon class="cls-7" points="191.96 314.02 192.12 314.85 165.26 320.82 165.26 319.88 191.96 314.02"/><polygon class="cls-8" points="165.26 320.82 138.72 315.49 139.3 314.55 165.26 319.88 165.26 320.82"/><polygon class="cls-9" points="135.03 303.33 138.72 315.49 139.3 314.55 135.66 302.75 135.03 303.33"/><polygon class="cls-10" points="135.03 303.33 134.76 307.07 138.29 319.51 138.74 315.48 135.03 303.33"/><polygon class="cls-11" points="138.29 319.51 164.98 324.67 165.26 320.82 138.74 315.48 138.29 319.51"/><polygon class="cls-12" points="165.26 320.82 164.98 324.67 191.89 318.55 192.12 314.85 165.26 320.82"/><polygon class="cls-13" points="188.69 302.27 161.35 296.56 135.66 302.75 139.3 314.55 165.26 319.88 191.96 314.02 188.69 302.27"/><polygon class="cls-14" points="147.53 312.45 184.72 311.75 161.86 301.15 147.53 312.45"/><polygon class="cls-10" points="161.86 301.15 161.77 302.33 182.2 311.8 184.72 311.75 161.86 301.15"/><polygon class="cls-7" points="148.97 312.43 147.53 312.45 161.86 301.15 161.77 302.33 148.97 312.43"/><polygon class="cls-15" points="153.83 312.33 163.22 303.94 179.86 311.85 182.2 311.8 161.77 302.33 148.97 312.43 153.83 312.33"/><polygon class="cls-16" points="135.66 302.75 136.44 305.29 163.4 298.25 188.69 302.27 161.35 296.56 135.66 302.75"/><polygon class="cls-13" points="176.63 293.06 193.76 303.47 180.91 314.4 150.43 314.98 133.38 304.47 146.11 293.67 176.63 293.06"/><polygon class="cls-12" points="194.23 304.21 194.16 307.91 181.02 319.13 181 315.29 194.23 304.21"/><polygon class="cls-11" points="150.26 319.84 150.3 315.77 181 315.29 181.02 319.13 150.26 319.84"/><polygon class="cls-10" points="132.74 305.26 132.76 309.53 150.26 319.84 150.3 315.77 132.74 305.26"/><polygon class="cls-9" points="132.74 305.26 133.38 304.47 150.43 314.98 150.3 315.77 132.74 305.26"/><polygon class="cls-8" points="180.91 314.4 181 315.29 150.3 315.77 150.43 314.98 180.91 314.4"/><polygon class="cls-7" points="193.76 303.47 194.23 304.21 181 315.29 180.91 314.4 193.76 303.47"/><polygon class="cls-17" points="133.38 304.47 136.03 306.1 148.46 294.96 176.32 293.66 193.76 303.47 176.63 293.06 146.11 293.67 133.38 304.47"/><polygon class="cls-14" points="151.24 297.64 154.63 311.08 178.97 302.97 151.24 297.64"/><polygon class="cls-7" points="178.97 302.97 151.24 297.64 151.53 298.81 177.09 303.6 178.97 302.97"/><polygon class="cls-15" points="154.63 311.08 157.78 310.03 154.72 300.35 175.3 304.19 177.09 303.6 151.53 298.81 154.63 311.08"/><polygon class="cls-13" points="174.46 283.89 191.6 294.31 178.75 305.24 148.27 305.81 131.22 295.31 143.95 284.51 174.46 283.89"/><polygon class="cls-12" points="192.07 295.05 191.99 298.75 178.86 309.97 178.84 306.12 192.07 295.05"/><polygon class="cls-11" points="148.1 310.68 148.14 306.61 178.84 306.12 178.86 309.97 148.1 310.68"/><polygon class="cls-10" points="130.58 296.1 130.6 300.37 148.1 310.68 148.14 306.61 130.58 296.1"/><polygon class="cls-9" points="130.58 296.1 131.22 295.31 148.27 305.81 148.14 306.61 130.58 296.1"/><polygon class="cls-8" points="178.75 305.24 178.84 306.12 148.14 306.61 148.27 305.81 178.75 305.24"/><polygon class="cls-7" points="191.6 294.31 192.07 295.05 178.84 306.12 178.75 305.24 191.6 294.31"/><polygon class="cls-17" points="131.22 295.31 133.87 296.94 146.3 285.8 174.16 284.5 191.6 294.31 174.46 283.89 143.95 284.51 131.22 295.31"/><polygon class="cls-14" points="149.07 288.48 152.47 301.92 176.81 293.81 149.07 288.48"/><polygon class="cls-7" points="176.81 293.81 149.07 288.48 149.37 289.64 174.93 294.43 176.81 293.81"/><polygon class="cls-15" points="152.47 301.92 155.62 300.87 152.56 291.18 173.14 295.03 174.93 294.43 149.37 289.64 152.47 301.92"/><polygon class="cls-18" points="140.94 304.27 142.82 307.61 142.53 311.8 142.07 312.58 142.21 316.69 146.01 319.07 146.01 320.97 145.87 323.8 145.52 324.67 145.57 328.79 145.4 329.67 145.44 333.83 143.49 337.63 142.97 338.52 142.97 342.47 144.5 343.42 144.5 347.38 119.6 349.37 119.6 345.65 118.86 344.92 85.9 337.64 117.97 316.69 140.94 304.27"/><polygon class="cls-13" points="116.7 300.73 138.1 300.69 132.47 316.71 105.03 333.08 83.65 333 89.24 317.15 116.7 300.73"/><polygon class="cls-12" points="138.95 301.07 140.94 304.27 135.21 320.69 133.05 317.42 138.95 301.07"/><polygon class="cls-11" points="107.58 337.32 105.35 333.83 133.05 317.42 135.21 320.69 107.58 337.32"/><polygon class="cls-10" points="83.51 334.01 85.9 337.64 107.58 337.32 105.35 333.83 83.51 334.01"/><polygon class="cls-9" points="83.51 334.01 83.65 333 105.03 333.08 105.35 333.83 83.51 334.01"/><polygon class="cls-8" points="132.47 316.71 133.05 317.42 105.35 333.83 105.03 333.08 132.47 316.71"/><polygon class="cls-7" points="138.1 300.69 138.95 301.07 133.05 317.42 132.47 316.71 138.1 300.69"/><polygon class="cls-17" points="83.65 333 86.97 333.01 92.1 317.03 116.76 301.4 138.1 300.69 116.7 300.73 89.24 317.15 83.65 333"/><polygon class="cls-14" points="96.12 317.87 106.69 327.57 124.35 307.97 96.12 317.87"/><polygon class="cls-7" points="124.35 307.97 96.12 317.87 97.03 318.71 122.99 309.48 124.35 307.97"/><polygon class="cls-15" points="106.69 327.57 108.98 325.03 100.8 318.36 121.69 310.92 122.99 309.48 97.03 318.71 106.69 327.57"/><polygon class="cls-7" points="188.52 296.19 188.68 297.01 161.81 302.98 161.82 302.05 188.52 296.19"/><polygon class="cls-8" points="161.81 302.98 135.28 297.65 135.85 296.71 161.82 302.05 161.81 302.98"/><polygon class="cls-9" points="131.59 285.5 135.28 297.65 135.85 296.71 132.22 284.91 131.59 285.5"/><polygon class="cls-10" points="131.59 285.5 131.31 289.23 134.85 301.68 135.3 297.65 131.59 285.5"/><polygon class="cls-11" points="134.85 301.68 161.54 306.83 161.81 302.98 135.3 297.65 134.85 301.68"/><polygon class="cls-12" points="161.81 302.98 161.54 306.83 188.44 300.71 188.68 297.01 161.81 302.98"/><polygon class="cls-13" points="185.24 284.44 157.9 278.73 132.22 284.91 135.85 296.71 161.82 302.05 188.52 296.19 185.24 284.44"/><polygon class="cls-14" points="144.08 294.62 181.27 293.92 158.41 283.32 144.08 294.62"/><polygon class="cls-10" points="158.41 283.32 158.33 284.49 178.75 293.97 181.27 293.92 158.41 283.32"/><polygon class="cls-7" points="145.52 294.59 144.08 294.62 158.41 283.32 158.33 284.49 145.52 294.59"/><polygon class="cls-15" points="150.38 294.5 159.77 286.1 176.41 294.01 178.75 293.97 158.33 284.49 145.52 294.59 150.38 294.5"/><polygon class="cls-16" points="132.22 284.91 133 287.45 159.96 280.41 185.24 284.44 157.9 278.73 132.22 284.91"/><polygon class="cls-13" points="176.17 272.63 193.3 283.05 180.45 293.98 149.98 294.55 132.92 284.05 145.65 273.25 176.17 272.63"/><polygon class="cls-12" points="193.78 283.79 193.7 287.49 180.56 298.71 180.55 294.86 193.78 283.79"/><polygon class="cls-11" points="149.8 299.42 149.84 295.35 180.55 294.86 180.56 298.71 149.8 299.42"/><polygon class="cls-10" points="132.29 284.84 132.31 289.11 149.8 299.42 149.84 295.35 132.29 284.84"/><polygon class="cls-9" points="132.29 284.84 132.92 284.05 149.98 294.55 149.84 295.35 132.29 284.84"/><polygon class="cls-8" points="180.45 293.98 180.55 294.86 149.84 295.35 149.98 294.55 180.45 293.98"/><polygon class="cls-7" points="193.3 283.05 193.78 283.79 180.55 294.86 180.45 293.98 193.3 283.05"/><polygon class="cls-17" points="132.92 284.05 135.57 285.68 148 274.54 175.87 273.24 193.3 283.05 176.17 272.63 145.65 273.25 132.92 284.05"/><polygon class="cls-14" points="150.78 277.22 154.17 290.66 178.51 282.55 150.78 277.22"/><polygon class="cls-7" points="178.51 282.55 150.78 277.22 151.07 278.38 176.63 283.17 178.51 282.55"/><polygon class="cls-15" points="154.17 290.66 157.33 289.61 154.26 279.92 174.84 283.77 176.63 283.17 151.07 278.38 154.17 290.66"/><polygon class="cls-13" points="169.3 264.57 186.43 274.98 173.58 285.91 143.11 286.49 126.05 275.98 138.78 265.19 169.3 264.57"/><polygon class="cls-12" points="186.91 275.73 186.83 279.43 173.69 290.64 173.68 286.8 186.91 275.73"/><polygon class="cls-11" points="142.93 291.36 142.97 287.29 173.68 286.8 173.69 290.64 142.93 291.36"/><polygon class="cls-10" points="125.42 276.78 125.44 281.05 142.93 291.36 142.97 287.29 125.42 276.78"/><polygon class="cls-9" points="125.42 276.78 126.05 275.98 143.11 286.49 142.97 287.29 125.42 276.78"/><polygon class="cls-8" points="173.58 285.91 173.68 286.8 142.97 287.29 143.11 286.49 173.58 285.91"/><polygon class="cls-7" points="186.43 274.98 186.91 275.73 173.68 286.8 173.58 285.91 186.43 274.98"/><polygon class="cls-17" points="126.05 275.98 128.7 277.62 141.13 266.47 169 265.17 186.43 274.98 169.3 264.57 138.78 265.19 126.05 275.98"/><polygon class="cls-14" points="143.91 269.16 147.3 282.6 171.64 274.48 143.91 269.16"/><polygon class="cls-7" points="171.64 274.48 143.91 269.16 144.2 270.32 169.76 275.11 171.64 274.48"/><polygon class="cls-15" points="147.3 282.6 150.46 281.55 147.4 271.86 167.97 275.71 169.76 275.11 144.2 270.32 147.3 282.6"/><polygon class="cls-7" points="186.66 275.71 186.81 276.54 159.95 282.5 159.96 281.57 186.66 275.71"/><polygon class="cls-8" points="159.95 282.5 133.42 277.18 133.99 276.24 159.96 281.57 159.95 282.5"/><polygon class="cls-9" points="129.73 265.02 133.42 277.18 133.99 276.24 130.35 264.44 129.73 265.02"/><polygon class="cls-10" points="129.73 265.02 129.45 268.76 132.99 281.2 133.43 277.17 129.73 265.02"/><polygon class="cls-11" points="132.99 281.2 159.67 286.36 159.95 282.5 133.43 277.17 132.99 281.2"/><polygon class="cls-12" points="159.95 282.5 159.67 286.36 186.58 280.24 186.81 276.54 159.95 282.5"/><polygon class="cls-13" points="183.38 263.96 156.04 258.25 130.35 264.44 133.99 276.24 159.96 281.57 186.66 275.71 183.38 263.96"/><polygon class="cls-14" points="142.22 274.14 179.41 273.44 156.55 262.84 142.22 274.14"/><polygon class="cls-10" points="156.55 262.84 156.47 264.02 176.89 273.49 179.41 273.44 156.55 262.84"/><polygon class="cls-7" points="143.66 274.12 142.22 274.14 156.55 262.84 156.47 264.02 143.66 274.12"/><polygon class="cls-15" points="148.52 274.02 157.91 265.63 174.55 273.53 176.89 273.49 156.47 264.02 143.66 274.12 148.52 274.02"/><polygon class="cls-16" points="130.35 264.44 131.14 266.98 158.09 259.94 183.38 263.96 156.04 258.25 130.35 264.44"/><polygon class="cls-13" points="170.96 248.78 188.1 259.2 175.24 270.13 144.77 270.7 127.72 260.2 140.45 249.4 170.96 248.78"/><polygon class="cls-12" points="188.57 259.94 188.49 263.64 175.36 274.86 175.34 271.01 188.57 259.94"/><polygon class="cls-11" points="144.6 275.57 144.64 271.5 175.34 271.01 175.36 274.86 144.6 275.57"/><polygon class="cls-10" points="127.08 260.99 127.1 265.26 144.6 275.57 144.64 271.5 127.08 260.99"/><polygon class="cls-9" points="127.08 260.99 127.72 260.2 144.77 270.7 144.64 271.5 127.08 260.99"/><polygon class="cls-8" points="175.24 270.13 175.34 271.01 144.64 271.5 144.77 270.7 175.24 270.13"/><polygon class="cls-7" points="188.1 259.2 188.57 259.94 175.34 271.01 175.24 270.13 188.1 259.2"/><polygon class="cls-17" points="127.72 260.2 130.36 261.83 142.8 250.69 170.66 249.39 188.1 259.2 170.96 248.78 140.45 249.4 127.72 260.2"/><polygon class="cls-14" points="145.57 253.37 148.97 266.81 173.3 258.7 145.57 253.37"/><polygon class="cls-7" points="173.3 258.7 145.57 253.37 145.87 254.53 171.43 259.32 173.3 258.7"/><polygon class="cls-15" points="148.97 266.81 152.12 265.76 149.06 256.07 169.63 259.92 171.43 259.32 145.87 254.53 148.97 266.81"/><polygon class="cls-13" points="180.14 241.68 197.28 252.09 184.42 263.02 153.95 263.6 136.9 253.09 149.63 242.29 180.14 241.68"/><polygon class="cls-12" points="197.75 252.83 197.67 256.53 184.53 267.75 184.52 263.91 197.75 252.83"/><polygon class="cls-11" points="153.78 268.46 153.82 264.39 184.52 263.91 184.53 267.75 153.78 268.46"/><polygon class="cls-10" points="136.26 253.88 136.28 258.15 153.78 268.46 153.82 264.39 136.26 253.88"/><polygon class="cls-9" points="136.26 253.88 136.9 253.09 153.95 263.6 153.82 264.39 136.26 253.88"/><polygon class="cls-8" points="184.42 263.02 184.52 263.91 153.82 264.39 153.95 263.6 184.42 263.02"/><polygon class="cls-7" points="197.28 252.09 197.75 252.83 184.52 263.91 184.42 263.02 197.28 252.09"/><polygon class="cls-17" points="136.9 253.09 139.54 254.72 151.98 243.58 179.84 242.28 197.28 252.09 180.14 241.68 149.63 242.29 136.9 253.09"/><polygon class="cls-14" points="154.75 246.26 158.15 259.7 182.48 251.59 154.75 246.26"/><polygon class="cls-7" points="182.48 251.59 154.75 246.26 155.04 247.43 180.61 252.22 182.48 251.59"/><polygon class="cls-15" points="158.15 259.7 161.3 258.65 158.24 248.97 178.81 252.81 180.61 252.22 155.04 247.43 158.15 259.7"/><polygon class="cls-13" points="173.27 233.61 190.41 244.03 177.55 254.96 147.08 255.53 130.03 245.03 142.76 234.23 173.27 233.61"/><polygon class="cls-12" points="190.88 244.77 190.8 248.47 177.66 259.69 177.65 255.84 190.88 244.77"/><polygon class="cls-11" points="146.91 260.4 146.94 256.33 177.65 255.84 177.66 259.69 146.91 260.4"/><polygon class="cls-10" points="129.39 245.82 129.41 250.09 146.91 260.4 146.94 256.33 129.39 245.82"/><polygon class="cls-9" points="129.39 245.82 130.03 245.03 147.08 255.53 146.94 256.33 129.39 245.82"/><polygon class="cls-8" points="177.55 254.96 177.65 255.84 146.94 256.33 147.08 255.53 177.55 254.96"/><polygon class="cls-7" points="190.41 244.03 190.88 244.77 177.65 255.84 177.55 254.96 190.41 244.03"/><polygon class="cls-17" points="130.03 245.03 132.67 246.66 145.11 235.52 172.97 234.22 190.41 244.03 173.27 233.61 142.76 234.23 130.03 245.03"/><polygon class="cls-14" points="147.88 238.2 151.28 251.64 175.61 243.53 147.88 238.2"/><polygon class="cls-7" points="175.61 243.53 147.88 238.2 148.18 239.36 173.74 244.15 175.61 243.53"/><polygon class="cls-15" points="151.28 251.64 154.43 250.59 151.37 240.9 171.94 244.75 173.74 244.15 148.18 239.36 151.28 251.64"/><polygon class="cls-7" points="190.63 244.76 190.79 245.58 163.92 251.55 163.93 250.62 190.63 244.76"/><polygon class="cls-8" points="163.92 251.55 137.39 246.22 137.96 245.28 163.93 250.62 163.92 251.55"/><polygon class="cls-9" points="133.7 234.06 137.39 246.22 137.96 245.28 134.32 233.48 133.7 234.06"/><polygon class="cls-10" points="133.7 234.06 133.42 237.8 136.96 250.25 137.41 246.22 133.7 234.06"/><polygon class="cls-11" points="136.96 250.25 163.65 255.4 163.92 251.55 137.41 246.22 136.96 250.25"/><polygon class="cls-12" points="163.92 251.55 163.65 255.4 190.55 249.28 190.79 245.58 163.92 251.55"/><polygon class="cls-13" points="187.35 233 160.01 227.3 134.32 233.48 137.96 245.28 163.93 250.62 190.63 244.76 187.35 233"/><polygon class="cls-14" points="146.19 243.19 183.38 242.49 160.53 231.88 146.19 243.19"/><polygon class="cls-10" points="160.53 231.88 160.44 233.06 180.86 242.53 183.38 242.49 160.53 231.88"/><polygon class="cls-7" points="147.63 243.16 146.19 243.19 160.53 231.88 160.44 233.06 147.63 243.16"/><polygon class="cls-15" points="152.49 243.07 161.88 234.67 178.52 242.58 180.86 242.53 160.44 233.06 147.63 243.16 152.49 243.07"/><polygon class="cls-16" points="134.32 233.48 135.11 236.02 162.06 228.98 187.35 233 160.01 227.3 134.32 233.48"/><polygon class="cls-13" points="174.94 217.83 192.07 228.24 179.22 239.17 148.74 239.75 131.69 229.24 144.42 218.44 174.94 217.83"/><polygon class="cls-12" points="192.54 228.98 192.47 232.68 179.33 243.9 179.31 240.06 192.54 228.98"/><polygon class="cls-11" points="148.57 244.61 148.61 240.54 179.31 240.06 179.33 243.9 148.57 244.61"/><polygon class="cls-10" points="131.05 230.03 131.07 234.3 148.57 244.61 148.61 240.54 131.05 230.03"/><polygon class="cls-9" points="131.05 230.03 131.69 229.24 148.74 239.75 148.61 240.54 131.05 230.03"/><polygon class="cls-8" points="179.22 239.17 179.31 240.06 148.61 240.54 148.74 239.75 179.22 239.17"/><polygon class="cls-7" points="192.07 228.24 192.54 228.98 179.31 240.06 179.22 239.17 192.07 228.24"/><polygon class="cls-17" points="131.69 229.24 134.34 230.87 146.77 219.73 174.63 218.43 192.07 228.24 174.94 217.83 144.42 218.44 131.69 229.24"/><polygon class="cls-14" points="149.54 222.41 152.94 235.85 177.28 227.74 149.54 222.41"/><polygon class="cls-7" points="177.28 227.74 149.54 222.41 149.84 223.58 175.4 228.37 177.28 227.74"/><polygon class="cls-15" points="152.94 235.85 156.09 234.8 153.03 225.12 173.61 228.96 175.4 228.37 149.84 223.58 152.94 235.85"/><polygon class="cls-7" points="188.16 208.75 187.92 209.56 160.73 202.19 161.18 201.35 188.16 208.75"/><polygon class="cls-8" points="160.73 202.19 139.22 184.73 140.19 184.15 161.18 201.35 160.73 202.19"/><polygon class="cls-9" points="141.66 171.96 139.22 184.73 140.19 184.15 142.51 171.73 141.66 171.96"/><polygon class="cls-10" points="141.66 171.96 139.64 175.21 136.92 188.18 139.24 184.73 141.66 171.96"/><polygon class="cls-11" points="136.92 188.18 158.65 205.55 160.73 202.19 139.24 184.73 136.92 188.18"/><polygon class="cls-12" points="160.73 202.19 158.65 205.55 185.94 212.81 187.92 209.56 160.73 202.19"/><polygon class="cls-13" points="190.79 196.53 168.73 178.35 142.51 171.73 140.19 184.15 161.18 201.35 188.16 208.75 190.79 196.53"/><polygon class="cls-14" points="148.65 186.17 182.68 203.24 167.01 182.75 148.65 186.17"/><polygon class="cls-10" points="167.01 182.75 166.37 183.78 180.37 202.08 182.68 203.24 167.01 182.75"/><polygon class="cls-7" points="149.96 186.83 148.65 186.17 167.01 182.75 166.37 183.78 149.96 186.83"/><polygon class="cls-15" points="154.41 189.06 166.92 185.92 178.23 201.01 180.37 202.08 166.37 183.78 149.96 186.83 154.41 189.06"/><polygon class="cls-16" points="142.51 171.73 142.01 174.4 169.79 180.85 190.79 196.53 168.73 178.35 142.51 171.73"/><polygon class="cls-19" points="204.28 354.86 173.53 354.14 193.71 348.64 204.28 354.86"/><polygon class="cls-20" points="173.53 354.14 180.94 334.82 193.71 348.64 173.53 354.14"/><polygon class="cls-21" points="177.01 322.61 180.94 334.82 173.53 354.14 177.01 322.61"/><polygon class="cls-20" points="207.97 337.19 193.71 348.64 204.28 354.86 207.97 337.19"/><polygon class="cls-22" points="201.28 330.64 193.71 348.64 180.94 334.82 201.28 330.64"/><polygon class="cls-23" points="196.04 323.23 177.01 322.61 180.94 334.82 196.04 323.23"/><polygon class="cls-23" points="194.63 318.3 177.01 322.61 180.39 318.68 194.63 318.3"/><polygon class="cls-24" points="208.88 350.53 204.28 354.86 207.97 337.19 208.88 350.53"/><polygon class="cls-25" points="194.63 318.3 196.04 323.23 177.01 322.61 194.63 318.3"/><polygon class="cls-26" points="201.28 330.64 196.04 323.23 180.94 334.82 201.28 330.64"/><polygon class="cls-21" points="207.97 337.19 201.28 330.64 193.71 348.64 207.97 337.19"/><polygon class="cls-22" points="210.37 337.95 207.97 337.19 208.88 350.53 210.37 337.95"/><polyline class="cls-27" points="201.28 330.64 180.94 334.82 183.1 337.16 199.86 331.83 199.03 336 201.28 330.64"/><polygon class="cls-19" points="183.1 337.16 173.53 354.14 180.94 334.82 183.1 337.16"/><polygon class="cls-28" points="195.76 349.84 193.71 348.64 173.53 354.14 195.76 349.84"/><polygon class="cls-29" points="196.04 323.23 177.01 322.61 192.33 324.58 191.73 326.54 196.04 323.23"/><polygon class="cls-30" points="179.13 329.2 173.53 354.14 177.01 322.61 179.13 329.2"/><ellipse class="cls-23" cx="202.27" cy="328.32" rx="2.23" ry="12.71" transform="translate(-160.88 198.6) rotate(-38.71)"/><path class="cls-21" d="M204.47,328.34a36.61,36.61,0,0,1,5.9,9.61c.31-1.4-2.38-6.13-6.36-11.11-4.39-5.47-8.74-9.18-9.7-8.4-.24.19-.25.66-.05,1.34C195.87,319.44,200.24,323.07,204.47,328.34Z"/><path class="cls-23" d="M207.58,337.5s-1.17-.91-1.17-.91L193.34,349Z"/><polygon class="cls-23" points="180.39 318.68 177.01 322.61 180.94 334.82 192.33 349.37 204.28 354.86 208.88 350.53 208.88 350.53 204.31 354.26 193.71 348.64 193.71 348.64 181.43 334.84 177.69 322.64 180.39 318.68"/><path class="cls-31" d="M210.2,339.38c-1,.85-5.74-3.46-9.06-7.9-4.53-5.66-7.35-11-7-12.56,0,1.59,2.58,6,6.39,10.79,4.39,5.48,8.73,9.29,9.69,8.52a.49.49,0,0,0,.16-.28l-.17,1.43"/><polygon class="cls-31" points="196.88 324.43 202.34 324.15 196.94 323.34 196.65 317.88 195.85 323.29 190.39 323.57 195.79 324.38 196.08 329.84 196.88 324.43"/><polygon class="cls-31" points="192.11 316.49 194.61 316.86 194.74 319.38 195.11 316.89 197.63 316.75 195.13 316.38 195 313.87 194.63 316.36 192.11 316.49"/><polygon class="cls-31" points="195.88 323.35 180.94 334.82 197.09 325.04 195.88 323.35"/><polygon class="cls-31" points="132.78 229.24 132.23 223.8 131.69 229.24 126.25 229.78 131.69 230.33 132.23 235.77 132.78 230.33 138.22 229.78 132.78 229.24"/><polygon class="cls-31" points="90.33 316.06 89.79 310.63 89.24 316.06 83.8 316.61 89.24 317.15 89.79 322.59 90.33 317.15 95.77 316.61 90.33 316.06"/></g></g></svg>