<svg id="Layer_1" data-name="Layer 1" xmlns="http://www.w3.org/2000/svg" viewBox="0 0 18 24"><defs><style>.cls-1{fill:#9c6049;}.cls-2{fill:#fff;}</style></defs><path class="cls-1" d="M10,0H8A8,8,0,0,0,0,8v8a8,8,0,0,0,8,8h2a8,8,0,0,0,8-8V8A8,8,0,0,0,10,0Zm6,16a6,6,0,0,1-6,6H8a6,6,0,0,1-6-6V8A6,6,0,0,1,8,2h2a6,6,0,0,1,6,6Z"/><path class="cls-2" d="M9,9a.5.5,0,0,1-.5-.5v-2a.5.5,0,0,1,1,0v2A.5.5,0,0,1,9,9Z"/><path class="cls-1" d="M9,5A1.5,1.5,0,0,0,7.5,6.5v2a1.5,1.5,0,0,0,3,0v-2A1.5,1.5,0,0,0,9,5Z"/></svg>