<svg id="Laag_1" data-name="Laag 1" xmlns="http://www.w3.org/2000/svg" viewBox="0 0 1200 164"><defs><style>.cls-1{fill:#994e1c;}.cls-2{fill:#51240d;}.cls-3{fill:#77380e;}.cls-4{fill:#602e11;}.cls-5{fill:#bf6b33;}.cls-6{fill:#f3dcb5;}</style></defs><polygon class="cls-1" points="1186.58 164 1108.58 164 1112.58 110 1186.58 142 1186.58 164"/><polygon class="cls-2" points="1186.58 142 1172.58 136 1182.58 134 1186.58 142"/><polygon class="cls-3" points="1200 0 1195.93 90.65 1169.66 102.65 1187.67 119.84 1186.58 134 1168.58 138 14.95 139.37 10.26 66.72 42.41 48.08 0 44.45 4.56 0 1200 0"/><polygon class="cls-2" points="1181.56 97.19 1187.65 119.84 1169.64 102.65 1181.56 97.19"/><polygon class="cls-2" points="0.02 44.45 16.28 51.6 10.33 66.68 42.42 48.08 0.02 44.45"/><polygon class="cls-4" points="4.58 2 1196.58 34 1198.58 6 4.58 2"/><path class="cls-4" d="M176,89.54,12.82,96.91l-1.3-16L102,80.8a300.23,300.23,0,0,1,57,5.44Z"/><path class="cls-4" d="M200.5,30.42l-17.24,2.37a302.46,302.46,0,0,1-57.14,2.56L1.81,28.78,3.75,11.35Z"/><polygon class="cls-1" points="82.58 164 4.58 164 8.58 110 82.58 110 82.58 164"/><polygon class="cls-1" points="1196.58 90 1118.58 90 1122.58 36 1196.58 68 1196.58 90"/><path class="cls-5" d="M87.54,144H5.62l1.06-12.85c9.78.49,21.91.7,31.47,2.71Z"/><rect class="cls-6" x="37.58" width="1134" height="164"/></svg>